<svg xmlns="http://www.w3.org/2000/svg"><defs><font id="sf_ui_displayheavy" horiz-adv-x="1372"><font-face units-per-em="2048" ascent="1638" descent="-410"/><glyph horiz-adv-x="0"/><glyph horiz-adv-x="0"/><glyph horiz-adv-x="414"/><glyph horiz-adv-x="414"/><glyph horiz-adv-x="414"/><glyph unicode="!" horiz-adv-x="701" d="M161 147q0 75 55.5 127T351 326q78 0 133.5-52T540 147 484.5 19.5 351-33q-79 0-134.5 52.5T161 147zm8 1296h364l-31-970H200z"/><glyph unicode="&quot;" horiz-adv-x="993" d="M94 851v592h297V851H94zm507 0v592h298V851H601z"/><glyph unicode="#" horiz-adv-x="1305" d="M18 370l48 253h202l43 217H114l48 251h198l71 353h262l-69-353h195l70 353h264l-70-353h210l-48-251h-213l-42-217h205l-47-253H940L867 0H603l74 370H481L407 0H145l73 370H18zm486 227h237l55 269H558z"/><glyph unicode="$" d="M88 420h347q4-66 56.5-113T624 252v322l-119 26q-192 42-291 148.5T115 1019q0 194 133.5 310.5T624 1464v136h144v-137q223-21 354.5-138t133.5-296H920q-2 60-45 106t-107 56V880l119-22q397-77 397-415 0-198-133.5-315.5T768-10v-126H624v124Q371 1 230 114.5T88 420zm378 633q0-112 158-144v284q-70-5-114-43.5t-44-96.5zm302-801q82 6 128 46t46 104q0 115-174 148V252z"/><glyph unicode="%" horiz-adv-x="1680" d="M42 1117q0 175 92 276.5T385 1495q160 0 251.5-101t91.5-277-92.5-279.5T385 734 134.5 837.5 42 1117zM152 0l1052 1443h300L453 0H152zm148 1116q0-83 22.5-131t62.5-48 63 48 23 132q0 83-22.5 128.5T385 1291q-40 0-62.5-46T300 1116zm652-757q0 175 92 276.5T1295 737q160 0 251.5-101t91.5-277-92.5-279.5T1295-24 1044.5 79.5 952 359zm258-1q0-83 22.5-131t62.5-48 63 48 23 132q0 83-22.5 128.5T1295 533q-40 0-62.5-46T1210 358z"/><glyph unicode="&amp;" horiz-adv-x="1472" d="M60 374q0 121 62 210.5T319 750q3 1 20.5 11t33 18.5T389 788q-98 99-138.5 173.5T210 1116q0 148 122.5 245.5T642 1459q188 0 305-93t117-241q0-221-283-378l231-249q42 74 42 214v94h285V687q0-114-33-219.5T1215 287L1492 0h-380l-100 106Q938 43 822.5 8T574-27Q336-27 198 80.5T60 374zm323 30q0-84 63-135t165-51q69 0 129.5 22t93.5 60L544 611q-17-6-36-18-67-43-96-87t-29-102zm120 694q0-45 27-88t96-108q81 43 118.5 90t37.5 106q0 61-38.5 100t-99.5 39-101-39.5-40-99.5z"/><glyph unicode="'" horiz-adv-x="485" d="M94 851v592h297V851H94z"/><glyph unicode="(" horiz-adv-x="749" d="M110 600q0 268 69 464.5T390 1443h334q-102-118-174.5-351T477 602q0-249 61.5-458.5T721-277H381Q257-122 183.5 105T110 600z"/><glyph unicode=")" horiz-adv-x="749" d="M25 1443h333q143-181 212-378t69-465q0-269-74-496T367-277H28Q149-66 210.5 143.5T272 602q0 256-72.5 489T25 1443z"/><glyph unicode="*" horiz-adv-x="997" d="M92 1011l277 100-277 99 117 203 226-193-54 293h235l-53-293 225 193 117-203-277-99 277-100-117-203-223 188 51-288H381l51 288-223-188z"/><glyph unicode="+" d="M130 431v305h399v423h314V736h399V431H843V6H529v425H130z"/><glyph unicode="," horiz-adv-x="595" d="M82-278l74 583h322L349-278H82z"/><glyph unicode="-" horiz-adv-x="918" d="M130 431v305h658V431H130z"/><glyph unicode="." horiz-adv-x="595" d="M112 173q0 77 54 131.5T297 359q78 0 132-54.5T483 173 429 41.5 297-13q-77 0-131 54.5T112 173z"/><glyph unicode="/" horiz-adv-x="737" d="M0-274l401 1718h336L330-274H0z"/><glyph unicode="0" horiz-adv-x="1380" d="M79 724q0 354 164.5 555T691 1480q282 0 446-201t164-554-163.5-557T691-36q-284 0-448 203T79 724zm373 1q0-229 64.5-352T691 250t173.5 122.5T928 724t-63.5 349.5T691 1194t-174.5-121T452 725z"/><glyph unicode="1" horiz-adv-x="1023" d="M83 877v316l367 250h366V0H451v1121h-7z"/><glyph unicode="2" horiz-adv-x="1275" d="M73 992v7q0 214 155 347t407 133q244 0 392.5-119t148.5-310q0-54-17-108.5t-40-96-62.5-90-67.5-77-73-71.5L571 289v-7h623V0H94v245l563 518q91 87 127.5 147.5T821 1038q0 70-55 117.5T623 1203q-93 0-153.5-57.5T409 999v-7H73z"/><glyph unicode="3" horiz-adv-x="1330" d="M72 429h350q5-82 67-129.5T655 252q98 0 159.5 49.5T876 431q0 84-60 132t-165 48H475v253h175q93 0 149 47.5t56 125.5q0 79-55 124t-153 45q-94 0-153-52t-62-136H100q4 209 158 335t405 126q241 0 386.5-107t145.5-285q0-129-83-219T895 754v-8q162-15 257.5-107t95.5-239q0-198-164.5-317T649-36Q396-36 239.5 91T72 429z"/><glyph unicode="4" horiz-adv-x="1373" d="M69 234v307q97 187 222.5 393.5T619 1443h510V520h180V234h-180V0H782v234H69zm311 273h412v688h-7Q640 979 551.5 832.5T380 517v-10z"/><glyph unicode="5" horiz-adv-x="1323" d="M113 422h333q13-78 78.5-127T682 246q103 0 167.5 65T914 479q0 107-64 173.5T683 719q-71 0-129.5-31T460 601H136l68 842h966v-282H488l-27-356h7q42 79 125 123.5T788 973q206 0 339-137t133-348q0-235-160.5-379.5T679-36Q434-36 275.5 92T113 422z"/><glyph unicode="6" horiz-adv-x="1364" d="M80 716q0 355 169.5 559T708 1479q218 0 373.5-115t184.5-297H909q-18 59-73.5 95T707 1198q-137 0-214-128.5T427 722h7q42 108 140 171.5T809 957q204 0 339.5-135T1284 482q0-228-162-373T707-36q-152 0-276 60T228 197Q80 392 80 716zm396-244q0-95 66-160t161-65q96 0 162.5 65T932 471q0 95-65.5 159T704 694t-162.5-64T476 472z"/><glyph unicode="7" horiz-adv-x="1199" d="M57 1161v282h1073v-283L549 0H165l604 1154v7H57z"/><glyph unicode="8" horiz-adv-x="1394" d="M79 391q0 146 98.5 247.5T434 760v7q-132 26-214.5 117T137 1097q0 167 156.5 274.5T696 1479q247 0 403-108t156-275q0-120-82-211.5T960 767v-7q158-21 256-122.5t98-247.5q0-191-170.5-308.5T696-36Q417-36 248 81.5T79 391zm385 27q0-87 65-144.5T696 216q103 0 168 57.5T929 418t-65 144-168 57q-102 0-167-57t-65-144zm35 631q0-76 56-127t141-51q86 0 142 51t56 127q0 77-56 128t-142 51q-85 0-141-51t-56-128z"/><glyph unicode="9" horiz-adv-x="1370" d="M80 962q0 226 164 371.5T660 1479q154 0 278.5-59.5T1143 1247q148-195 148-519 0-356-168-560T660-36Q440-36 283.5 79.5T99 377h358q18-59 75.5-95.5T666 245q135 0 210.5 127T940 723h-6q-37-108-135.5-172T559 487q-204 0-341.5 135T80 962zm355 11q0-95 66-158.5T664 751q96 0 161.5 63.5T891 972q0 95-65.5 160.5T665 1198q-96 0-163-65.5T435 973z"/><glyph unicode=":" horiz-adv-x="595" d="M112 173q0 77 54 131.5T297 359q78 0 132-54.5T483 173 429 41.5 297-13q-77 0-131 54.5T112 173zm0 704q0 77 54 131t131 54q78 0 132-54t54-131-54-131.5T297 691q-77 0-131 54.5T112 877z"/><glyph unicode=";" horiz-adv-x="595" d="M51-278l74 583h322L318-278H51zm61 1155q0 77 54 131t131 54q78 0 132-54t54-131-54-131.5T297 691q-77 0-131 54.5T112 877z"/><glyph unicode="&lt;" d="M190 448v270l992 495V867L552 590v-11l630-271V-38z"/><glyph unicode="=" d="M143 176v303h1086V176H143zm0 512v303h1086V688H143z"/><glyph unicode="&gt;" d="M190-38v346l630 272v10L190 867v346l992-495V449z"/><glyph unicode="?" horiz-adv-x="1141" d="M52 1023q2 198 138.5 315.5T565 1456q227 0 364.5-110t137.5-290q0-110-52.5-190.5T851 721q-103-60-139-104t-36-114v-47H364l-3 40q-14 127 25 203.5T531 837q102 60 136.5 102t34.5 108q0 61-44.5 99T542 1184q-72 0-117.5-44T377 1023H52zm285-876q0 75 55 127t134 52q78 0 133.5-52T715 147 659.5 19.5 526-33q-79 0-134 52t-55 128z"/><glyph unicode="@" horiz-adv-x="1819" d="M70 622q0 244 108 434t303 295 445 105q178 0 328.5-54t256.5-151 165.5-236.5T1736 710q0-235-108-372.5T1334 200q-97 0-163 39.5T1085 351h-17q-62-152-235-152-156 0-251 116t-95 306q0 182 91 294.5T817 1028q82 0 144-37.5t92-104.5h17v118h229V496q0-53 22.5-83t64.5-30q66 0 105 81t39 222q0 272-165 433t-442 161q-288 0-467.5-184T276 617q0-301 186.5-474T964-30q149 0 240 28v-178q-114-30-261-30-192 0-354 59.5T312.5 16 134 279 70 622zm679-8q0-98 38.5-153T895 406t108 55.5 39 152.5-39.5 152.5T895 822t-107-55.5T749 614z"/><glyph unicode="A" horiz-adv-x="1477" d="M29 0l485 1443h449L1448 0h-390l-91 317H495L403 0H29zm537 581h329l-160 556h-8z"/><glyph unicode="B" horiz-adv-x="1352" d="M109 0v1443h675q213 0 334.5-96.5T1240 1083q0-120-81-208T957 770v-8q148-7 249-105t101-241q0-190-137-303T802 0H109zm367 260h222q114 0 175 48.5T934 448q0 88-62 136t-176 48H476V260zm0 595h193q100 0 156.5 44.5T882 1022q0 76-51.5 118.5T687 1183H476V855z"/><glyph unicode="C" horiz-adv-x="1488" d="M69 722q0 351 188 548.5T770 1468q181 0 328-72.5t233.5-204T1423 892h-353q-13 127-96 204.5T770 1174q-151 0-239-121t-88-330q0-212 88-333t240-121q121 0 202.5 74t98.5 201h353q-13-256-194-412.5T770-25q-326 0-513.5 197.5T69 722z"/><glyph unicode="D" horiz-adv-x="1459" d="M109 0v1443h589q328 0 509.5-185T1389 730q0-345-182-537.5T698 0H109zm367 296h173q180 0 273.5 109t93.5 324q0 202-96 310t-271 108H476V296z"/><glyph unicode="E" horiz-adv-x="1196" d="M109 0v1443h989v-296H476V860h585V590H476V296h622V0H109z"/><glyph unicode="F" horiz-adv-x="1144" d="M109 0v1443h982v-296H476V819h559V538H476V0H109z"/><glyph unicode="G" horiz-adv-x="1510" d="M69 724q0 350 188 547t516 197q261 0 441-140t208-361h-363q-27 96-103 151t-182 55q-156 0-243.5-117T443 729q0-213 94-336t253-123q124 0 204 67t88 176l1 22H819v252h618V610q0-296-174-465.5T782-25q-335 0-524 197.5T69 724z"/><glyph unicode="H" horiz-adv-x="1527" d="M109 0v1443h367V877h575v566h366V0h-366v581H476V0H109z"/><glyph unicode="I" horiz-adv-x="585" d="M109 0v1443h367V0H109z"/><glyph unicode="J" horiz-adv-x="1210" d="M25 470h353q1-86 47.5-136.5T551 283q81 0 124 50.5T718 480v963h366V478q0-242-139.5-373.5T555-27q-243 0-386.5 134T25 470z"/><glyph unicode="K" horiz-adv-x="1401" d="M109 0v1443h367V809h8l491 634h394L866 802 1398 0H967L599 564 476 408V0H109z"/><glyph unicode="L" horiz-adv-x="1132" d="M109 0v1443h367V296h597V0H109z"/><glyph unicode="M" horiz-adv-x="1802" d="M109 0v1443h424l364-927h8l364 927h424V0h-323v901h-7L1006 15H796L440 901h-8V0H109z"/><glyph unicode="N" horiz-adv-x="1479" d="M109 0v1443h293l612-839h8v839h348V0h-290L465 847h-8V0H109z"/><glyph unicode="O" horiz-adv-x="1564" d="M69 721q0 345 192.5 546T782 1468t520-201 192-546-192-545.5T782-25q-329 0-521 200.5T69 721zm374 0q0-205 92-326.5T782 273q154 0 246.5 121.5T1121 721q0 206-92.5 327.5T782 1170t-246.5-121.5T443 721z"/><glyph unicode="P" horiz-adv-x="1315" d="M109 0v1443h633q233 0 376-140t143-371q0-230-150-369.5T719 423H476V0H109zm367 699h166q118 0 183 60t65 172-64.5 171.5T644 1162H476V699z"/><glyph unicode="Q" horiz-adv-x="1563" d="M69 721q0 344 192.5 545.5T782 1468q327 0 519-201.5T1493 721q0-182-54.5-326T1280 160l179-281h-341l-87 133Q917-25 782-25q-330 0-521.5 199T69 721zm374 0q0-206 92.5-329.5T782 268q43 0 76 10L712 507h311l32-43q65 105 65 257 0 206-92 330t-246 124-246.5-124T443 721z"/><glyph unicode="R" horiz-adv-x="1358" d="M109 0v1443h620q268 0 411-125t143-351q0-136-65-246.5T1037 559L1325 0H913L666 505H476V0H109zm367 756h217q101 0 158 55t57 149q0 93-59 149.5T692 1166H476V756z"/><glyph unicode="S" horiz-adv-x="1334" d="M63 418h349q10-73 83.5-119T672 253q106 0 171 42.5T908 404q0 60-50.5 93.5T683 557l-189 37q-199 38-301 143.5T91 1008q0 208 160.5 334T665 1468q268 0 421.5-120.5T1243 1022H905q-5 78-70 123t-166 45q-96 0-154.5-40T456 1044q0-58 50.5-93.5T671 892l187-35q213-41 313-141t100-271q0-215-165-342.5T662-25Q385-25 225.5 92T63 418z"/><glyph unicode="T" horiz-adv-x="1259" d="M46 1147v296h1167v-296H813V0H446v1147H46z"/><glyph unicode="U" horiz-adv-x="1461" d="M109 512v931h367V551q0-127 66.5-197.5T731 283t188 70.5T985 551v892h367V512q0-243-170-390T731-25q-282 0-452 147T109 512z"/><glyph unicode="V" horiz-adv-x="1440" d="M29 1443h417L724 359h8l277 1084h402L951 0H489z"/><glyph unicode="W" horiz-adv-x="2022" d="M41 1443h379l195-975h8l241 975h294l241-975h8l195 975h379L1604 0h-346l-243 901h-8L764 0H418z"/><glyph unicode="X" horiz-adv-x="1458" d="M42 0l441 723v8L43 1443h428l265-488h7l267 488h407L958 727v-7L1413 0h-412L721 468h-8L432 0H42z"/><glyph unicode="Y" horiz-adv-x="1419" d="M29 1443h394l287-600h7l286 600h387L893 496V0H526v496z"/><glyph unicode="Z" horiz-adv-x="1307" d="M84 0v233l686 907v7H95v296h1106v-233L518 303v-7h705V0H84z"/><glyph unicode="[" horiz-adv-x="803" d="M117-240v1684h639v-257H457V16h312v-256H117z"/><glyph unicode="\" horiz-adv-x="737" d="M0 1443h337L737-275H408z"/><glyph unicode="]" horiz-adv-x="803" d="M34 16h312v1171H47v257h639V-240H34V16z"/><glyph unicode="^" horiz-adv-x="1021" d="M39 808l325 604h297l321-604H677l-158 333h-18L334 808H39z"/><glyph unicode="_" horiz-adv-x="872" d="M-42-107h956v-266H-42v266z"/><glyph unicode="`" horiz-adv-x="1013" d="M236 1585h312l227-316H500z"/><glyph unicode="a" horiz-adv-x="1191" d="M45 322q0 155 115.5 241T496 663l261 16v64q0 67-44.5 103.5T592 883q-71 0-117-33.5T421 763H102q7 169 144.5 271.5T609 1137q222 0 358-103.5T1103 762V0H759v160h-7Q708 78 616.5 31.5T421-15q-159 0-267.5 94.5T45 322zm351 24q0-53 40.5-84T546 231q88 0 149.5 47.5T757 401v77l-205-14q-75-5-115.5-36T396 346z"/><glyph unicode="b" horiz-adv-x="1293" d="M95 0v1515h354V918h8q43 100 131 155t206 55q211 0 328-150t117-421-116.5-421.5T797-15q-121 0-210.5 54T454 191h-7V0H95zm353 556q0-133 58.5-212.5T663 264t156 79.5T877 557q0 133-58.5 212.5T663 849t-156-80-59-213z"/><glyph unicode="c" horiz-adv-x="1185" d="M54 557q0 268 151 424t410 156q232 0 373.5-126T1138 677H813q-9 87-60.5 138.5T621 867q-98 0-153.5-81.5T412 557q0-149 55-229.5T621 247q81 0 131.5 47.5T813 429h326q-8-210-148.5-331.5T617-24q-261 0-412 155T54 557z"/><glyph unicode="d" horiz-adv-x="1289" d="M54 559q0 265 120 417t328 152q119 0 207.5-57.5T836 918h7v597h355V0H845v191h-6q-35-91-127-148.5T499-15q-207 0-326 153T54 559zm362-2q0-136 57.5-214.5T631 264q99 0 156.5 78T845 556q0 135-57.5 214T631 849t-157-78.5T416 557z"/><glyph unicode="e" horiz-adv-x="1205" d="M54 551q0 269 149 427.5T606 1137q249 0 397.5-151.5T1152 580V479H399v-22q0-102 62-165.5T623 228q74 0 128 32.5t74 89.5h320q-26-171-168.5-272.5T618-24q-264 0-414 153T54 551zm349 131h414q-5 92-61.5 147.5T611 885q-85 0-143-57t-65-146z"/><glyph unicode="f" horiz-adv-x="789" d="M29 851v262h149v97q0 164 90 234.5t302 70.5q74 0 156-11v-234q-37 7-81 7-64 0-93-22.5t-29-71.5v-70h204V851H532V0H178v851H29z"/><glyph unicode="g" horiz-adv-x="1287" d="M54 560q0 265 120 416.5T503 1128q118 0 207.5-57.5T839 918h6v195h353V22q0-198-157-316.5T624-413q-236 0-384 92.5T85-73h344q11-47 67.5-75.5T630-177q97 0 155 46.5T843-4v211h-7q-34-89-125.5-142.5T497 11q-201 0-322 146.5T54 560zm362-2q0-135 57-209.5T630 274t157.5 74.5T845 557t-58 213-157 79-156.5-78.5T416 558z"/><glyph unicode="h" horiz-adv-x="1269" d="M95 0v1515h347V904h7q44 112 133 170t216 58q185 0 286-111t101-309V0H830v636q0 98-47.5 152.5T645 843q-92 0-144-59.5T449 627V0H95z"/><glyph unicode="i" horiz-adv-x="537" d="M86 1380q0 74 53 124.5t129 50.5 129.5-50.5T451 1380q0-75-53-125t-130-50q-76 0-129 50t-53 125zM91 0v1113h355V0H91z"/><glyph unicode="j" horiz-adv-x="537" d="M-80-120q20-2 42-2 69 0 99 25t30 83v1127h355V-27q0-169-109.5-260T23-378q-55 0-103 5v253zM86 1380q0 74 53 124.5t129 50.5 129.5-50.5T451 1380q0-75-53-125t-130-50q-76 0-129 50t-53 125z"/><glyph unicode="k" horiz-adv-x="1179" d="M95 0v1515h354V687h7l327 426h396L779 636 1202 0H794L517 424l-68-79V0H95z"/><glyph unicode="l" horiz-adv-x="545" d="M95 0v1515h354V0H95z"/><glyph unicode="m" horiz-adv-x="1868" d="M89 0v1113h344V899h7q33 107 119 170t199 63q124 0 205-61.5T1068 896h7q33 108 126.5 172t217.5 64q163 0 264-104.5T1784 754V0h-354v664q0 89-40.5 134.5T1270 844q-75 0-119.5-50T1106 660V0H768v669q0 84-41.5 129.5T608 844q-74 0-119.5-51T443 658V0H89z"/><glyph unicode="n" horiz-adv-x="1256" d="M89 0v1113h344V904h7q92 228 345 228 185 0 286-110.5T1172 713V0H817v637q0 98-46 152t-136 54q-89 0-140.5-59.5T443 628V0H89z"/><glyph unicode="o" horiz-adv-x="1242" d="M54 557q0 269 153 424.5T621 1137q262 0 414.5-154.5T1188 557q0-275-151-428T621-24 205 129.5 54 557zm359 0q0-153 55-236.5T621 237t153 83.5T829 557q0 149-56 234t-152 85q-97 0-152.5-84.5T413 557z"/><glyph unicode="p" horiz-adv-x="1287" d="M89-360v1473h352V918h7q42 99 131 154.5t208 55.5q211 0 328.5-150T1233 557t-116.5-421.5T791-15q-121 0-210 54T450 190h-7v-550H89zm353 916q0-134 58-213t156-79 156 79.5T870 557q0 133-58.5 212.5T656 849t-155.5-80T442 556z"/><glyph unicode="q" horiz-adv-x="1287" d="M54 559q0 265 120 417t329 152q119 0 208.5-57.5T839 918h6v195h353V-360H843v550h-7Q801 99 709.5 42T497-15q-206 0-324.5 153T54 559zm362-2q0-137 57-215t157-78 157.5 78T845 556q0 134-58 213.5T630 849t-156.5-78.5T416 557z"/><glyph unicode="r" horiz-adv-x="816" d="M89 0v1113h344V904h7q61 224 263 224 49 0 91-14V810q-46 20-115 20-114 0-175-62.5T443 588V0H89z"/><glyph unicode="s" horiz-adv-x="1128" d="M43 349h344q8-63 57.5-98T574 216q74 0 116.5 25.5T733 312q0 35-28.5 56T610 403l-209 44q-163 34-247.5 118T69 776q0 166 133.5 263.5T563 1137q225 0 357-100t134-271H730q-2 60-48.5 95.5T559 897q-67 0-108-27t-41-71q0-67 128-94l230-48q167-35 241.5-107t74.5-198q0-171-142-273.5T567-24Q330-24 192 76.5T43 349z"/><glyph unicode="t" horiz-adv-x="797" d="M29 851v262h149v246h354v-246h201V851H532V376q0-117 129-117 37 0 72 5V12Q672-2 577-2 363-2 270.5 69.5T178 305v546H29z"/><glyph unicode="u" horiz-adv-x="1256" d="M84 399v714h354V477q0-100 49-153.5T624 270q86 0 137 59t51 156v628h355V0H822v210h-7Q736-19 491-19 308-19 196 93T84 399z"/><glyph unicode="v" horiz-adv-x="1150" d="M-2 1113h381l199-814h7l196 814h370L781 0H373z"/><glyph unicode="w" horiz-adv-x="1729" d="M15 1113h357l145-791h7l174 791h338l176-791h7l145 791h350L1426 0h-382L865 755h-7L680 0H304z"/><glyph unicode="x" horiz-adv-x="1163" d="M17 0l336 554-336 559h401l170-359h7l169 359h383L811 561 1146 0H762L575 369h-7L385 0H17z"/><glyph unicode="y" horiz-adv-x="1194" d="M6 1113h391l205-845h7l205 845h374L830 2q-71-222-203.5-315.5T254-407q-119 0-129 2v268q5-1 62-1 176 0 194 98l5 31z"/><glyph unicode="z" horiz-adv-x="1095" d="M68 0v189l529 651v7H81v266h929V896L528 273v-7h499V0H68z"/><glyph unicode="{" horiz-adv-x="891" d="M108 453v310q91 0 126.5 45.5T270 970v158q0 209 106.5 298.5T730 1516h128v-250h-45q-121 0-162.5-40.5T609 1068V855q0-110-53-165.5T387 624v-33q109-9 165.5-73.5T609 337V107q0-116 42-157t162-41h45v-249H730q-246 0-353 92T270 57v191q0 116-35 160.5T108 453z"/><glyph unicode="|" horiz-adv-x="686" d="M173-275v1718h340V-275H173z"/><glyph unicode="}" horiz-adv-x="891" d="M34-91h44q120 0 161.5 41T281 107v230q0 115 57.5 180T506 591v33q-117 10-171 65.5T281 855v213q0 117-41 157.5T78 1266H34v250h129q247 0 352-89.5T620 1128V970q0-116 36-161.5T784 763V453q-92 0-128-44.5T620 248V57q0-214-106-305.5T163-340H34v249z"/><glyph unicode="~" horiz-adv-x="1178" d="M44 512q-13 214 76.5 340T374 978q70 0 133.5-31.5T641 845q39-40 66.5-55.5T767 774q100 0 103 178h263q13-214-76-340T804 486q-69 0-131 31T541 617q-41 41-69 57t-61 16q-100 0-103-178H44z"/><glyph unicode="¢" d="M115 691q0 223 120 372.5T557 1255v196h279v-191q178-31 294-148.5T1257 826H933q-14 77-74 125t-143 48q-108 0-177.5-83T469 691q0-145 69-228.5T715 379q87 0 145 43t73 121h324q-13-170-127-283T836 117V-72H557v195q-203 42-322.5 192T115 691z"/><glyph unicode="£" d="M110 0v274q135 15 217.5 101T410 588q0 12-2 36H116v240h218q-57 141-57 234 0 183 151.5 283.5T857 1482q91 0 191.5-14.5T1203 1432v-276q-54 22-136 36t-157 14q-128 0-198-46.5T642 1029q0-65 37-165h385V624H750v-11q0-94-45.5-178.5T590 308v-10h676V0H110z"/><glyph unicode="¥" d="M6 1443h391l285-595h11l282 595h391L957 666h181V484H870V364h268V182H870V0H503v182H235v182h268v120H235v182h181z"/><glyph unicode="¨" horiz-adv-x="1013" d="M143 1398q0 59 42 100t105 41 105.5-41 42.5-100q0-58-42.5-99.5T290 1257q-62 0-104.5 41.5T143 1398zm433 0q0 59 42 100t105 41 105-41 42-100-42-100-105-41-105 41-42 100z"/><glyph unicode="©" horiz-adv-x="1692" d="M60 663q0 161 62 306.5T289.5 1220t251 167 305.5 62q214 0 395-105t286-286 105-395q0-161-62-306.5t-167.5-251-251-167.5T846-124 540.5-62t-251 167.5-167.5 251T60 663zm176 0q0-125 48.5-238.5t130-195T609 100t237-48q125 0 237.5 48T1278 229.5t130 195 48 238.5q0 167-81.5 307.5t-222 221.5-306.5 81q-124 0-237-48t-194.5-129-130-194.5T236 663zm250 1q0 178 100.5 281.5T859 1049q149 0 243-80.5T1207 756H993q-8 52-42.5 83T863 870q-68 0-106-54.5T719 664q0-100 37.5-154T863 456q53 0 87.5 28t42.5 79h214q-11-132-103.5-209T861 277q-174 0-274.5 103.5T486 664z"/><glyph unicode="«" horiz-adv-x="1384" d="M101 562v8l347 409h307L411 571v-8l344-410H441zm528 0v8l348 409h306L939 571v-8l344-410H970z"/><glyph unicode="­" horiz-adv-x="918" d="M130 431v305h658V431H130z"/><glyph unicode="®" horiz-adv-x="1188" d="M69 1072q0 146 69 265.5t189.5 188T594 1594t266.5-68.5 189-188T1118 1072t-68.5-265.5-189-188T594 550t-266.5 68.5-189.5 188T69 1072zm154 0q0-163 105.5-270.5T594 694t265.5 107.5T965 1072t-105.5 270.5T594 1450t-265.5-107.5T223 1072zm161-230v471h254q81 0 130.5-42t49.5-112q0-52-25.5-90.5T723 1016l119-174H679l-98 154h-58V842H384zm139 253h82q67 0 67 54 0 56-65 56h-84v-110z"/><glyph unicode="´" horiz-adv-x="1013" d="M237 1269l227 316h312l-264-316H237z"/><glyph unicode="¸" horiz-adv-x="1013" d="M343-310q36-12 105-12 100 0 100 45 0 28-25 39.5T436-226h-56v114l63 126L607 0l-48-102q80 0 126.5-43.5T732-265q0-92-65-141.5T480-456q-90 0-137 15v131z"/><glyph unicode="»" horiz-adv-x="1384" d="M101 153l344 410v8L101 979h306l348-409v-8L414 153H101zm528 0l344 410v8L629 979h306l348-409v-8L942 153H629z"/><glyph unicode="ˆ" horiz-adv-x="1014" d="M112 1255l260 327h269l261-327H646l-135 184h-8l-136-184H112z"/><glyph unicode="˚" horiz-adv-x="1024" d="M278 1450q0 93 69 160t165 67q95 0 163.5-67t68.5-160-68.5-160-163.5-67-164.5 67-69.5 160zm139 0q0-37 28.5-64.5T512 1358t66 27.5 28 64.5q0 38-28 65.5t-66 27.5-66.5-27.5T417 1450z"/><glyph unicode="˜" horiz-adv-x="1013" d="M133 1275q0 131 67 207t167 76q49 0 92-20t68.5-43.5T581 1451t51-20q64 0 67 114h181q0-130-67.5-208.5T646 1258q-48 0-90.5 20t-67.5 43.5-53.5 43.5-51.5 20q-33 0-50-30.5t-19-79.5H133z"/><glyph unicode="Ё" horiz-adv-x="1217" d="M119 0v1443h989v-296H486V860h585V590H486V296h622V0H119zm130 1688q0 59 42 100t105 41 105.5-41 42.5-100q0-58-42.5-99.5T396 1547q-62 0-104.5 41.5T249 1688zm433 0q0 59 42 100t105 41 105-41 42-100-42-100-105-41-105 41-42 100z"/><glyph unicode="Ђ" horiz-adv-x="1778" d="M64 1148v295h1168v-295H831V798h8q128 108 339 108 163 0 280-64.5T1631.5 669t56.5-247q0-234-145.5-375T1143-94q-41 0-78.5 4t-54 7.5T989-77v277q33-11 113-11 102 0 160 54t58 153q0 95-61 149t-167 54q-88 0-158-37.5T831 462V0H465v1148H64z"/><glyph unicode="Ѓ" horiz-adv-x="1150" d="M119 0v1443h970v-295H486V0H119zm373 1531l232 316h313l-276-316H492z"/><glyph unicode="Є" horiz-adv-x="1506" d="M79 722q0 352 188.5 554.5T780 1479q264 0 446-154.5T1431 928h-356q-23 113-103 179.5T780 1174q-125 0-212.5-83T462 864h527V592H460q16-150 104-236.5T781 269q113 0 191.5 64T1076 509h357q-26-246-204.5-395.5T780-36q-325 0-513 202.5T79 722z"/><glyph unicode="Ѕ" horiz-adv-x="1355" d="M73 418h349q10-73 83.5-119T682 253q106 0 171 42.5T918 404q0 60-50.5 93.5T693 557l-189 37q-199 38-301 143.5T101 1008q0 208 160.5 334T675 1468q268 0 421.5-120.5T1253 1022H915q-5 78-70 123t-166 45q-96 0-154.5-40T466 1044q0-58 50.5-93.5T681 892l187-35q213-41 313-141t100-271q0-215-165-342.5T672-25Q395-25 235.5 92T73 418z"/><glyph unicode="І" horiz-adv-x="605" d="M119 0v1443h367V0H119z"/><glyph unicode="Ї" horiz-adv-x="605" d="M-61 1688q0 59 42 100t105 41 105.5-41 42.5-100q0-58-42.5-99.5T86 1547q-62 0-104.5 41.5T-61 1688zM119 0v1443h367V0H119zm253 1688q0 59 42 100t105 41 105-41 42-100-42-100-105-41-105 41-42 100z"/><glyph unicode="Ј" horiz-adv-x="1230" d="M35 470h353q1-86 47.5-136.5T561 283q81 0 124 50.5T728 480v963h366V478q0-242-139.5-373.5T565-27q-243 0-386.5 134T35 470z"/><glyph unicode="Љ" horiz-adv-x="2264" d="M65 0v319q48-9 74-9 50 0 85 22t54 66 28 94 12 121l38 830h1057V985h241q242 0 392-135t150-357q0-223-143.5-358T1676 0h-630v1148H682l-29-562q-7-140-34.5-246T538 152.5t-139.5-124T194-14Q112-14 65 0zm1348 283h166q116 0 179.5 54t63.5 157q0 104-64 158.5T1577 707h-164V283z"/><glyph unicode="Њ" horiz-adv-x="2249" d="M119 0v1443h367V892h550v551h367V892h240q244 0 393-121t149-320q0-203-142.5-327T1666 0h-630v605H486V0H119zm1284 283h188q109 0 167.5 44.5T1817 454q0 79-59.5 121.5T1589 618h-186V283z"/><glyph unicode="Ћ" horiz-adv-x="1783" d="M64 1148v295h1168v-295H831V798h8q125 108 326 108 242 0 371-144.5T1665 376V0h-366v355q0 115-57 179.5T1081 599q-85 0-150-38t-100-99V0H465v1148H64z"/><glyph unicode="Ќ" horiz-adv-x="1435" d="M119 0v1443h367V860h8l487 583h401L815 763 1418 0H973L494 599h-8V0H119zm478 1531l232 316h313l-276-316H597z"/><glyph unicode="Ў" horiz-adv-x="1396" d="M39 1443h388l278-732h8l260 732h387L918 413q-47-110-95.5-186T710 94.5t-145-83T380-15q-35 0-71 3.5T254-4t-22 5v290q45-9 92-9 64 0 108.5 17.5T510 363zm303 389h204q2-70 46.5-110.5T708 1681t115.5 40.5T870 1832h204q0-144-101-229.5T708 1517t-265 85.5T342 1832z"/><glyph unicode="Џ" horiz-adv-x="1534" d="M119 0v1443h367V295h562v1148h367V0H940v-285H595V0H119z"/><glyph unicode="А" horiz-adv-x="1497" d="M39 0l485 1443h449L1458 0h-390l-91 317H505L413 0H39zm537 581h329l-160 556h-8z"/><glyph unicode="Б" horiz-adv-x="1333" d="M119 0v1443h1020v-295H486V918h246q239 0 386.5-124T1266 466q0-211-143-338.5T747 0H119zm367 283h171q112 0 173.5 47T892 467t-62 137.5T655 652H486V283z"/><glyph unicode="В" d="M119 0v1443h675q213 0 334.5-96.5T1250 1083q0-120-81-208T967 770v-8q148-7 249-105t101-241q0-190-137-303T812 0H119zm367 260h222q114 0 175 48.5T944 448q0 88-62 136t-176 48H486V260zm0 595h193q100 0 156.5 44.5T892 1022q0 76-51.5 118.5T697 1183H486V855z"/><glyph unicode="Г" horiz-adv-x="1150" d="M119 0v1443h970v-295H486V0H119z"/><glyph unicode="Д" horiz-adv-x="1604" d="M22-285v581h98q70 54 97.5 137.5T255 676l47 767h1092V296h180v-581h-329V0H352v-285H22zm475 581h531v853H623l-33-505q-8-127-28.5-208.5T497 304v-8z"/><glyph unicode="Е" horiz-adv-x="1217" d="M119 0v1443h989v-296H486V860h585V590H486V296h622V0H119z"/><glyph unicode="Ж" horiz-adv-x="2115" d="M16 0l545 756-522 687h401l430-583h8v583h354V860h8l430 583h397l-518-682L2099 0h-437l-422 599h-8V0H878v599h-8L447 0H16z"/><glyph unicode="З" horiz-adv-x="1338" d="M71 428h350q4-82 70-130t176-48q100 0 162 50.5T891 432q0 79-61 123.5T662 600H473v274h189q96 0 154.5 46t58.5 122q0 77-57 121t-157 44-162-51-65-136H100q5 212 159 337t410 125q247 0 398.5-108.5T1219 1088q0-123-75.5-213.5T945 761v-8q147-16 234.5-110.5T1267 404q0-196-169.5-319.5T660-39Q403-39 242 88.5T71 428z"/><glyph unicode="И" horiz-adv-x="1554" d="M119 0v1443h366V558h10l589 885h351V0h-366v884h-10L470 0H119z"/><glyph unicode="Й" horiz-adv-x="1554" d="M119 0v1443h366V558h10l589 885h351V0h-366v884h-10L470 0H119zm301 1832h204q2-70 46.5-110.5T786 1681t115.5 40.5T948 1832h204q0-144-101-229.5T786 1517t-265 85.5T420 1832z"/><glyph unicode="К" horiz-adv-x="1436" d="M119 0v1443h367V860h8l487 583h401L815 763 1418 0H973L494 599h-8V0H119z"/><glyph unicode="Л" horiz-adv-x="1509" d="M42 0v319q48-9 74-9 94 0 133 76t46 227l38 830h1057V0h-366v1148H659l-29-562q-7-142-35.5-249.5t-82-187.5-139-121.5T171-14Q91-14 42 0z"/><glyph unicode="М" horiz-adv-x="1822" d="M119 0v1443h424l364-927h8l364 927h424V0h-323v901h-7L1016 15H806L450 901h-8V0H119z"/><glyph unicode="Н" horiz-adv-x="1547" d="M119 0v1443h367V877h575v566h366V0h-366v581H486V0H119z"/><glyph unicode="О" horiz-adv-x="1584" d="M79 721q0 345 192.5 546T792 1468t520-201 192-546-192-545.5T792-25q-329 0-521 200.5T79 721zm374 0q0-205 92-326.5T792 273q154 0 246.5 121.5T1131 721q0 206-92.5 327.5T792 1170t-246.5-121.5T453 721z"/><glyph unicode="П" horiz-adv-x="1534" d="M119 0v1443h1296V0h-366v1148H486V0H119z"/><glyph unicode="Р" horiz-adv-x="1351" d="M119 0v1443h633q233 0 376-140t143-371q0-230-150-369.5T729 423H486V0H119zm367 699h166q118 0 183 60t65 172-64.5 171.5T654 1162H486V699z"/><glyph unicode="С" horiz-adv-x="1506" d="M79 722q0 352 188.5 554.5T780 1479q264 0 446-154.5T1431 928h-356q-23 113-103 179.5T780 1174q-151 0-239-121t-88-330q0-212 88-333t240-121q113 0 191.5 64T1076 509h357q-26-246-204.5-395.5T780-36q-325 0-513 202.5T79 722z"/><glyph unicode="Т" horiz-adv-x="1303" d="M56 1147v296h1167v-296H823V0H456v1147H56z"/><glyph unicode="У" horiz-adv-x="1396" d="M39 1443h388l278-732h8l260 732h387L918 413q-47-110-95.5-186T710 94.5t-145-83T380-15q-35 0-71 3.5T254-4t-22 5v290q45-9 92-9 64 0 108.5 17.5T510 363z"/><glyph unicode="Ф" horiz-adv-x="1856" d="M70 723q0 273 184.5 432T748 1325v153h360v-153q204-7 356-79t237-206.5 85-317.5q0-273-184.5-432T1108 120V-35H748v155q-204 7-356 79T155 405.5 70 723zm367 0q0-141 86.5-225T754 406v634q-144-8-230.5-92.5T437 723zm666-317q144 8 230 92t86 224q0 141-86 225.5t-230 92.5V406z"/><glyph unicode="Х" horiz-adv-x="1478" d="M52 0l441 723v8L53 1443h428l265-488h7l267 488h407L968 727v-7L1423 0h-412L731 468h-8L442 0H52z"/><glyph unicode="Ц" horiz-adv-x="1624" d="M119 0v1443h367V295h563v1148h366V295h180v-580h-330V0H119z"/><glyph unicode="Ч" horiz-adv-x="1496" d="M121 1015v428h367v-389q0-128 67-198t190-70q94 0 163 36.5T1010 925v518h367V0h-367v587h-8Q868 478 654 478q-240 0-386.5 146.5T121 1015z"/><glyph unicode="Ш" horiz-adv-x="2040" d="M119 0v1443h367V295h351v1148h366V295h351v1148h366V0H119z"/><glyph unicode="Щ" horiz-adv-x="2130" d="M119 0v1443h367V295h351v1148h366V295h351v1148h366V295h180v-580h-329V0H119z"/><glyph unicode="Ъ" horiz-adv-x="1620" d="M69 1149v294h704V985h241q243 0 392.5-135T1556 493q0-223-143-358T1037 0H407v1149H69zm704-866h166q116 0 179.5 54t63.5 157q0 104-64 158.5T937 707H773V283z"/><glyph unicode="Ы" horiz-adv-x="1895" d="M119 0v1443h367V985h241q242 0 391.5-135T1268 493q0-223-143-358T749 0H119zm367 283h166q116 0 179.5 54T895 494q0 104-64.5 158.5T649 707H486V283zM1408 0v1443h367V0h-367z"/><glyph unicode="Ь" horiz-adv-x="1332" d="M119 0v1443h367V985h241q242 0 391.5-135T1268 493q0-223-143-358T749 0H119zm367 283h166q116 0 179.5 54T895 494q0 104-64.5 158.5T649 707H486V283z"/><glyph unicode="Э" horiz-adv-x="1506" d="M73 509h356q25-112 106-176t196-64q127 0 214 86.5T1046 592H517v272h527q-16 143-102.5 226.5T732 1174q-114 0-196-67T431 928H74q15 160 104 285.5T412 1409t320 70q321 0 507.5-202.5T1426 722q0-353-186-555.5T732-36q-272 0-453 150T73 509z"/><glyph unicode="Ю" horiz-adv-x="2140" d="M119 0v1443h367V877h184q41 283 224 444t466 161q322 0 511-204.5T2060 722q0-352-189-556.5T1360-39q-288 0-471.5 165T668 582H486V0H119zm910 722q0-209 90-333t240-124q148 0 238 124.5t90 332.5-90 332-238 124q-149 0-239.5-124T1029 722z"/><glyph unicode="Я" horiz-adv-x="1412" d="M55 0l361 555q-135 49-216 157t-81 252q0 217 149.5 348T676 1443h616V0H929v503H766L452 0H55zm439 963q0-95 59-148.5T717 761h212v405H716q-102 0-162-55t-60-148z"/><glyph unicode="а" horiz-adv-x="1211" d="M55 322q0 155 115.5 241T506 663l261 16v64q0 67-44.5 103.5T602 883q-71 0-117-33.5T431 763H112q7 169 144.5 271.5T619 1137q222 0 358-103.5T1113 762V0H769v160h-7Q718 78 626.5 31.5T431-15q-159 0-267.5 94.5T55 322zm351 24q0-53 40.5-84T556 231q88 0 149.5 47.5T767 401v77l-205-14q-75-5-115.5-36T406 346z"/><glyph unicode="б" horiz-adv-x="1278" d="M70 635q0 190 27.5 337t79 249T306 1390t174 99 217 36l150 4q71 2 140 10.5t107 16.5 47 13v-267q-5-5-35.5-13t-95-16.5T871 1262l-140-4q-191-5-279.5-101.5T337 853h8q106 214 372 214 226 0 361.5-142T1214 543q0-264-151.5-416.5T650-26q-278 0-429 169T70 635zm363-104q0-137 55-212t154-75 154 75 55 212q0 133-55.5 207.5T642 813t-153.5-74.5T433 531z"/><glyph unicode="в" horiz-adv-x="1200" d="M99 0v1113h593q182 0 284-74t102-205q0-91-60-160t-149-81v-8q115-14 187-86t72-176q0-147-114.5-235T706 0H99zm346 210h153q84 0 128.5 35T771 347q0 65-46 99.5T593 481H445V210zm0 457h132q74 0 114.5 31.5T732 786t-38 86.5T587 903H445V667z"/><glyph unicode="г" horiz-adv-x="964" d="M99 0v1113h802V851H453V0H99z"/><glyph unicode="д" horiz-adv-x="1383" d="M20 262h82q57 29 83.5 110T220 578l34 535h945V262h161v-547h-321V0H341v-285H20v547zm432 0h395v590H549l-20-300q-13-180-77-282v-8z"/><glyph unicode="е" horiz-adv-x="1225" d="M64 551q0 269 149 427.5T616 1137q249 0 397.5-151.5T1162 580V479H409v-22q0-102 62-165.5T633 228q74 0 128 32.5t74 89.5h320q-26-171-168.5-272.5T628-24q-264 0-414 153T64 551zm349 131h414q-5 92-61.5 147.5T621 885q-85 0-143-57t-65-146z"/><glyph unicode="ж" horiz-adv-x="1782" d="M6 0l390 593-375 520h400l286-428h8v428h348V685h8l286 428h396l-371-513L1776 0h-413l-292 451h-8V0H715v451h-8L414 0H6z"/><glyph unicode="з" horiz-adv-x="1167" d="M60 381h334q40-138 191-138 75 0 117 30t42 83q0 103-158 103H438v217h136q140 0 140 98 0 49-36 76.5T575 878q-144 0-164-124H80q15 181 145.5 283T573 1139q235 0 360-84t125-240q0-83-42.5-143.5T897 588v-8q97-27 149-90.5t52-153.5q0-169-136.5-265.5T585-26Q353-26 214.5 81.5T60 381z"/><glyph unicode="и" horiz-adv-x="1291" d="M99 0v1113h346V475h8l393 638h346V0H846v649h-8L445 0H99z"/><glyph unicode="й" horiz-adv-x="1291" d="M99 0v1113h346V475h8l393 638h346V0H846v649h-8L445 0H99zm179 1607h205q2-78 46.5-125t116.5-47 116 47 46 125h206q0-153-101-246t-267-93q-167 0-267.5 92.5T278 1607z"/><glyph unicode="к" horiz-adv-x="1218" d="M99 0v1113h354V685h8l324 428h397L770 603 1213 0H792L461 451h-8V0H99z"/><glyph unicode="л" horiz-adv-x="1263" d="M34 0v294q35-8 68-8 38 0 65 22t42 64 23 91 11 115l26 535h895V0H810v851H569l-17-299q-7-134-30.5-233t-70-176.5T328 25.5 143-14Q79-14 34 0z"/><glyph unicode="м" horiz-adv-x="1622" d="M99 0v1113h466l244-666h8l243 666h463V0h-328v724h-8L931 75H691L435 724h-8V0H99z"/><glyph unicode="н" horiz-adv-x="1280" d="M99 0v1113h354V698h374v415h354V0H827v436H453V0H99z"/><glyph unicode="о" horiz-adv-x="1262" d="M64 557q0 269 153 424.5T631 1137q262 0 414.5-154.5T1198 557q0-275-151-428T631-24 215 129.5 64 557zm359 0q0-153 55-236.5T631 237t153 83.5T839 557q0 149-56 234t-152 85q-97 0-152.5-84.5T423 557z"/><glyph unicode="п" horiz-adv-x="1270" d="M99 0v1113h1072V0H817v851H453V0H99z"/><glyph unicode="р" horiz-adv-x="1311" d="M99-360v1473h352V918h7q42 99 131 154.5t208 55.5q211 0 328.5-150T1243 557t-116.5-421.5T801-15q-121 0-210 54T460 190h-7v-550H99zm353 916q0-134 58-213t156-79 156 79.5T880 557q0 133-58.5 212.5T666 849t-155.5-80T452 556z"/><glyph unicode="с" horiz-adv-x="1193" d="M64 557q0 268 149.5 424T620 1137q219 0 358-114.5T1137 716H810q-17 70-65 110.5T626 867q-98 0-152.5-81.5T419 557q0-149 54.5-229.5T627 247q73 0 120.5 39T812 397h325q-18-197-155-309T622-24q-259 0-408.5 155T64 557z"/><glyph unicode="т" horiz-adv-x="1088" d="M48 851v262h992V851H721V0H367v851H48z"/><glyph unicode="у" horiz-adv-x="1214" d="M16 1113h391l205-845h7l205 845h374L840 2q-71-222-203.5-315.5T264-407q-119 0-129 2v268q5-1 62-1 176 0 194 98l5 31z"/><glyph unicode="ф" horiz-adv-x="1703" d="M64 557q0 260 166 413t448 160v330h347v-330q285-7 450-158.5T1640 556q0-259-166.5-412.5T1025-17v-343H678v343q-285 7-449.5 158.5T64 557zm357 0q0-147 70-229t191-86v629q-119-4-190-87t-71-227zm600-315q119 4 190 87.5t71 227.5q0 146-70 228t-191 86V242z"/><glyph unicode="х" horiz-adv-x="1183" d="M27 0l336 554-336 559h401l170-359h7l169 359h383L821 561 1156 0H772L585 369h-7L395 0H27z"/><glyph unicode="ц" horiz-adv-x="1355" d="M99 0v1113h354V262h362v851h354V262h163v-547h-321V0H99z"/><glyph unicode="ч" horiz-adv-x="1245" d="M81 749v364h354V812q0-89 46-139t122-50q129 0 189 99v391h354V0H792v473h-8q-46-63-125.5-101T472 334q-175 0-283 112T81 749z"/><glyph unicode="ш" horiz-adv-x="1792" d="M99 0v1113h354V262h266v851h354V262h266v851h354V0H99z"/><glyph unicode="щ" horiz-adv-x="1869" d="M99 0v1113h354V262h266v851h354V262h266v851h354V262h153v-547h-321V0H99z"/><glyph unicode="ъ" horiz-adv-x="1395" d="M48 851v262h636V806h220q200 0 318.5-109T1341 403t-118.5-294T904 0H330v851H48zm636-592h149q71 0 113.5 40T989 405t-42.5 106T833 551H684V259z"/><glyph unicode="ы" horiz-adv-x="1657" d="M99 0v1113h354V806h220q200 0 318.5-109.5T1110 403 991.5 109.5 673 0H99zm354 259h149q71 0 113.5 40T758 405t-42.5 106T602 551H453V259zM1204 0v1113h354V0h-354z"/><glyph unicode="ь" horiz-adv-x="1164" d="M99 0v1113h354V806h220q200 0 318.5-109.5T1110 403 991.5 109.5 673 0H99zm354 259h149q71 0 113.5 40T758 405t-42.5 106T602 551H453V259z"/><glyph unicode="э" horiz-adv-x="1193" d="M56 396h325q16-72 66.5-110.5T574 247q80 0 135 56t65 156H419v217h351q-13 89-66.5 140T574 867q-74 0-124-40.5T383 716H57q20 191 160.5 306T580 1137q254 0 402-156t148-424q0-271-148-426T578-24Q353-24 213.5 88T56 396z"/><glyph unicode="ю" horiz-adv-x="1780" d="M99 0v1113h354V698h146q38 209 184 325t369 116q261 0 413-154.5T1717 557q0-277-150.5-430T1152-26Q920-26 774 94.5T596 436H453V0H99zm847 557q0-149 54-231t150-82 150 82 54 231q0 146-54.5 229T1150 869t-149.5-83T946 557z"/><glyph unicode="я" horiz-adv-x="1200" d="M46 0l285 393q-114 37-178 121.5T89 719q0 180 124.5 287T545 1113h556V0H757v343h-90L436 0H46zm394 717q0-59 41-97t107-38h169v273H588q-67 0-107.5-38T440 717z"/><glyph unicode="ё" horiz-adv-x="1225" d="M64 551q0 269 149 427.5T616 1137q249 0 397.5-151.5T1162 580V479H409v-22q0-102 62-165.5T633 228q74 0 128 32.5t74 89.5h320q-26-171-168.5-272.5T628-24q-264 0-414 153T64 551zm187 847q0 59 42 100t105 41 105.5-41 42.5-100q0-58-42.5-99.5T398 1257q-62 0-104.5 41.5T251 1398zm162-716h414q-5 92-61.5 147.5T621 885q-85 0-143-57t-65-146zm271 716q0 59 42 100t105 41 105-41 42-100-42-100-105-41-105 41-42 100z"/><glyph unicode="ђ" horiz-adv-x="1289" d="M41 1244v164h64v107h347v-107h217v-164H452V904h7q44 112 133 170t216 58q185 0 286-111t101-309V-28q0-169-110-259.5T771-378q-57 0-102 5v253q18-2 42-2 69 0 99 25.5T840-14v650q0 98-47.5 152.5T655 843q-92 0-144-59.5T459 627V0H105v1244H41z"/><glyph unicode="ѓ" horiz-adv-x="983" d="M99 0v1113h802V851H453V0H99zm262 1269l227 316h312l-264-316H361z"/><glyph unicode="є" horiz-adv-x="1197" d="M67 557q0 268 150 424t407 156q219 0 358-115t159-306H814q-17 70-66 110.5T626 867q-76 0-130.5-51T428 676h349V459H424q10-101 65-156.5T627 247q74 0 123.5 38.5T816 396h325q-18-196-155-308T626-24q-259 0-409 155T67 557z"/><glyph unicode="ѕ" horiz-adv-x="1147" d="M53 349h344q8-63 57.5-98T584 216q74 0 116.5 25.5T743 312q0 35-28.5 56T620 403l-209 44q-163 34-247.5 118T79 776q0 166 133.5 263.5T573 1137q225 0 357-100t134-271H740q-2 60-48.5 95.5T569 897q-67 0-108-27t-41-71q0-67 128-94l230-48q167-35 241.5-107t74.5-198q0-171-142-273.5T577-24Q340-24 202 76.5T53 349z"/><glyph unicode="і" horiz-adv-x="557" d="M96 1380q0 74 53 124.5t129 50.5 129.5-50.5T461 1380q0-75-53-125t-130-50q-76 0-129 50t-53 125zM101 0v1113h355V0H101z"/><glyph unicode="ї" horiz-adv-x="552" d="M-57 1388q0 63 42 106t105 43 105-43 42-106q0-62-42-105t-105-43-105 43-42 105zM91 0v1113h355V0H91zm224 1388q0 63 42 106t105 43 105-43 42-106q0-62-42-105t-105-43q-62 0-104.5 43.5T315 1388z"/><glyph unicode="ј" horiz-adv-x="561" d="M-69-120q20-2 42-2 69 0 99 25t30 83v1127h355V-27q0-169-109.5-260T34-378q-55 0-103 5v253zM97 1380q0 74 53 124.5t129 50.5 129.5-50.5T462 1380q0-75-53-125t-130-50q-76 0-129 50t-53 125z"/><glyph unicode="љ" horiz-adv-x="1877" d="M34 0v294q35-8 68-8 38 0 65 22t42 64 23 91 11 115l26 535h896V806h220q200 0 318.5-109T1822 403t-118.5-294T1385 0H811v851H569l-17-299q-7-134-30.5-233t-70-176.5T328 25.5 143-14Q79-14 34 0zm1131 259h149q71 0 113.5 40t42.5 106-42.5 106-113.5 40h-149V259z"/><glyph unicode="њ" horiz-adv-x="1880" d="M99 0v1113h354V736h362v377h354V744h222q199 0 317-101t118-272q0-170-118-270.5T1391 0H815v481H453V0H99zm1070 255h172q62 0 100 34t38 85-38 85-100 34h-172V255z"/><glyph unicode="ћ" horiz-adv-x="1289" d="M41 1244v164h64v107h347v-107h217v-164H452V904h7q44 112 133 170t216 58q185 0 286-111t101-309V0H840v636q0 98-47.5 152.5T655 843q-92 0-144-59.5T459 627V0H105v1244H41z"/><glyph unicode="ќ" horiz-adv-x="1218" d="M99 0v1113h354V685h8l324 428h397L770 603 1213 0H792L461 451h-8V0H99zm407 1269l227 316h312l-264-316H506z"/><glyph unicode="ў" horiz-adv-x="1214" d="M16 1113h391l205-845h7l205 845h374L840 2q-71-222-203.5-315.5T264-407q-119 0-129 2v268q5-1 62-1 176 0 194 98l5 31zm231 494h205q2-78 46.5-125t116.5-47 116 47 46 125h206q0-153-101-246t-267-93q-167 0-267.5 92.5T247 1607z"/><glyph unicode="џ" horiz-adv-x="1278" d="M99 0v1113h354V262h372v851h354V0H799v-285H478V0H99z"/><glyph unicode="Ґ" horiz-adv-x="1150" d="M119 0v1443h625v285h345v-580H486V0H119z"/><glyph unicode="ґ" horiz-adv-x="964" d="M99 0v1113h481v285h321V851H453V0H99z"/><glyph horiz-adv-x="923"/><glyph horiz-adv-x="1847"/><glyph horiz-adv-x="923"/><glyph horiz-adv-x="1847"/><glyph horiz-adv-x="615"/><glyph horiz-adv-x="461"/><glyph horiz-adv-x="307"/><glyph horiz-adv-x="307"/><glyph horiz-adv-x="230"/><glyph horiz-adv-x="369"/><glyph horiz-adv-x="102"/><glyph unicode="‐" horiz-adv-x="918" d="M130 431v305h658V431H130z"/><glyph unicode="‑" horiz-adv-x="918" d="M130 431v305h658V431H130z"/><glyph unicode="‒" horiz-adv-x="918" d="M130 431v305h658V431H130z"/><glyph unicode="–" horiz-adv-x="1024" d="M0 427v315h1024V427H0z"/><glyph unicode="—" horiz-adv-x="2048" d="M0 427v315h2048V427H0z"/><glyph unicode="‘" horiz-adv-x="622" d="M104 851l131 592h283l-90-592H104z"/><glyph unicode="’" horiz-adv-x="622" d="M113 851l90 592h324L396 851H113z"/><glyph unicode="‚" horiz-adv-x="622" d="M96-450l90 634h324L393-450H96z"/><glyph unicode="“" horiz-adv-x="1134" d="M118 851l131 592h283l-90-592H118zm485 0l131 592h283l-90-592H603z"/><glyph unicode="”" horiz-adv-x="1107" d="M113 851l90 592h324L396 851H113zm485 0l90 592h324L881 851H598z"/><glyph unicode="„" horiz-adv-x="1134" d="M96-450l90 634h316L393-450H96zm520 0l89 634h317L912-450H616z"/><glyph unicode="•" horiz-adv-x="997" d="M144 627q0 146 104.5 250T499 981t250-104 104-250-104-250.5T499 272 248.5 376.5 144 627z"/><glyph unicode="…" horiz-adv-x="1745" d="M112 173q0 77 54 131.5T297 359q78 0 132-54.5T483 173 429 41.5 297-13q-77 0-131 54.5T112 173zm575 0q0 77 54.5 131.5T873 359t131.5-54.5T1059 173t-54.5-131.5T873-13 741.5 41.5 687 173zm574 0q0 77 54.5 131.5T1447 359t131.5-54.5T1633 173t-54.5-131.5T1447-13t-131.5 54.5T1261 173z"/><glyph horiz-adv-x="369"/><glyph unicode="‹" horiz-adv-x="855" d="M101 562v8l347 409h307L411 571v-8l344-410H441z"/><glyph unicode="›" horiz-adv-x="855" d="M101 153l344 410v8L101 979h306l348-409v-8L414 153H101z"/><glyph horiz-adv-x="461"/><glyph unicode="€" d="M99 484v170h141q-2 44-2 68 0 20 2 56H99v169h166q65 249 270.5 387t520.5 138q117 0 204-25v-293q-88 18-196 18-145 0-252-58T651 947h532V778H605q-2-36-2-56 0-39 4-68h576V484H657q55-103 158-158t242-55q149 0 209 15V-13q-87-16-210-16-310 0-515 134.5T269 484H99z"/><glyph unicode="™" horiz-adv-x="1867" d="M52 1232v211h710v-211H526V699H288v533H52zm781-533v744h312l152-357h12l152 357h313V699h-224v450h-14l-160-376h-145l-161 376h-13V699H833z"/><glyph unicode="◼" horiz-adv-x="1115" d="M0 0v1115h1115V0H0z"/></font>
</defs>
</svg>
