<svg xmlns="http://www.w3.org/2000/svg"><defs><font id="sf_ui_displaymedium" horiz-adv-x="1270"><font-face units-per-em="2048" ascent="1638" descent="-410"/><glyph horiz-adv-x="0"/><glyph horiz-adv-x="0"/><glyph horiz-adv-x="472"/><glyph horiz-adv-x="472"/><glyph horiz-adv-x="472"/><glyph unicode="!" horiz-adv-x="583" d="M160 114q0 55 38 92t93 37q56 0 94-37t38-92-38-92-94-37q-55 0-93 37t-38 92zm20 1329h223l-16-965H196z"/><glyph unicode="&quot;" horiz-adv-x="851" d="M125 915v528h193V915H125zm408 0v528h192V915H533z"/><glyph unicode="#" horiz-adv-x="1229" d="M32 403l32 170h215l63 314H139l34 168h203l80 388h171l-78-388h280l80 388h171l-79-388h226l-32-168H966l-64-314h216l-33-170H868L787 0H615l82 403H415L334 0H163l81 403H32zm410 161h293l67 330H509z"/><glyph unicode="$" d="M101 401h212q8-92 76-152t181-73v473l-89 23q-168 42-257.5 140.5T134 1056q0 171 116 278.5T570 1461v139h137v-139q195-16 313.5-125.5T1144 1060H935q-3 85-66 145.5T707 1279V832l93-21q187-47 278-143.5t91-251.5q0-182-121-292T707-4v-133H570V-5Q356 9 229 118.5T101 401zm247 670q0-81 57-134t165-76v418q-96-5-159-63.5T348 1071zm359-898q119 7 184.5 65.5T957 396q0 89-60.5 144.5T707 623V173z"/><glyph unicode="%" horiz-adv-x="1549" d="M48 1105q0 166 85 265t228 99q142 0 226.5-98.5T672 1105q0-166-84.5-265.5T361 740q-143 0-228 99.5T48 1105zM141 0l1055 1443h202L345 0H141zm90 1105q0-103 35-163.5t95-60.5q59 0 93.5 60t34.5 164q0 105-33.5 163.5T361 1327q-60 0-95-59.5T231 1105zm645-758q0 166 85 265t228 99q142 0 226.5-98.5T1500 347q0-166-84.5-265.5T1189-18q-143 0-228 99.5T876 347zm183 0q0-103 35-163.5t95-60.5q59 0 93.5 60t34.5 164q0 105-33.5 163.5T1189 569q-60 0-95-59.5T1059 347z"/><glyph unicode="&amp;" horiz-adv-x="1394" d="M77 382q0 125 68 221.5T354 776q9 5 23.5 12.5t23.5 12 12 5.5q-98 103-138.5 179T234 1140q0 140 108.5 232.5T614 1465q166 0 272-91t106-234q0-110-71.5-198T689 769l328-353q62 115 62 343v55h194v-61q0-301-120-480L1412 0h-263l-125 136Q936 59 816.5 17T568-25Q348-25 212.5 87.5T77 382zm212 16q0-112 83-181t217-69q90 0 175 33t137 88L522 683q-18-9-45-24-100-62-144-123t-44-138zm144 730q0-56 33-111t113-135q118 61 168 117.5t50 129.5q0 78-50.5 127T615 1305q-79 0-130.5-50T433 1128z"/><glyph unicode="'" horiz-adv-x="443" d="M125 915v528h193V915H125z"/><glyph unicode="(" horiz-adv-x="663" d="M160 599q0 158 22.5 290t66 233.5T335 1294t105 148h190q-40-47-80-119.5t-79.5-177T406 898t-25-297q0-124 16.5-240.5t39-201 59-173.5 64-141.5T627-277H430q-51 64-95 142T249.5 50.5 184 300t-24 299z"/><glyph unicode=")" horiz-adv-x="663" d="M33 1442h190q62-79 104.5-148t86.5-171.5 66.5-234T503 599q0-157-24-299T413 50.5 327-135t-95-142H35q51 87 85 158t75.5 183 63 248T280 601q0 154-24.5 296.5t-63.5 247-79 178T33 1442z"/><glyph unicode="*" horiz-adv-x="990" d="M123 1000l264 125-264 123 78 138 240-170-25 294h158l-25-294 241 170 77-138-263-123 263-125-77-136-240 166 24-290H416l24 291-239-167z"/><glyph unicode="+" d="M116 475v195h420v442h198V670h420V475H734V24H536v451H116z"/><glyph unicode="," horiz-adv-x="538" d="M93-262l94 488h217L259-262H93z"/><glyph unicode="-" horiz-adv-x="888" d="M116 475v195h656V475H116z"/><glyph unicode="." horiz-adv-x="538" d="M138 120q0 55 38 93t93 38 93-37.5 38-93.5q0-55-38-93t-93-38-93 38-38 93z"/><glyph unicode="/" horiz-adv-x="625" d="M0-316l431 1760h194L189-316H0z"/><glyph unicode="0" horiz-adv-x="1275" d="M87 723q0 344 147 545.5T638 1470t403-200.5T1187 724q0-347-145.5-549T638-27 233.5 174.5 87 723zm227 0q0-263 85-412.5T638 161t238.5 149.5T961 723q0 260-85.5 409.5T638 1282t-238-150-86-409z"/><glyph unicode="1" horiz-adv-x="935" d="M95 953v220l380 270h221V0H477v1221h-5z"/><glyph unicode="2" horiz-adv-x="1186" d="M100 1018v2q0 195 140.5 322.5T596 1470q206 0 343-116t137-288q0-121-67-229.5T775 557L414 194v-5h685V0H112v152l521 531q132 138 177 212.5t45 159.5q0 96-77 163t-189 67q-118 0-197.5-75.5T312 1021v-3H100z"/><glyph unicode="3" horiz-adv-x="1240" d="M87 393h215q11-105 93.5-169T612 160q132 0 217 67.5T914 401q0 117-82.5 184.5T606 653H426v176h174q116 0 189.5 66t73.5 168q0 103-68.5 163T600 1286q-117 0-190-62.5T327 1054H116q13 190 146.5 303T610 1470q206 0 339-105.5t133-271.5q0-134-81-225.5T785 752v-4q164-11 260.5-105t96.5-245q0-187-151-306T612-27Q381-27 239.5 88.5T87 393z"/><glyph unicode="4" horiz-adv-x="1271" d="M76 285v196q174 328 613 962h324V473h198V285h-198V0H798v285H76zm209 185h515v800h-4Q438 753 285 475v-5z"/><glyph unicode="5" horiz-adv-x="1228" d="M117 401h214q12-107 95.5-174T631 160q136 0 222 86t86 222-85.5 223.5T633 779q-94 0-170.5-40.5T344 627H139l76 816h859v-189H395l-40-443h5q48 69 132.5 107.5T682 957q208 0 342-136.5T1158 474q0-222-147.5-361.5T629-27Q413-27 270 92.5T117 401z"/><glyph unicode="6" horiz-adv-x="1259" d="M88 702q0 362 153 565.5T665 1471q191 0 327.5-105t169.5-278H938q-26 89-101 142t-174 53q-171 0-265-148.5T303 714h4q48 106 155 170t241 64q206 0 342.5-136T1182 471q0-217-149-358T655-28q-160 0-283.5 79T177 276Q88 449 88 702zm260-234q0-129 88-218t217-89q128 0 217 88t89 215q0 131-85.5 216T655 765q-132 0-219.5-84.5T348 468z"/><glyph unicode="7" horiz-adv-x="1139" d="M72 1254v189h982v-194L427 0H192l641 1249v5H72z"/><glyph unicode="8" horiz-adv-x="1266" d="M87 390q0 137 88.5 239T408 761v5q-120 33-191.5 120.5T145 1090q0 164 138 272t350 108q213 0 350-107.5t137-273.5q0-114-71-201T858 766v-5q144-30 232.5-132t88.5-239q0-184-153-300.5T633-27Q392-27 239.5 90T87 390zm231 16q0-110 88.5-181.5T633 153t226 71.5T947 406q0 112-88 183.5T633 661t-226.5-72T318 406zm49 660q0-99 74.5-162T633 841q116 0 191 63.5t75 161.5q0 99-74.5 162.5T633 1292t-191.5-63.5T367 1066z"/><glyph unicode="9" horiz-adv-x="1260" d="M77 972q0 217 149 358t378 141q160 0 284.5-78.5T1083 1168q89-173 89-426 0-362-152.5-565.5T596-27Q404-27 266.5 78.5T97 356h225q26-89 101.5-143T599 159q169 0 263 150t94 422h-4q-44-107-151-171.5T556 495q-206 0-342.5 136T77 972zm223 7q0-130 86.5-215.5T604 678q133 0 221 84.5T913 975t-88.5 216.5T607 1280t-218-87.5T300 979z"/><glyph unicode=":" horiz-adv-x="538" d="M138 120q0 55 38 93t93 38 93-37.5 38-93.5q0-55-38-93t-93-38-93 38-38 93zm0 729q0 55 38 93t93 38 93-38 38-93-38-93-93-38-93 38-38 93z"/><glyph unicode=";" horiz-adv-x="538" d="M59-262l93 488h219L225-262H59zm79 1111q0 55 38 93t93 38 93-38 38-93-38-93-93-38-93 38-38 93z"/><glyph unicode="&lt;" d="M182 486v172l906 519V953L399 582v-9l689-353V-4z"/><glyph unicode="=" d="M134 272v189h1002V272H134zm0 413v189h1002V685H134z"/><glyph unicode="&gt;" d="M182-3v224l689 353v9L182 954v224l906-519V487z"/><glyph unicode="?" horiz-adv-x="1035" d="M55 1056q7 177 125.5 288T509 1455q196 0 319-104.5T951 1084q0-217-210-343-96-57-131-105.5T575 509v-61H368l-1 80q-4 104 42.5 177T560 841q92 55 128 106t36 128q0 86-62 141t-164 55q-103 0-166-58t-70-157H55zm287-942q0 55 38 92t93 37q56 0 94-37t38-92-38-92-94-37q-55 0-93 37t-38 92z"/><glyph unicode="@" horiz-adv-x="1798" d="M92 606q0 246 105.5 436t295 294T925 1440q232 0 414.5-91.5t285.5-260T1728 702q0-241-102.5-384.5T1346 174q-89 0-153.5 45.5T1116 338h-10q-31-76-96-116.5T857 181q-156 0-252 117t-96 307q0 182 96 296.5T853 1016q80 0 146-38.5t94-102.5h11v121h169V428q0-51 27-81t80-30q85 0 138.5 101t53.5 279q0 272-182 438.5T914 1302q-192 0-344-89T333 963.5 248 600q0-216 91-373.5T587-10t361-79q210 0 313 43v-138q-134-44-320-44-185 0-341 56.5T331-10 155 253 92 606zm601-6q0-122 52.5-192.5T889 337q95 0 151 71t56 192-55.5 192T890 863q-92 0-144.5-69.5T693 600z"/><glyph unicode="A" horiz-adv-x="1336" d="M26 0l521 1443h242L1310 0h-237L941 390H391L259 0H26zm422 570h436l-215 633h-6z"/><glyph unicode="B" horiz-adv-x="1279" d="M133 0v1443h591q191 0 307-98.5t116-261.5q0-115-74-205.5T891 769v-8q147-17 237.5-113.5T1219 408q0-191-131-299.5T726 0H133zm224 183h324q151 0 230 61t79 178-81.5 176.5T668 658H357V183zm0 646h265q146 0 224 58t78 165q0 100-66.5 154T669 1260H357V829z"/><glyph unicode="C" horiz-adv-x="1424" d="M81 722q0 342 179 543.5T742 1467q246 0 415-138.5T1354 965h-222q-30 139-136.5 222.5T742 1271q-197 0-314.5-149.5T310 722q0-253 117-401.5T743 172q150 0 252.5 73T1132 449h223q-41-224-202.5-348.5T742-24q-304 0-482.5 201T81 722z"/><glyph unicode="D" horiz-adv-x="1413" d="M133 0v1443h517q323 0 503-189t180-530q0-342-180-533T650 0H133zm224 194h272q230 0 353 136.5T1105 722t-123 391.5T629 1250H357V194z"/><glyph unicode="E" horiz-adv-x="1146" d="M133 0v1443h916v-193H357V828h655V642H357V194h692V0H133z"/><glyph unicode="F" horiz-adv-x="1096" d="M133 0v1443h901v-193H357V793h620V604H357V0H133z"/><glyph unicode="G" horiz-adv-x="1462" d="M81 728q0 341 180.5 540T751 1467q241 0 408.5-131T1365 989h-230q-40 134-141 208t-242 74q-207 0-324.5-143.5T310 730q0-259 120-408.5T756 172q175 0 286 102.5T1155 541v25H782v181h594V600q0-293-164.5-458.5T754-24q-310 0-491.5 202.5T81 728z"/><glyph unicode="H" horiz-adv-x="1454" d="M133 0v1443h224V833h741v610h224V0h-224v639H357V0H133z"/><glyph unicode="I" horiz-adv-x="490" d="M133 0v1443h224V0H133z"/><glyph unicode="J" horiz-adv-x="1060" d="M38 370h220q2-90 61.5-146T473 168q110 0 168.5 64.5T700 421v1022h224V420q0-214-119-333T475-32Q280-32 159 79T38 370z"/><glyph unicode="K" horiz-adv-x="1293" d="M133 0v1443h224V756h9l603 687h266L663 804 1283 0h-278L505 650 357 481V0H133z"/><glyph unicode="L" horiz-adv-x="1088" d="M133 0v1443h224V194h672V0H133z"/><glyph unicode="M" horiz-adv-x="1726" d="M133 0v1443h259L859 304h8l466 1139h260V0h-205v1062h-7L946 11H780L344 1062h-7V0H133z"/><glyph unicode="N" horiz-adv-x="1443" d="M133 0v1443h203l748-1064h8v1064h218V0h-202L360 1063h-9V0H133z"/><glyph unicode="O" horiz-adv-x="1513" d="M81 721q0 344 182 545t494 201q311 0 493.5-201T1433 721t-182-544.5T757-24 263 176.5 81 721zm229 0q0-252 120.5-400T757 173q205 0 325.5 148T1203 721q0 253-120.5 401T757 1270q-206 0-326.5-148T310 721z"/><glyph unicode="P" horiz-adv-x="1237" d="M133 0v1443h565q210 0 343-132t133-342q0-211-135-343.5T691 493H357V0H133zm224 681h282q146 0 226 75.5T945 968q0 137-80 211.5T639 1254H357V681z"/><glyph unicode="Q" horiz-adv-x="1513" d="M81 721q0 344 182 545t494 201q311 0 493.5-201.5T1433 721q0-201-65-357t-186-250l188-267h-234L1013 19Q899-24 757-24q-312 0-494 200T81 721zm229 0q0-252 121-400.5T757 172q70 0 135 20L720 435h227l102-138q154 143 154 424 0 253-120.5 401.5T757 1271t-326-148.5T310 721z"/><glyph unicode="R" horiz-adv-x="1265" d="M133 0v1443h567q222 0 352-119.5t130-321.5q0-147-74.5-257.5T902 590L1226 0H967L673 555H357V0H133zm224 736h322q130 0 201.5 68T952 996q0 121-74.5 190T673 1255H357V736z"/><glyph unicode="S" horiz-adv-x="1244" d="M69 402h221q12-107 107-172t238-65q136 0 224.5 63T948 388q0 84-63 137.5T682 613l-187 45q-199 48-293.5 143T107 1047q0 186 146.5 303T632 1467q228 0 372-116.5t149-303.5H935q-10 107-92.5 169T629 1278q-130 0-211.5-60T336 1062q0-76 61-124.5T598 854l159-39q222-52 320.5-146.5T1176 415q0-202-150-320.5T619-24Q378-24 228.5 91.5T69 402z"/><glyph unicode="T" horiz-adv-x="1222" d="M49 1250v193h1123v-193H723V0H499v1250H49z"/><glyph unicode="U" horiz-adv-x="1434" d="M133 507v936h224V526q0-158 95.5-254.5T717 175t265 96.5 96 254.5v917h223V507q0-237-158-384T717-24 291 123 133 507z"/><glyph unicode="V" horiz-adv-x="1327" d="M26 1443h243L662 252h6l394 1191h239L786 0H541z"/><glyph unicode="W" horiz-adv-x="1923" d="M44 1443h233L544 313h8l305 1130h208l306-1130h8l267 1130h233L1489 0h-211L966 1088h-10L645 0H433z"/><glyph unicode="X" horiz-adv-x="1337" d="M44 0l479 723v7L49 1443h267l356-558h8l360 558h253L804 722v-6L1284 0h-262L663 550h-7L292 0H44z"/><glyph unicode="Y" horiz-adv-x="1293" d="M26 1443h250l368-637h7l368 637h248L758 591V0H534v591z"/><glyph unicode="Z" horiz-adv-x="1273" d="M95 0v153l790 1089v8H119v193h1041v-153L373 201v-7h806V0H95z"/><glyph unicode="[" horiz-adv-x="697" d="M184-240v1684h496v-164H393V-76h300v-164H184z"/><glyph unicode="\" horiz-adv-x="625" d="M0 1444h193L625-316H436z"/><glyph unicode="]" horiz-adv-x="697" d="M4-76h301v1356H17v164h495V-240H4v164z"/><glyph unicode="^" horiz-adv-x="926" d="M51 814l305 622h215l303-622H675l-204 442h-17L248 814H51z"/><glyph unicode="_" horiz-adv-x="838" d="M-51-107h941v-160H-51v160z"/><glyph unicode="`" horiz-adv-x="1007" d="M282 1558h225l215-303H544z"/><glyph unicode="a" horiz-adv-x="1092" d="M63 311q0 142 106.5 223T478 628l293 17v84q0 93-59.5 142.5T543 921q-88 0-148.5-42T320 766H117q5 144 127 239t305 95q199 0 317.5-97T985 745V0H778v181h-5Q728 93 635 41T430-11q-163 0-265 88.5T63 311zm219 4q0-70 56-111.5T488 162q121 0 202 69.5T771 408v85l-264-18q-225-14-225-160z"/><glyph unicode="b" horiz-adv-x="1201" d="M120 0v1508h217V906h4q50 92 139.5 141.5T685 1097q206 0 330-151t124-403-124.5-403T683-11q-118 0-208.5 50.5T334 184h-5V0H120zm216 543q0-166 80.5-268T628 173t210 100.5T917 543t-79 269.5T628 913 416.5 810.5 336 543z"/><glyph unicode="c" horiz-adv-x="1089" d="M62 543q0 253 139 405t370 152q101 0 187-30.5T902.5 986t94-122.5T1039 715H832q-16 90-83.5 146T573 917q-132 0-211.5-102T282 543q0-174 80-274t212-100q106 0 173.5 50.5T834 365h207q-19-171-146-274.5T573-13q-232 0-371.5 150T62 543z"/><glyph unicode="d" horiz-adv-x="1200" d="M62 544q0 249 126.5 401T518 1097q116 0 205.5-50.5T860 906h5v602h216V0H871v184h-4Q819 91 728.5 40T520-11q-205 0-331.5 152T62 544zm222-1q0-169 79.5-269.5T575 173q131 0 211 102t80 268-80.5 268T575 913q-131 0-211-101t-80-269z"/><glyph unicode="e" horiz-adv-x="1113" d="M62 539q0 255 137 408t365 153q224 0 355-144.5T1050 564v-76H281v-13q0-141 81-226.5T577 163q95 0 164 42t91 113h207q-23-146-153-238.5T573-13q-236 0-373.5 148.5T62 539zm220 103h551q-4 127-78 204t-192 77q-117 0-194.5-78T282 642z"/><glyph unicode="f" horiz-adv-x="667" d="M26 915v171h150v100q0 153 74 222.5t238 69.5q52 0 110-10v-165q-35 8-81 8-67 0-96.5-31T390 1179v-93h209V915H392V0H176v915H26z"/><glyph unicode="g" horiz-adv-x="1192" d="M62 547q0 251 124.5 400.5T520 1097q115 0 206-50.5T867 906h4v180h210V28q0-194-136.5-306.5T573-391q-196 0-324 84T105-84h219q18-63 88-100t170-37q129 0 206 63t77 169v179h-5q-47-88-138.5-137.5T515 3Q311 3 186.5 151.5T62 547zm222-1q0-166 78.5-264.5T572 183q132 0 212.5 99.5T865 546q0 165-80.5 266T572 913q-131 0-209.5-100T284 546z"/><glyph unicode="h" horiz-adv-x="1171" d="M120 0v1508h215V903h5q99 195 343 195 178 0 280-109.5T1065 694V0H848v652q0 123-61 191.5T608 912q-126 0-198.5-79T337 622V0H120z"/><glyph unicode="i" horiz-adv-x="455" d="M101 1366q0 53 37 89t90 36 90-36 37-89q0-52-37-88.5t-90-36.5-90 36.5-37 88.5zM119 0v1086h217V0H119z"/><glyph unicode="j" horiz-adv-x="455" d="M-65-199h31q84 0 118.5 35T119-46v1132h217V-47q0-166-87-245.5T-17-372q-5 0-25.5.5t-22.5.5v172zm166 1565q0 53 37 89t90 36 90-36 37-89q0-52-37-88.5t-90-36.5-90 36.5-37 88.5z"/><glyph unicode="k" horiz-adv-x="1062" d="M120 0v1508h217V617h1l447 469h255L586 618 1056 0H806L431 486l-94-92V0H120z"/><glyph unicode="l" horiz-adv-x="457" d="M120 0v1508h217V0H120z"/><glyph unicode="m" horiz-adv-x="1740" d="M111 0v1086h207V902h4q37 91 119.5 143.5T631 1098q113 0 192-55t112-156h5q43 98 133.5 154.5T1280 1098q161 0 257.5-97.5T1634 740V0h-216v688q0 107-55.5 165.5T1206 912q-100 0-163.5-67T979 674V0H766v706q0 94-56.5 150T558 912q-100 0-165-69.5T328 666V0H111z"/><glyph unicode="n" horiz-adv-x="1148" d="M111 0v1086h207V903h4q101 195 343 195 179 0 278-106.5t99-295.5V0H825v655q0 257-235 257-122 0-192-77.5T328 627V0H111z"/><glyph unicode="o" horiz-adv-x="1152" d="M62 543q0 255 139.5 406T576 1100t374-150.5T1089 543 950.5 137 576-13 201 137 62 543zm220 0q0-177 78-276.5T576 167t215.5 99T869 543t-77.5 277.5T576 920 360 820t-78-277z"/><glyph unicode="p" horiz-adv-x="1192" d="M111-360v1446h209V906h5q46 88 139.5 139.5T671 1097q208 0 333.5-151T1130 543q0-251-124.5-402.5T676-11q-117 0-206 49.5T332 178h-4v-538H111zm215 903q1-167 80.5-268.5T616 173q132 0 212 101t80 269-80 269-212 101q-129 0-209-102t-81-268z"/><glyph unicode="q" horiz-adv-x="1192" d="M62 544q0 251 125.5 402T520 1097q118 0 208.5-50T867 906h4v180h210V-360H865v538h-5Q813 89 722 39T515-11q-204 0-328.5 151.5T62 544zm222-1q0-169 78.5-269.5T572 173t212 102 81 268q0 165-81 267.5T572 913 362.5 812.5 284 543z"/><glyph unicode="r" horiz-adv-x="688" d="M111 0v1086h207V903h4q25 91 95.5 142.5T584 1097q46 0 76-7V887q-33 13-99 13-107 0-170-68.5T328 648V0H111z"/><glyph unicode="s" horiz-adv-x="1018" d="M64 314h214q13-78 74.5-119.5T517 153q101 0 160.5 39T737 297q0 52-35.5 82T580 431l-194 48Q93 551 93 777q0 143 117 232.5t304 89.5q178 0 294.5-90.5T929 776H725q-7 72-65 114t-151 42q-92 0-148.5-39.5T304 789q0-98 169-139l180-43q164-40 232-106t68-186q0-145-125-236.5T506-13q-189 0-309.5 89.5T64 314z"/><glyph unicode="t" horiz-adv-x="672" d="M26 915v171h150v244h216v-244h208V915H392V308q0-71 32.5-104.5T525 170q39 0 74 5V4Q555-7 477-7 314-7 245 60.5T176 286v629H26z"/><glyph unicode="u" horiz-adv-x="1148" d="M106 390v696h217V431q0-126 59.5-191T559 175q121 0 191 77.5T820 460v626h217V0H830v186h-4Q729-12 487-12 309-12 207.5 95.5T106 390z"/><glyph unicode="v" horiz-adv-x="1052" d="M19 1086h229l277-872h5l278 872h225L642 0H411z"/><glyph unicode="w" horiz-adv-x="1563" d="M26 1086h216l202-860h4l230 860h208l231-860h4l202 860h214L1238 0h-224L783 818h-5L549 0H326z"/><glyph unicode="x" horiz-adv-x="1032" d="M31 0l361 542-357 544h243l241-395h5l239 395h238L643 550 997 0H758L515 403h-5L266 0H31z"/><glyph unicode="y" horiz-adv-x="1066" d="M21 1086h233l279-888h5l279 888h228L638-50q-70-195-160.5-270T220-395q-54 0-88 6v176q20-5 69-5 78 0 123.5 36.5T398-59l17 56z"/><glyph unicode="z" horiz-adv-x="1015" d="M89 0v141l584 769v3H92v173h828V937L350 177v-4h576V0H89z"/><glyph unicode="{" horiz-adv-x="771" d="M138 504v219q98 0 136.5 46T313 934v232q0 183 97 269t304 86h76v-167h-45q-124 0-175.5-50T518 1135V859q0-215-189-233v-27q189-18 189-241V49q0-118 52-168t175-50h45v-166h-76q-206 0-303.5 88T313 28v266q0 118-38 164t-137 46z"/><glyph unicode="|" horiz-adv-x="503" d="M155-314v1757h192V-314H155z"/><glyph unicode="}" horiz-adv-x="771" d="M-19-169h45q123 0 175 50t52 168v309q0 223 190 241v27q-97 9-143.5 66.5T253 859v276q0 119-51.5 169T26 1354h-45v167h76q207 0 304-86t97-269V934q0-119 38.5-165T633 723V504q-99 0-137-46t-38-164V28q0-187-97-275T57-335h-76v166z"/><glyph unicode="~" horiz-adv-x="1225" d="M98 547q-4 172 79.5 272.5T408 920q125 0 252-127 50-51 83.5-72t67.5-21q124 0 132 179h184q4-173-79-273T817 506q-66 0-125 30t-125 96q-52 52-85.5 73T414 726q-123 0-132-179H98z"/><glyph unicode="¢" d="M114 717q0 221 118 370t317 181v177h198v-174q168-21 283.5-130.5T1156 883H947q-19 97-98 154.5T655 1095q-142 0-231.5-105T334 717q0-170 90-277t231-107q253 0 292 206h209q-16-153-128-257.5T747 157V-17H549v177q-199 33-317 183T114 717z"/><glyph unicode="£" d="M101 0v181q133 26 219.5 122.5T407 522q0 54-17 124H102v167h231q-61 160-61 256 0 193 140.5 301T804 1478q90 0 175-14.5t136-37.5v-187q-43 22-126 37.5T824 1292q-153 0-239-62.5T499 1056q0-91 55-243h450V646H608q14-65 14-113 0-113-56-201T425 193v-5h760V0H101z"/><glyph unicode="¥" d="M15 1443h249l368-635h7l367 635h249L810 697h212V550H748V395h274V248H748V0H524v248H249v147h275v155H249v147h213z"/><glyph unicode="¨" horiz-adv-x="1006" d="M181 1379q0 49 35.5 84t85.5 35 85-34.5 35-84.5q0-49-35-84t-85-35-85.5 35-35.5 84zm403 0q0 49 35.5 84t85.5 35 85-34.5 35-84.5q0-49-35-84t-85-35-85.5 35-35.5 84z"/><glyph unicode="©" horiz-adv-x="1703" d="M60 635q0 221 105 403t286.5 285.5T851 1427q220 0 401.5-103.5t286-285.5T1643 635t-104.5-403T1252-54 851-158q-218 0-399.5 104T165 232 60 635zm149 0q0-180 85.5-328T527 75 851-9q133 0 252 49.5t204.5 135 135.5 205 50 254.5-50 255-135.5 204.5-204.5 134-252 49.5q-177 0-324-83.5T294.5 963 209 635zm269 1q0 189 105.5 300.5T867 1048q150 0 245.5-79.5T1225 765h-156q-16 65-68.5 105.5T868 911q-104 0-165.5-73.5T641 636q0-129 61.5-203.5T868 358q79 0 132 36.5t69 104.5h156q-17-125-111.5-201.5T869 221q-180 0-285.5 111.5T478 636z"/><glyph unicode="«" horiz-adv-x="1322" d="M127 561v8l349 415h228L355 572v-13l349-412H475zm490 0v8l349 415h228L845 572v-13l349-412H965z"/><glyph unicode="­" horiz-adv-x="888" d="M116 475v195h656V475H116z"/><glyph unicode="®" horiz-adv-x="1166" d="M93 1064q0 203 142 343t348 140q136 0 248.5-63.5T1009 1309t65-245q0-202-142.5-342T583 582 235 722 93 1064zm120 0q0-156 107.5-264T583 692q156 0 263 108t107 264q0 158-106.5 265T583 1436q-156 0-263-107.5T213 1064zm183-219v455h228q72 0 117.5-39.5T787 1159q0-53-27.5-89.5T684 1024l127-179H681l-106 164h-74V845H396zm105 243h101q35 0 54 17t19 48q0 60-70 60H501v-125z"/><glyph unicode="´" horiz-adv-x="1007" d="M284 1255l215 303h225l-262-303H284z"/><glyph unicode="¸" horiz-adv-x="1007" d="M327-344q37-14 118-14 115 0 115 66 0 34-32.5 48.5T419-229h-55v83L427 9l122-9-51-132q97 0 148.5-39.5T698-286q0-80-62.5-129.5T472-466q-85-2-145 17v105z"/><glyph unicode="»" horiz-adv-x="1321" d="M127 147l349 412v13L127 984h228l349-415v-8L357 147H127zm490 0l349 412v13L617 984h228l349-415v-8L847 147H617z"/><glyph unicode="ˆ" horiz-adv-x="1008" d="M152 1251l273 307h158l273-307H671l-164 194h-6l-164-194H152z"/><glyph unicode="˚" horiz-adv-x="1042" d="M314 1400q0 85 61 145.5t146 60.5 146-60.5 61-145.5q0-84-61-144.5T521 1195t-146 60.5-61 144.5zm96 0q0-45 32.5-77.5T521 1290t78.5 32.5T632 1400q0 46-32.5 78.5T521 1511t-78.5-32.5T410 1400z"/><glyph unicode="˜" horiz-adv-x="1008" d="M184 1274q0 120 51.5 188.5T375 1531q47 0 88-23t65-50 51.5-50 51.5-23q63 0 63 132h130q0-118-52.5-188.5T635 1258q-45 0-84.5 23t-63 50-52 50-53.5 23q-33 0-50.5-34.5T313 1274H184z"/><glyph unicode="Ё" horiz-adv-x="1167" d="M143 0v1443h916v-193H367V828h655V642H367V194h692V0H143zm136 1695q0 49 35.5 84t85.5 35 85-34.5 35-84.5q0-49-35-84t-85-35-85.5 35-35.5 84zm403 0q0 49 35.5 84t85.5 35 85-34.5 35-84.5q0-49-35-84t-85-35-85.5 35-35.5 84z"/><glyph unicode="Ђ" horiz-adv-x="1701" d="M61 1250v193h1124v-193H735V770h8q132 137 359 137 222 0 354-130t132-340q0-214-126.5-342.5T1122-34q-94 0-136 17v189q38-15 124-15 118 0 186 72.5t68 200.5-79 204.5-211 76.5q-108 0-204-54.5T735 518V0H511v1250H61z"/><glyph unicode="Ѓ" horiz-adv-x="1090" d="M143 0v1443h882v-195H368V0H143zm365 1546l231 303h225l-280-303H508z"/><glyph unicode="Є" horiz-adv-x="1441" d="M91 722q0 343 179.5 545.5T752 1470q238 0 405.5-132.5T1361 989h-225q-35 128-139.5 205T752 1271q-176 0-292.5-119.5T326 830h613V642H323q10-216 128-343t302-127q144 0 244.5 67T1136 427h225q-47-215-206.5-334.5T752-27q-304 0-482.5 202T91 722z"/><glyph unicode="Ѕ" horiz-adv-x="1263" d="M78 402h221q12-107 107-172t238-65q136 0 224.5 63T957 388q0 84-63 137.5T691 613l-187 45q-199 48-293.5 143T116 1047q0 186 146.5 303T641 1467q228 0 372-116.5t149-303.5H944q-10 107-92.5 169T638 1278q-130 0-211.5-60T345 1062q0-76 61-124.5T607 854l159-39q222-52 320.5-146.5T1185 415q0-202-150-320.5T628-24Q387-24 237.5 91.5T78 402z"/><glyph unicode="І" horiz-adv-x="510" d="M143 0v1443h224V0H143z"/><glyph unicode="Ї" horiz-adv-x="510" d="M-67 1695q0 49 35.5 84t85.5 35 85-34.5 35-84.5q0-49-35-84t-85-35-85.5 35-35.5 84zM143 0v1443h224V0H143zm193 1695q0 49 35.5 84t85.5 35 85-34.5 35-84.5q0-49-35-84t-85-35-85.5 35-35.5 84z"/><glyph unicode="Ј" horiz-adv-x="1080" d="M48 370h220q2-90 61.5-146T483 168q110 0 168.5 64.5T710 421v1022h224V420q0-214-119-333T485-32Q290-32 169 79T48 370z"/><glyph unicode="Љ" horiz-adv-x="2179" d="M54 1v198q28-7 58-7 57 0 96.5 26.5t61.5 80T302.5 413 318 562l49 881h915V926h326q213 0 347.5-129T2090 463q0-206-132.5-334.5T1615 0h-557v1250H569l-42-699q-8-136-32-236t-69-175T309 27.5 137-10Q85-10 54 1zm1228 189h274q146 0 225.5 71t79.5 202q0 132-80 203t-226 71h-273V190z"/><glyph unicode="Њ" horiz-adv-x="2176" d="M143 0v1443h224V836h704v607h224V836h327q213 0 347.5-114T2104 426q0-189-132.5-307.5T1629 0h-558v645H367V0H143zm1152 190h280q144 0 222.5 61.5T1876 426q0 106-78.5 164T1575 648h-280V190z"/><glyph unicode="Ћ" horiz-adv-x="1717" d="M61 1250v193h1124v-193H735V771h8q63 65 154.5 100.5T1097 907q225 0 355.5-138T1583 400V0h-224v385q0 155-77.5 240.5T1063 711q-105 0-197-54.5T735 518V0H511v1250H61z"/><glyph unicode="Ќ" horiz-adv-x="1307" d="M143 0v1443h224V797h8l588 646h268L596 755 1290 0H997L375 677h-8V0H143zm404 1546l231 303h225l-280-303H547z"/><glyph unicode="Ў" horiz-adv-x="1262" d="M36 1443h238l365-887h8l353 887h234L792 413Q691 177 586.5 83T313-11q-68 0-96 13v193q36-9 83-9 76 0 129.5 32T524 321zm283 403h142q1-82 51.5-135t129.5-53 129.5 53 51.5 135h142q0-135-90-219t-233-84-233 84-90 219z"/><glyph unicode="Џ" horiz-adv-x="1455" d="M143 0v1443h224V193h722v1250h224V0H832v-285H623V0H143z"/><glyph unicode="А" horiz-adv-x="1356" d="M36 0l521 1443h242L1320 0h-237L951 390H401L269 0H36zm422 570h436l-215 633h-6z"/><glyph unicode="Б" horiz-adv-x="1275" d="M143 0v1443h884v-193H367V880h320q212 0 346-122t134-317q0-196-132.5-318.5T692 0H143zm224 190h268q145 0 224 65t79 186-79.5 186.5T634 693H367V190z"/><glyph unicode="В" horiz-adv-x="1299" d="M143 0v1443h591q191 0 307-98.5t116-261.5q0-115-74-205.5T901 769v-8q147-17 237.5-113.5T1229 408q0-191-131-299.5T736 0H143zm224 183h324q151 0 230 61t79 178-81.5 176.5T678 658H367V183zm0 646h265q146 0 224 58t78 165q0 100-66.5 154T679 1260H367V829z"/><glyph unicode="Г" horiz-adv-x="1090" d="M143 0v1443h882v-195H368V0H143z"/><glyph unicode="Д" horiz-adv-x="1509" d="M28 194h105q74 43 107.5 133T283 568l53 875h940V194h180v-479h-205V0H234v-285H28v479zm364 0h660v1056H535l-44-692q-8-134-29-216.5T392 202v-8z"/><glyph unicode="Е" horiz-adv-x="1167" d="M143 0v1443h916v-193H367V828h655V642H367V194h692V0H143z"/><glyph unicode="Ж" horiz-adv-x="2002" d="M19 0l645 751-596 692h269l543-646h8v646h221V797h8l545 646h264l-594-688L1983 0h-288l-578 677h-8V0H888v677h-8L298 0H19z"/><glyph unicode="З" horiz-adv-x="1222" d="M74 388h216q10-106 98.5-169.5T616 155q135 0 218.5 69T918 403q0 113-81.5 177T610 644H410v187h194q124 0 201.5 66t77.5 170-72.5 164-196.5 60q-126 0-203.5-61.5T323 1060H111q11 194 148 306t362 112q213 0 348-108.5t135-279.5q0-121-74.5-212.5T835 757v-8q145-18 229-114t84-243q0-182-152-304.5T617-35Q382-35 233 81T74 388z"/><glyph unicode="И" horiz-adv-x="1476" d="M143 0v1443h222V354h15l735 1089h218V0h-222v1086h-15L361 0H143z"/><glyph unicode="Й" horiz-adv-x="1476" d="M143 0v1443h222V354h15l735 1089h218V0h-222v1086h-15L361 0H143zm273 1846h142q1-82 51.5-135t129.5-53 129.5 53 51.5 135h142q0-135-90-219t-233-84-233 84-90 219z"/><glyph unicode="К" horiz-adv-x="1315" d="M143 0v1443h224V797h8l588 646h268L596 755 1290 0H997L375 677h-8V0H143z"/><glyph unicode="Л" horiz-adv-x="1419" d="M48 1v198q28-7 59-7 100 0 147.5 87.5T313 562l48 881h915V0h-224v1250H564l-43-699q-17-289-109-425T132-10Q83-10 48 1z"/><glyph unicode="М" horiz-adv-x="1746" d="M143 0v1443h259L869 304h8l466 1139h260V0h-205v1062h-7L956 11H790L354 1062h-7V0H143z"/><glyph unicode="Н" horiz-adv-x="1474" d="M143 0v1443h224V833h741v610h224V0h-224v639H367V0H143z"/><glyph unicode="О" horiz-adv-x="1533" d="M91 721q0 344 182 545t494 201q311 0 493.5-201T1443 721t-182-544.5T767-24 273 176.5 91 721zm229 0q0-252 120.5-400T767 173q205 0 325.5 148T1213 721q0 253-120.5 401T767 1270q-206 0-326.5-148T320 721z"/><glyph unicode="П" horiz-adv-x="1455" d="M143 0v1443h1170V0h-223v1248H368V0H143z"/><glyph unicode="Р" horiz-adv-x="1260" d="M143 0v1443h565q210 0 343-132t133-342q0-211-135-343.5T701 493H367V0H143zm224 681h282q146 0 226 75.5T955 968q0 137-80 211.5T649 1254H367V681z"/><glyph unicode="С" horiz-adv-x="1441" d="M91 722q0 343 179.5 545.5T752 1470q238 0 405.5-132.5T1361 989h-225q-35 128-139.5 205T752 1271q-197 0-314.5-149.5T320 722q0-253 117-401.5T753 172q144 0 244.5 67T1136 427h225q-47-215-206.5-334.5T752-27q-304 0-482.5 202T91 722z"/><glyph unicode="Т" horiz-adv-x="1247" d="M59 1250v193h1123v-193H733V0H509v1250H59z"/><glyph unicode="У" horiz-adv-x="1262" d="M36 1443h238l365-887h8l353 887h234L792 413Q691 177 586.5 83T313-11q-68 0-96 13v193q36-9 83-9 76 0 129.5 32T524 321z"/><glyph unicode="Ф" horiz-adv-x="1678" d="M81 726q0 267 175.5 427.5T729 1323v144h221v-144q297-8 472-168.5T1597 725q0-267-175-427.5T950 128V-24H729v152q-298 8-473 168.5T81 726zm226 0q0-182 113.5-291T730 319v813q-195-8-309-117T307 726zm642-407q195 8 308.5 117T1371 725q0 182-113.5 291T949 1132V319z"/><glyph unicode="Х" horiz-adv-x="1357" d="M54 0l479 723v7L59 1443h267l356-558h8l360 558h253L814 722v-6L1294 0h-262L673 550h-7L302 0H54z"/><glyph unicode="Ц" horiz-adv-x="1546" d="M143 0v1443h224V193h722v1250h224V193h180v-478h-205V0H143z"/><glyph unicode="Ч" horiz-adv-x="1397" d="M124 1054v389h224v-371q0-163 87-256.5T674 722q121 0 217.5 53.5T1031 920v523h224V0h-224v661h-8Q881 522 653 522q-238 0-383.5 146T124 1054z"/><glyph unicode="Ш" horiz-adv-x="1921" d="M143 0v1443h224V193h481v1250h224V193h482v1250h224V0H143z"/><glyph unicode="Щ" horiz-adv-x="2011" d="M143 0v1443h224V193h481v1250h224V193h482v1250h224V193h180v-478h-205V0H143z"/><glyph unicode="Ъ" horiz-adv-x="1530" d="M93 1250v193h556V926h326q213 0 347.5-129T1457 463q0-206-132.5-334.5T982 0H425v1250H93zM649 190h274q146 0 225.5 71t79.5 202q0 132-80 203t-225 71H649V190z"/><glyph unicode="Ы" horiz-adv-x="1723" d="M143 0v1443h224V926h326q213 0 348-129t135-334-132.5-334T700 0H143zm224 190h274q146 0 225.5 71T946 463q0 132-80 203t-225 71H367V190zM1356 0v1443h224V0h-224z"/><glyph unicode="Ь" horiz-adv-x="1248" d="M143 0v1443h224V926h326q213 0 348-129t135-334-132.5-334T700 0H143zm224 190h274q146 0 225.5 71T946 463q0 132-80 203t-225 71H367V190z"/><glyph unicode="Э" horiz-adv-x="1441" d="M80 427h225q38-121 140.5-188T693 172q183 0 299 127t126 343H502v188h613q-16 202-131 321.5T694 1271q-141 0-247.5-77T305 989H80q36 216 205.5 348.5T694 1470q301 0 478.5-202.5T1350 722q0-345-176.5-547T694-27Q451-27 288.5 93T80 427z"/><glyph unicode="Ю" horiz-adv-x="2026" d="M143 0v1443h224V833h248q29 301 204 473t455 172q306 0 484-203.5T1936 722t-177.5-553T1274-35q-289 0-464.5 180.5T613 639H367V0H143zm695 722q0-256 116.5-407.5T1273 163q200 0 316.5 151.5T1706 722q0 257-116 407.5T1273 1280q-200 0-317.5-151T838 722z"/><glyph unicode="Я" horiz-adv-x="1316" d="M55 0l402 572q-150 39-240 151.5T127 992q0 201 134.5 326T612 1443h562V0H951v543H690L312 0H55zm302 991q0-126 78.5-195T657 727h294v527H657q-143 0-221.5-69T357 991z"/><glyph unicode="а" horiz-adv-x="1112" d="M73 311q0 142 106.5 223T488 628l293 17v84q0 93-59.5 142.5T553 921q-88 0-148.5-42T330 766H127q5 144 127 239t305 95q199 0 317.5-97T995 745V0H788v181h-5Q738 93 645 41T440-11q-163 0-265 88.5T73 311zm219 4q0-70 56-111.5T498 162q121 0 202 69.5T781 408v85l-264-18q-225-14-225-160z"/><glyph unicode="б" horiz-adv-x="1191" d="M81 633q0 307 61 495.5T331 1408t338 99l94 3q196 9 284 54v-180q-23-20-100-37.5T775 1325l-93-3q-110-4-184-31t-122.5-85.5T300 1066t-43-205h8q52 96 148 147t224 51q221 0 351.5-143T1119 532q0-256-139-404.5T602-21q-255 0-388 166T81 633zm222-103q0-176 77.5-272T600 162q141 0 219 96t78 272q0 167-78 259t-219 92-219-92-78-259z"/><glyph unicode="в" horiz-adv-x="1075" d="M121 0v1086h489q157 0 247.5-74T948 810q0-85-53-152.5T764 575v-8q105-14 169-83t64-171q0-144-103-228.5T615 0H121zm213 160h253q95 0 145 41t50 120q0 164-222 164H334V160zm0 479h211q192 0 192 145 0 69-43.5 106T569 927H334V639z"/><glyph unicode="г" horiz-adv-x="906" d="M121 0v1086h717V914H336V0H121z"/><glyph unicode="д" horiz-adv-x="1260" d="M20 172h88q108 68 126 329l40 585h784V172h170v-457h-200V0H219v-285H20v457zm324 0h500v743H461l-31-423q-15-215-86-312v-8z"/><glyph unicode="е" horiz-adv-x="1133" d="M72 539q0 255 137 408t365 153q224 0 355-144.5T1060 564v-76H291v-13q0-141 81-226.5T587 163q95 0 164 42t91 113h207q-23-146-153-238.5T583-13q-236 0-373.5 148.5T72 539zm220 103h551q-4 127-78 204t-192 77q-117 0-194.5-78T292 642z"/><glyph unicode="ж" horiz-adv-x="1617" d="M21 0l465 572-454 514h259l401-467h8v467h213V619h8l401 467h257l-452-511L1596 0h-269L921 505h-8V0H700v505h-8L286 0H21z"/><glyph unicode="з" horiz-adv-x="1025" d="M60 301h214q17-71 77.5-109T507 154q107 0 166.5 45.5T733 320q0 161-226 161H348v161h156q195 0 195 147 0 66-48.5 105.5T509 934q-91 0-149-37t-69-102H83q17 144 131 228t294 84q192 0 297-81t105-218q0-83-48-147.5T734 577v-8q104-25 158.5-89T947 322q0-155-120-248.5T507-20q-190 0-311 86.5T60 301z"/><glyph unicode="и" horiz-adv-x="1186" d="M121 0v1086h213V318h8l509 768h213V0H851v771h-8L334 0H121z"/><glyph unicode="й" horiz-adv-x="1186" d="M121 0v1086h213V318h8l509 768h213V0H851v771h-8L334 0H121zm142 1563h146q1-86 52-142t134-56q84 0 135 56t52 142h146q0-142-92-229.5T595 1246q-148 0-240 87.5T263 1563z"/><glyph unicode="к" horiz-adv-x="1074" d="M121 0v1086h215V619h8l433 467h258L551 575 1053 0H782L344 505h-8V0H121z"/><glyph unicode="л" horiz-adv-x="1151" d="M31 1v191q27-8 57-8 76 0 111.5 81T245 501l39 585h745V0H815v914H474l-31-422q-7-96-20.5-170.5T384 183 322 77.5 230.5 13 105-10Q60-10 31 1z"/><glyph unicode="м" horiz-adv-x="1494" d="M121 0v1086h270l355-804h8l357 804h262V0h-209v757h-8L826 41H667L338 757h-8V0H121z"/><glyph unicode="н" horiz-adv-x="1171" d="M121 0v1086h215V648h499v438h215V0H835v476H336V0H121z"/><glyph unicode="о" horiz-adv-x="1172" d="M72 543q0 255 139.5 406T586 1100t374-150.5T1099 543 960.5 137 586-13 211 137 72 543zm220 0q0-177 78-276.5T586 167t215.5 99T879 543t-77.5 277.5T586 920 370 820t-78-277z"/><glyph unicode="п" horiz-adv-x="1161" d="M121 0v1086h919V0H825v914H336V0H121z"/><glyph unicode="р" horiz-adv-x="1213" d="M121-360v1446h209V906h5q46 88 139.5 139.5T681 1097q208 0 333.5-151T1140 543q0-251-124.5-402.5T686-11q-117 0-206 49.5T342 178h-4v-538H121zm215 903q1-167 80.5-268.5T626 173q132 0 212 101t80 269-80 269-212 101q-129 0-209-102t-81-268z"/><glyph unicode="с" horiz-adv-x="1105" d="M72 543q0 253 139 405t369 152q192 0 316.5-102.5T1044 740H835q-21 80-86.5 128.5T582 917q-132 0-211.5-102T291 543q0-174 80-274t212-100q99 0 164.5 45T837 343h209q-25-161-150.5-258.5T582-13q-232 0-371 149.5T72 543z"/><glyph unicode="т" horiz-adv-x="984" d="M42 914v172h900V914H599V0H385v914H42z"/><glyph unicode="у" horiz-adv-x="1086" d="M31 1086h233l279-888h5l279 888h228L648-50q-70-195-160.5-270T230-395q-54 0-88 6v176q20-5 69-5 78 0 123.5 36.5T408-59l17 56z"/><glyph unicode="ф" horiz-adv-x="1494" d="M72 543q0 251 155.5 401.5T642 1100v339h210v-339q260-5 414.5-155T1421 543q0-251-155-401.5T852-14v-346H642v346Q383-9 227.5 141.5T72 543zm218 0q0-174 95-275.5T643 161v764q-162-4-257.5-106T290 543zm561-382q162 4 257 106t95 276-95 275.5T851 925V161z"/><glyph unicode="х" horiz-adv-x="1052" d="M41 0l361 542-357 544h243l241-395h5l239 395h238L653 550 1007 0H768L525 403h-5L276 0H41z"/><glyph unicode="ц" horiz-adv-x="1234" d="M121 0v1086h215V172h481v914h215V172h170v-457h-199V0H121z"/><glyph unicode="ч" horiz-adv-x="1111" d="M96 765v321h214V780q0-103 54-163t149-60q55 0 102.5 14t79 36 50 40.5T775 685v401h215V0H775v487h-8Q654 372 472 372q-175 0-275.5 106.5T96 765z"/><glyph unicode="ш" horiz-adv-x="1628" d="M121 0v1086h215V172h371v914h215V172h370v914h215V0H121z"/><glyph unicode="щ" horiz-adv-x="1707" d="M121 0v1086h215V172h371v914h215V172h370v914h215V172h168v-457h-200V0H121z"/><glyph unicode="ъ" horiz-adv-x="1231" d="M42 914v172h503V749h207q188 0 300-101t112-273-111.5-273.5T752 0H330v914H42zm503-743h190q98 0 156.5 56T950 375q0 93-58.5 148.5T735 579H545V171z"/><glyph unicode="ы" horiz-adv-x="1418" d="M121 0v1086h215V749h207q189 0 301-101t112-273-112-273.5T543 0H121zm215 171h190q98 0 156.5 56T741 375q0 93-58.5 148.5T526 579H336V171zM1082 0v1086h215V0h-215z"/><glyph unicode="ь" horiz-adv-x="1022" d="M121 0v1086h215V749h207q189 0 301-101t112-273-112-273.5T543 0H121zm215 171h190q98 0 156.5 56T741 375q0 93-58.5 148.5T526 579H336V171z"/><glyph unicode="э" horiz-adv-x="1105" d="M59 343h209q24-85 89.5-129.5T523 169q121 0 200.5 83.5T812 481H351v161h456q-16 126-93.5 200.5T525 917q-101 0-167.5-48.5T270 740H61q23 155 148 257.5T527 1100q229 0 367.5-152T1033 543q0-257-138-406.5T525-13q-189 0-314.5 97T59 343z"/><glyph unicode="ю" horiz-adv-x="1600" d="M121 0v1086h215V648h187q27 216 158.5 337.5T1022 1107q235 0 370-150.5T1527 543q0-264-135-414T1022-21q-218 0-351.5 132T520 476H336V0H121zm616 543q0-182 74.5-281.5T1022 162t210 99.5 74 281.5-74 282-210 100-210.5-100T737 543z"/><glyph unicode="я" horiz-adv-x="1062" d="M49 0l297 412q-114 34-178.5 115T103 721q0 169 113 267t304 98h421V0H729v376H558L294 0H49zm268 723q0-80 58.5-130.5T530 542h199v373H530q-98 0-155.5-51.5T317 723z"/><glyph unicode="ё" horiz-adv-x="1133" d="M72 539q0 255 137 408t365 153q224 0 355-144.5T1060 564v-76H291v-13q0-141 81-226.5T587 163q95 0 164 42t91 113h207q-23-146-153-238.5T583-13q-236 0-373.5 148.5T72 539zm180 840q0 49 35.5 84t85.5 35 85-34.5 35-84.5q0-49-35-84t-85-35-85.5 35-35.5 84zm40-737h551q-4 127-78 204t-192 77q-117 0-194.5-78T292 642zm363 737q0 49 35.5 84t85.5 35 85-34.5 35-84.5q0-49-35-84t-85-35-85.5 35-35.5 84z"/><glyph unicode="ђ" horiz-adv-x="1191" d="M28 1262v133h102v113h215v-113h256v-133H345V903h5q99 195 343 195 178 0 280-109.5T1075 694V-49q0-165-87.5-244T721-372q-5 0-25 .5t-22 .5v172h29q86 0 120.5 35T858-46v698q0 123-61 191.5T618 912q-126 0-198.5-79T347 622V0H130v1262H28z"/><glyph unicode="ѓ" horiz-adv-x="917" d="M121 0v1086h717V914H336V0H121zm253 1255l215 303h225l-262-303H374z"/><glyph unicode="є" horiz-adv-x="1106" d="M73 543q0 253 139 405t369 152q192 0 316.5-102.5T1045 740H836q-21 80-87 128.5T582 917q-112 0-189.5-74T299 642h456V481H294q9-145 88.5-228.5T583 169q100 0 165.5 44.5T838 343h209q-26-162-151-259T583-13q-232 0-371 149.5T73 543z"/><glyph unicode="ѕ" horiz-adv-x="1037" d="M74 314h214q13-78 74.5-119.5T527 153q101 0 160.5 39T747 297q0 52-35.5 82T590 431l-194 48q-293 72-293 298 0 143 117 232.5t304 89.5q178 0 294.5-90.5T939 776H735q-7 72-65 114t-151 42q-92 0-148.5-39.5T314 789q0-98 169-139l180-43q164-40 232-106t68-186q0-145-125-236.5T516-13q-189 0-309.5 89.5T74 314z"/><glyph unicode="і" horiz-adv-x="475" d="M111 1366q0 53 37 89t90 36 90-36 37-89q0-52-37-88.5t-90-36.5-90 36.5-37 88.5zM129 0v1086h217V0H129z"/><glyph unicode="ї" horiz-adv-x="474" d="M-55 1370q0 50 35.5 85t85.5 35 85-35 35-85-35-85.5-85-35.5-85.5 35.5T-55 1370zM119 0v1086h217V0H119zm169 1370q0 50 35.5 85t85.5 35 85-35 35-85-35-85.5-85-35.5-85.5 35.5T288 1370z"/><glyph unicode="ј" horiz-adv-x="486" d="M-55-199h31q84 0 118.5 35T129-46v1132h217V-47q0-166-87-245.5T-7-372q-5 0-25.5.5t-22.5.5v172zm166 1565q0 53 37 89t90 36 90-36 37-89q0-52-37-88.5t-90-36.5-90 36.5-37 88.5z"/><glyph unicode="љ" horiz-adv-x="1719" d="M31 1v191q27-8 57-8 76 0 111.5 81T245 501l39 585h750V749h206q189 0 301-101t112-273-112-273.5T1240 0H819v914H474l-31-422q-7-96-20.5-170.5T384 183 322 77.5 230.5 13 105-10Q60-10 31 1zm1003 170h190q98 0 156.5 56t58.5 148q0 93-58.5 148.5T1224 579h-190V171z"/><glyph unicode="њ" horiz-adv-x="1718" d="M121 0v1086h215V679h481v407h215V681h215q185 0 295-92t110-248q0-157-110-249T1247 0H817v509H336V0H121zm911 170h204q92 0 147.5 47t55.5 124-55.5 124-147.5 47h-204V170z"/><glyph unicode="ћ" horiz-adv-x="1191" d="M28 1262v133h102v113h215v-113h256v-133H345V903h5q99 195 343 195 178 0 280-109.5T1075 694V0H858v652q0 123-61 191.5T618 912q-126 0-198.5-79T347 622V0H130v1262H28z"/><glyph unicode="ќ" horiz-adv-x="1074" d="M121 0v1086h215V619h8l433 467h258L551 575 1053 0H782L344 505h-8V0H121zm332 1255l215 303h225l-262-303H453z"/><glyph unicode="ў" horiz-adv-x="1086" d="M31 1086h233l279-888h5l279 888h228L648-50q-70-195-160.5-270T230-395q-54 0-88 6v176q20-5 69-5 78 0 123.5 36.5T408-59l17 56zm181 477h146q1-86 52-142t134-56q84 0 135 56t52 142h146q0-142-92-229.5T544 1246q-148 0-240 87.5T212 1563z"/><glyph unicode="џ" horiz-adv-x="1163" d="M121 0v1086h215V172h491v914h215V0H681v-285H482V0H121z"/><glyph unicode="Ґ" horiz-adv-x="1090" d="M143 0v1443h674v285h208v-480H368V0H143z"/><glyph unicode="ґ" horiz-adv-x="906" d="M121 0v1086h517v285h200V914H336V0H121z"/><glyph horiz-adv-x="924"/><glyph horiz-adv-x="1849"/><glyph horiz-adv-x="924"/><glyph horiz-adv-x="1849"/><glyph horiz-adv-x="616"/><glyph horiz-adv-x="462"/><glyph horiz-adv-x="308"/><glyph horiz-adv-x="308"/><glyph horiz-adv-x="231"/><glyph horiz-adv-x="369"/><glyph horiz-adv-x="102"/><glyph unicode="‐" horiz-adv-x="888" d="M116 475v195h656V475H116z"/><glyph unicode="‑" horiz-adv-x="888" d="M116 475v195h656V475H116z"/><glyph unicode="‒" horiz-adv-x="888" d="M116 475v195h656V475H116z"/><glyph unicode="–" horiz-adv-x="1024" d="M0 486v198h1024V486H0z"/><glyph unicode="—" horiz-adv-x="2048" d="M0 486v198h2048V486H0z"/><glyph unicode="‘" horiz-adv-x="558" d="M115 915l143 528h185L325 915H115z"/><glyph unicode="’" horiz-adv-x="558" d="M145 915l118 528h210L330 915H145z"/><glyph unicode="‚" horiz-adv-x="558" d="M88-402l118 539h210L276-402H88z"/><glyph unicode="“" horiz-adv-x="975" d="M118 915l143 528h185L328 915H118zm411 0l143 528h185L739 915H529z"/><glyph unicode="”" horiz-adv-x="969" d="M145 915l118 528h210L330 915H145zm411 0l118 528h210L741 915H556z"/><glyph unicode="„" horiz-adv-x="975" d="M88-402l118 539h208L276-402H88zm419 0l118 539h208L695-402H507z"/><glyph unicode="•" horiz-adv-x="990" d="M179 611q0 130 93 223t223 93q131 0 223.5-92.5T811 611t-92.5-223.5T495 295q-130 0-223 93t-93 223z"/><glyph unicode="…" horiz-adv-x="1568" d="M138 120q0 55 38 93t93 38 93-37.5 38-93.5q0-55-38-93t-93-38-93 38-38 93zm517 0q0 55 38 93t93 38q56 0 93.5-37.5T917 120q0-55-38-93t-93-38-93 38-38 93zm514 0q0 56 37.5 93.5T1300 251q55 0 92.5-37.5T1430 120q0-55-37.5-93T1300-11t-93 38-38 93z"/><glyph horiz-adv-x="369"/><glyph unicode="‹" horiz-adv-x="831" d="M127 561v8l349 415h228L355 572v-13l349-412H475z"/><glyph unicode="›" horiz-adv-x="831" d="M127 147l349 412v13L127 984h228l349-415v-8L357 147H127z"/><glyph horiz-adv-x="462"/><glyph unicode="€" d="M65 492v144h177q-3 42-3 85 0 51 4 88H65v144h201q63 248 255 381.5T980 1468q131 0 202-22v-194q-79 18-200 18-171 0-297-81.5T504 953h539V809H472q-5-47-5-88 0-40 5-85h571V492H503q55-155 180.5-237.5T981 172q145 0 203 17V-5q-68-20-204-20-268 0-460 134T266 492H65z"/><glyph unicode="™" horiz-adv-x="1582" d="M30 1305v138h608v-138H412V714H256v591H30zm684-591v729h192l201-477h6l201 477h192V714h-148v484h-6l-196-461h-92l-196 461h-6V714H714z"/><glyph unicode="◼" horiz-adv-x="1085" d="M0 0v1085h1085V0H0z"/></font>
</defs>
</svg>
