<svg width="251" height="212" xmlns="http://www.w3.org/2000/svg" xmlns:xlink="http://www.w3.org/1999/xlink"><svg width="16" height="29" fill="none" id="L1VzZXJzL2t1a2tvbWFoL3Byb2plY3RzL2JlbGFiL3NyYy9pbWcvc3ByaXRlLTEuc3Zn" x="162" y="155" xmlns="http://www.w3.org/2000/svg"><path d="M7.594 29V7.906h-.157l-6.914 4.57V5.544L7.593.816h8.282V29H7.594z" fill="url(#aapaint0_linear)"/><defs><linearGradient id="aapaint0_linear" x1="8" y1="-9" x2="8" y2="38" gradientUnits="userSpaceOnUse"><stop stop-color="#D4E5FF"/><stop offset="1" stop-color="#F4E1FF"/></linearGradient></defs></svg><svg width="24" height="29" fill="none" id="L1VzZXJzL2t1a2tvbWFoL3Byb2plY3RzL2JlbGFiL3NyYy9pbWcvc3ByaXRlLTIuc3Zn" x="89" y="155" xmlns="http://www.w3.org/2000/svg"><path d="M.21 9.664c0-2.89 1.05-5.215 3.145-6.973C5.452.921 8.238.035 11.715.035c3.385 0 6.068.788 8.047 2.363 1.992 1.563 2.988 3.633 2.988 6.211 0 .73-.124 1.472-.371 2.227-.248.742-.534 1.38-.86 1.914a11.382 11.382 0 0 1-1.23 1.68c-.495.586-.892 1.022-1.191 1.308-.3.287-.664.619-1.094.996l-6.621 5.86v.156h11.699V29H.699v-5.508l11.328-10.02c.964-.859 1.66-1.646 2.09-2.363.443-.729.664-1.477.664-2.246 0-.781-.3-1.425-.898-1.933-.6-.521-1.42-.782-2.461-.782-1.08 0-1.966.326-2.656.977-.677.651-1.016 1.49-1.016 2.52v.175H.21v-.156z" fill="url(#abpaint0_linear)"/><defs><linearGradient id="abpaint0_linear" x1="8" y1="-9" x2="8" y2="38" gradientUnits="userSpaceOnUse"><stop stop-color="#D4E5FF"/><stop offset="1" stop-color="#F4E1FF"/></linearGradient></defs></svg><svg width="25" height="30" fill="none" id="L1VzZXJzL2t1a2tvbWFoL3Byb2plY3RzL2JlbGFiL3NyYy9pbWcvc3ByaXRlLTMuc3Zn" x="192" y="98" xmlns="http://www.w3.org/2000/svg"><path d="M8.668 17.398v-5.546h3.438c1.08 0 1.933-.26 2.558-.782.638-.52.957-1.23.957-2.129 0-.885-.319-1.582-.957-2.09-.638-.52-1.523-.78-2.656-.78-1.107 0-2.005.312-2.695.937-.69.612-1.036 1.413-1.036 2.402H.817C.828 6.585 1.89 4.32 4 2.613 6.11.895 8.896.035 12.36.035c3.333 0 5.976.703 7.93 2.11 1.965 1.393 2.948 3.28 2.948 5.664 0 1.666-.547 3.086-1.64 4.257-1.094 1.16-2.507 1.895-4.239 2.207v.157c2.097.234 3.763.944 5 2.129 1.237 1.171 1.856 2.708 1.856 4.609 0 2.63-1.107 4.727-3.32 6.289-2.214 1.55-5.19 2.324-8.926 2.324-3.412 0-6.179-.853-8.301-2.558-2.11-1.72-3.236-4.017-3.379-6.895h7.89c.027.938.391 1.68 1.094 2.227.704.534 1.66.8 2.872.8 1.093 0 1.972-.273 2.636-.82.677-.56 1.016-1.295 1.016-2.207 0-.924-.332-1.64-.996-2.148-.651-.521-1.563-.782-2.735-.782H8.668z" fill="url(#acpaint0_linear)"/><defs><linearGradient id="acpaint0_linear" x1="8" y1="-9" x2="8" y2="38" gradientUnits="userSpaceOnUse"><stop stop-color="#D4E5FF"/><stop offset="1" stop-color="#F4E1FF"/></linearGradient></defs></svg><svg width="26" height="29" fill="none" id="L1VzZXJzL2t1a2tvbWFoL3Byb2plY3RzL2JlbGFiL3NyYy9pbWcvc3ByaXRlLTQuc3Zn" x="113" y="155" xmlns="http://www.w3.org/2000/svg"><path d="M14.156 29v-4.18H.29v-6.855C2.672 13.303 6.083 7.587 10.523.816H21.97v17.657h3.36v6.347h-3.36V29h-7.813zM7.164 18.57v.235h7.227V6.246h-.157c-1.64 2.526-2.962 4.649-3.964 6.367-1.003 1.706-2.038 3.692-3.106 5.957z" fill="url(#adpaint0_linear)"/><defs><linearGradient id="adpaint0_linear" x1="8" y1="-9" x2="8" y2="38" gradientUnits="userSpaceOnUse"><stop stop-color="#D4E5FF"/><stop offset="1" stop-color="#F4E1FF"/></linearGradient></defs></svg><svg width="24" height="30" fill="none" id="L1VzZXJzL2t1a2tvbWFoL3Byb2plY3RzL2JlbGFiL3NyYy9pbWcvc3ByaXRlLTUuc3Zn" x="65" y="155" xmlns="http://www.w3.org/2000/svg"><path d="M11.672 29.781c-3.346 0-6.094-.86-8.242-2.578C1.294 25.484.214 23.277.187 20.582H7.63c.17.872.631 1.582 1.387 2.129.768.547 1.673.82 2.714.82 1.172 0 2.116-.37 2.832-1.113.73-.742 1.094-1.7 1.094-2.871 0-1.237-.358-2.233-1.074-2.988-.716-.756-1.667-1.133-2.852-1.133-.794 0-1.53.182-2.207.547a4.235 4.235 0 0 0-1.64 1.504H.637L1.887.817h19.707v6.25H8.254l-.43 6.25h.156c.521-1.068 1.316-1.908 2.383-2.52 1.081-.612 2.364-.918 3.848-.918 2.67 0 4.87.892 6.601 2.676 1.732 1.77 2.598 4.036 2.598 6.797 0 3.138-1.074 5.664-3.223 7.578-2.148 1.9-4.987 2.851-8.515 2.851z" fill="url(#aepaint0_linear)"/><defs><linearGradient id="aepaint0_linear" x1="7" y1="-9" x2="7" y2="38" gradientUnits="userSpaceOnUse"><stop stop-color="#D4E5FF"/><stop offset="1" stop-color="#F4E1FF"/></linearGradient></defs></svg><svg width="25" height="30" fill="none" id="L1VzZXJzL2t1a2tvbWFoL3Byb2plY3RzL2JlbGFiL3NyYy9pbWcvc3ByaXRlLTYuc3Zn" x="40" y="155" xmlns="http://www.w3.org/2000/svg"><path d="M13.219 29.781c-1.953 0-3.737-.338-5.352-1.015a10.33 10.33 0 0 1-4.023-2.989C1.604 23.095.484 19.47.484 14.898c0-4.57 1.153-8.19 3.457-10.859C6.246 1.37 9.326.035 13.18.035c2.968 0 5.52.781 7.656 2.344 2.135 1.55 3.372 3.529 3.71 5.937H16.52c-.183-.612-.586-1.106-1.211-1.484-.625-.378-1.342-.566-2.149-.566-1.601 0-2.864.787-3.789 2.363-.911 1.562-1.263 3.633-1.055 6.21h.157c.52-1.418 1.393-2.538 2.617-3.359 1.224-.833 2.734-1.25 4.531-1.25 2.656 0 4.863.88 6.621 2.637 1.771 1.758 2.656 3.971 2.656 6.64 0 1.993-.494 3.77-1.484 5.333-.99 1.562-2.376 2.78-4.16 3.652-1.77.86-3.783 1.29-6.035 1.29zm-2.813-7.343c.742.716 1.654 1.074 2.735 1.074 1.08 0 1.992-.358 2.734-1.075.742-.729 1.113-1.627 1.113-2.695 0-1.055-.37-1.94-1.113-2.656-.742-.716-1.654-1.074-2.734-1.074-1.081 0-1.993.358-2.735 1.074-.729.716-1.094 1.602-1.094 2.656 0 1.068.365 1.966 1.094 2.695z" fill="url(#afpaint0_linear)"/><defs><linearGradient id="afpaint0_linear" x1="8" y1="-9" x2="8" y2="38" gradientUnits="userSpaceOnUse"><stop stop-color="#D4E5FF"/><stop offset="1" stop-color="#F4E1FF"/></linearGradient></defs></svg><svg width="23" height="29" fill="none" id="L1VzZXJzL2t1a2tvbWFoL3Byb2plY3RzL2JlbGFiL3NyYy9pbWcvc3ByaXRlLTcuc3Zn" x="139" y="155" xmlns="http://www.w3.org/2000/svg"><path d="M3.008 29L14.512 7.223v-.157H.996V.816h21.68v6.23L11.68 29H3.008z" fill="url(#agpaint0_linear)"/><defs><linearGradient id="agpaint0_linear" x1="9" y1="-9" x2="9" y2="38" gradientUnits="userSpaceOnUse"><stop stop-color="#D4E5FF"/><stop offset="1" stop-color="#F4E1FF"/></linearGradient></defs></svg><svg width="26" height="30" fill="none" id="L1VzZXJzL2t1a2tvbWFoL3Byb2plY3RzL2JlbGFiL3NyYy9pbWcvc3ByaXRlLTguc3Zn" x="100" y="115" xmlns="http://www.w3.org/2000/svg"><path d="M13.102 29.781c-3.842 0-6.908-.768-9.2-2.304C1.624 25.94.484 23.902.484 21.363c0-1.94.664-3.567 1.993-4.883 1.34-1.328 3.072-2.102 5.195-2.324V14c-1.771-.3-3.223-1.048-4.356-2.246-1.132-1.198-1.699-2.61-1.699-4.238 0-2.188 1.061-3.978 3.184-5.371C6.936.738 9.703.035 13.1.035c3.399 0 6.16.703 8.282 2.11 2.135 1.406 3.203 3.203 3.203 5.39 0 1.602-.566 3.008-1.7 4.219-1.132 1.198-2.57 1.947-4.316 2.246v.156c2.123.222 3.848.996 5.176 2.324 1.328 1.316 1.992 2.95 1.992 4.903 0 2.513-1.159 4.544-3.476 6.094-2.318 1.536-5.371 2.304-9.16 2.304zm-2.813-6.504c.73.664 1.667.996 2.813.996 1.145 0 2.076-.332 2.793-.996.729-.664 1.093-1.504 1.093-2.52 0-1.015-.364-1.855-1.093-2.519-.717-.664-1.648-.996-2.793-.996-1.146 0-2.084.332-2.813.996-.716.664-1.074 1.504-1.074 2.52 0 1.015.358 1.855 1.074 2.52zm.45-12.422c.624.6 1.412.899 2.363.899.95 0 1.738-.3 2.363-.899a2.909 2.909 0 0 0 .957-2.207c0-.885-.32-1.627-.957-2.226-.625-.6-1.413-.899-2.363-.899-.951 0-1.739.3-2.364.899-.625.599-.937 1.341-.937 2.226 0 .873.312 1.609.937 2.207z" fill="url(#ahpaint0_linear)"/><defs><linearGradient id="ahpaint0_linear" x1="8" y1="-9" x2="8" y2="38" gradientUnits="userSpaceOnUse"><stop stop-color="#D4E5FF"/><stop offset="1" stop-color="#F4E1FF"/></linearGradient></defs></svg><svg height="26" width="30" id="L1VzZXJzL2t1a2tvbWFoL3Byb2plY3RzL2JlbGFiL3NyYy9pbWcvc3ByaXRlLW1lbnUuc3Zn" x="192" y="128" xmlns="http://www.w3.org/2000/svg"><path d="M0 0h30v4H0zm0 22h30v4H0zm0-11h22v4H0z" fill="#8a22c3" fill-rule="evenodd"/></svg><svg width="40" height="40" fill="none" id="L1VzZXJzL2t1a2tvbWFoL3Byb2plY3RzL2JlbGFiL3NyYy9pbWcvc3ByaXRlLWFkdmFudGFnZXMtMS5zdmc=" x="74" y="75" xmlns="http://www.w3.org/2000/svg"><path d="M19.993 34.672c8.09 0 14.671-6.58 14.671-14.669s-6.58-14.669-14.67-14.669-14.672 6.58-14.672 14.67c0 8.088 6.582 14.668 14.671 14.668zm0-28.004c7.355 0 13.338 5.982 13.338 13.335 0 7.353-5.984 13.336-13.338 13.336-7.354 0-13.337-5.983-13.337-13.336 0-7.353 5.984-13.335 13.337-13.335z" fill="#69308A"/><path d="M19.993 10.001a.667.667 0 0 0 .667-.667V8.001a.667.667 0 1 0-1.334 0v1.333c0 .369.3.667.667.667zm0 20.004a.667.667 0 0 0-.667.667v1.333a.667.667 0 1 0 1.334 0v-1.333a.666.666 0 0 0-.667-.667zm10.67-9.335h1.334a.667.667 0 1 0 0-1.333h-1.334a.667.667 0 1 0 0 1.334zm-21.34-1.333H7.99a.667.667 0 1 0 0 1.334h1.333a.667.667 0 1 0 0-1.334zm3.335 8.001c.17 0 .341-.065.471-.195l5.518-5.517a2.64 2.64 0 0 0 1.346.378 2.67 2.67 0 0 0 2.668-2.667c0-1.24-.854-2.275-2-2.573v-3.428a.667.667 0 1 0-1.335 0v3.428a2.664 2.664 0 0 0-2 2.573c0 .493.143.95.378 1.346L12.186 26.2a.666.666 0 0 0 .472 1.138zm7.335-9.335a1.335 1.335 0 0 1 0 2.667 1.335 1.335 0 0 1-1.334-1.333c0-.736.599-1.334 1.334-1.334z" fill="#69308A"/><path d="M6.712 6.668h5.28a.667.667 0 1 0 0-1.334H8.456c3.283-2.59 7.319-4 11.538-4 10.296 0 18.672 8.375 18.672 18.67a.667.667 0 1 0 1.334 0C40 8.973 31.025 0 19.994 0a19.889 19.889 0 0 0-12.67 4.54V.668a.667.667 0 1 0-1.334 0v6h.595a.67.67 0 0 0 .127 0zM3.201 28.157a.667.667 0 1 0-1.204.586.667.667 0 0 0 1.204-.586zm2.034 3.275a.662.662 0 0 0-.933-.12.661.661 0 0 0-.12.933c.133.174.333.26.527.26a.688.688 0 0 0 .413-.14.667.667 0 0 0 .113-.933zm-1.1-1.587a.669.669 0 0 0-1.134.707c.127.2.347.314.567.314a.67.67 0 0 0 .567-1.02zm1.421 3.028a.664.664 0 0 0-.02.94c.126.14.306.206.48.206.166 0 .333-.06.46-.186a.658.658 0 0 0 .02-.94.664.664 0 0 0-.94-.02zm1.407 1.419a.666.666 0 1 0 1.013.867.666.666 0 1 0-1.013-.867zm-5.569-8.941a.679.679 0 0 0 .487-.813.67.67 0 0 0-.814-.48.66.66 0 0 0-.48.806.669.669 0 0 0 .807.487zM.94 23.397a.664.664 0 0 0 .568-.753.668.668 0 1 0-.567.753zm1.501 2.987a.663.663 0 1 0-1.247.453.657.657 0 0 0 .854.4.66.66 0 0 0 .393-.853zM.667 21.417h.027a.67.67 0 0 0 .64-.693.67.67 0 0 0-.693-.64.665.665 0 0 0-.64.693c.013.353.313.64.666.64zM8.51 35.566a.665.665 0 0 0 .166.926c.12.08.247.114.38.114.214 0 .42-.1.547-.287a.664.664 0 1 0-1.093-.753zm24.114-1.822v-.006a.667.667 0 0 0 .453 1.16.665.665 0 0 0 .487-1.114.659.659 0 0 0-.94-.04zm1.354-1.378a.665.665 0 0 0 .493 1.107.65.65 0 0 0 .5-.228.664.664 0 1 0-.993-.88zm1.2-1.515a.67.67 0 0 0 .54 1.06.67.67 0 0 0 .393-1.213.677.677 0 0 0-.933.153zm-4.041 4.121a.668.668 0 0 0-.134.933.64.64 0 0 0 .534.267.663.663 0 0 0 .534-1.06.664.664 0 0 0-.934-.14zm-1.607 1.074a.665.665 0 0 0-.227.914c.12.213.346.327.573.327a.663.663 0 0 0 .567-1.007.67.67 0 0 0-.914-.234zm7.602-7.067a.675.675 0 0 0-.914.253h.007a.659.659 0 0 0 .247.907c.1.06.213.086.326.086a.668.668 0 0 0 .334-1.247zm2.168-7.642a.668.668 0 0 0-.14 1.328h.072a.665.665 0 0 0 .067-1.328zm-.24 1.986a.659.659 0 0 0-.788.514.659.659 0 0 0 .654.801.656.656 0 0 0 .647-.527.66.66 0 0 0-.514-.788zm-.448 1.947a.659.659 0 0 0-.833.434.67.67 0 0 0 .426.84c.067.02.14.027.207.027a.667.667 0 0 0 .2-1.3zm-.64 1.894a.67.67 0 0 0-.88.34c-.154.34 0 .734.34.88.087.04.18.06.267.06a.67.67 0 0 0 .273-1.28zm-10.143 9.789a.658.658 0 0 0-.327.88.663.663 0 0 0 .607.386.662.662 0 0 0 .6-.947.655.655 0 0 0-.88-.32zm-11.317 1.393a.667.667 0 0 0-.78.534.67.67 0 0 0 .534.78.69.69 0 0 0 .12.007c.313 0 .593-.22.66-.54a.672.672 0 0 0-.534-.78zm1.914.259a.662.662 0 0 0-.72.607.667.667 0 0 0 .607.727v-.007c.02.007.04.007.053.007a.668.668 0 0 0 .06-1.334zm-3.788-.712a.67.67 0 0 0-.833.44c-.1.353.093.727.447.834a.67.67 0 0 0 .834-.447.658.658 0 0 0-.448-.827zm-1.82-.653a.662.662 0 0 0-.867.36.664.664 0 0 0 .353.874.715.715 0 0 0 .26.046.665.665 0 0 0 .254-1.28zm9.462 1.293a.664.664 0 0 0-.58.74c.04.34.327.587.66.587.027 0 .054 0 .08-.008v.008a.668.668 0 0 0 .58-.747.658.658 0 0 0-.74-.58zm3.756-.86a.665.665 0 1 0 .213 1.294.838.838 0 0 0 .22-.034c.347-.12.534-.5.414-.846a.662.662 0 0 0-.847-.414zm-1.855.527a.662.662 0 0 0-.5.8.662.662 0 0 0 .647.514c.053 0 .1 0 .153-.014.354-.08.58-.44.5-.8a.67.67 0 0 0-.8-.5zm-3.828.466A.666.666 0 1 0 20.366 40h.014a.665.665 0 0 0 .654-.681.668.668 0 0 0-.68-.653zm-9.276-2.26a.664.664 0 0 0-.633 1.167.6.6 0 0 0 .313.087.66.66 0 0 0 .587-.353.656.656 0 0 0-.267-.901z" fill="#69308A"/></svg><svg width="40" height="40" fill="none" id="L1VzZXJzL2t1a2tvbWFoL3Byb2plY3RzL2JlbGFiL3NyYy9pbWcvc3ByaXRlLWFkdmFudGFnZXMtMi5zdmc=" x="152" xmlns="http://www.w3.org/2000/svg"><path d="M22.667 19.919c0-1.24-.854-2.274-2-2.572v-6.761a.666.666 0 1 0-1.334 0v6.76a2.663 2.663 0 0 0-1.905 1.906h-4.761a.666.666 0 1 0 0 1.334h4.761a2.664 2.664 0 0 0 2.572 2 2.67 2.67 0 0 0 2.667-2.667zM20 21.252a1.335 1.335 0 0 1-1.333-1.333c0-.735.598-1.333 1.333-1.333s1.333.598 1.333 1.333-.598 1.333-1.333 1.333zm0-14.666a.667.667 0 0 0 .667-.667v-.666a.667.667 0 1 0-1.334 0v.666c0 .369.299.667.667.667zm-.667 27.334v.666a.666.666 0 1 0 1.334 0v-.666a.667.667 0 1 0-1.334 0zm15.334-13.334a.666.666 0 1 0 0-1.333H34a.667.667 0 1 0 0 1.333h.667zM5.333 19.253a.666.666 0 1 0 0 1.333H6a.666.666 0 1 0 0-1.333h-.667zM29.9 10.686c.17 0 .34-.066.47-.196l.472-.471a.666.666 0 1 0-.943-.943l-.471.472a.666.666 0 0 0 .471 1.138zM9.63 29.348l-.472.471a.666.666 0 1 0 .943.943l.471-.471a.666.666 0 1 0-.943-.943zm.942-19.8l-.471-.472a.666.666 0 1 0-.943.943l.471.471a.665.665 0 0 0 .943 0 .666.666 0 0 0 0-.942z" fill="#69308A"/><path d="M20 0C8.972 0 0 8.972 0 20s8.972 20 20 20c2.384 0 4.72-.417 6.943-1.24a.667.667 0 1 0-.463-1.25A18.634 18.634 0 0 1 20 38.668C9.707 38.667 1.333 30.293 1.333 20S9.707 1.333 20 1.333c10.293 0 18.667 8.374 18.667 18.667 0 2.227-.39 4.406-1.157 6.48a.667.667 0 0 0 1.25.463A19.927 19.927 0 0 0 40 20C40 8.972 31.028 0 20 0z" fill="#69308A"/><path d="M33.333 27.4v-.733a.666.666 0 1 0-1.333 0v.736a3.324 3.324 0 0 0-1.879 1.112 2.292 2.292 0 0 0-.529 1.736c.068.652.404 1.258.922 1.66L32 33.067v3.625a1.997 1.997 0 0 1-1.333-1.877.667.667 0 1 0-1.334 0A3.34 3.34 0 0 0 32 38.08v.586a.666.666 0 1 0 1.333 0v-.588a3.328 3.328 0 0 0 1.88-1.112 2.296 2.296 0 0 0 .528-1.737 2.43 2.43 0 0 0-.922-1.659l-1.486-1.156v-3.626a1.997 1.997 0 0 1 1.334 1.878.666.666 0 1 0 1.333 0 3.34 3.34 0 0 0-2.667-3.266zm.668 7.223c.232.181.384.454.414.746a.971.971 0 0 1-.22.736 1.992 1.992 0 0 1-.862.584v-2.586l.668.52zm-2.668-3.764a1.095 1.095 0 0 1-.415-.747.974.974 0 0 1 .22-.736c.233-.274.533-.466.862-.583v2.584l-.667-.518z" fill="#69308A"/></svg><svg width="40" height="32" fill="none" id="L1VzZXJzL2t1a2tvbWFoL3Byb2plY3RzL2JlbGFiL3NyYy9pbWcvc3ByaXRlLWFkdmFudGFnZXMtMy5zdmc=" x="152" y="40" xmlns="http://www.w3.org/2000/svg"><path d="M36.587 0H3.413A3.422 3.422 0 0 0 0 3.425v24.969a3.422 3.422 0 0 0 3.413 3.424h33.175A3.422 3.422 0 0 0 40 28.394V3.424A3.422 3.422 0 0 0 36.587 0zm2.117 28.394c0 1.17-.95 2.124-2.117 2.124H3.413a2.123 2.123 0 0 1-2.117-2.124V6.849h37.408v21.545zm0-22.845H1.296V3.425c0-1.172.95-2.125 2.117-2.125h33.175c1.167 0 2.116.953 2.116 2.125v2.124z" fill="#69308A"/><path d="M4.795 2.774h-.691a.65.65 0 0 0 0 1.3h.69a.65.65 0 0 0 0-1.3zm2.765 0h-.692a.65.65 0 0 0 0 1.3h.691a.65.65 0 0 0 0-1.3zm2.764 0h-.691a.65.65 0 0 0 0 1.3h.691a.65.65 0 0 0 0-1.3zm26.263 5.549H3.413a.65.65 0 0 0-.648.65v15.26c0 .358.29.65.648.65h33.175a.65.65 0 0 0 .648-.65V8.972a.65.65 0 0 0-.648-.65zm-.647 15.26H4.06V9.622h31.88v13.96zm.647 3.467H10.174a2.034 2.034 0 0 0-1.923-1.387c-.893 0-1.653.582-1.924 1.387H3.413a.65.65 0 0 0 0 1.3h2.914a2.034 2.034 0 0 0 1.923 1.388c.893 0 1.653-.582 1.924-1.387h26.413a.65.65 0 0 0 .648-.65c0-.36-.29-.65-.648-.65zM8.252 28.437a.737.737 0 0 1 0-1.474.737.737 0 0 1 0 1.474z" fill="#69308A"/><path d="M24.036 15.423l-5.468-2.993a1.323 1.323 0 0 0-1.325.024c-.41.244-.655.676-.655 1.155v5.987c0 .479.244.91.655 1.155a1.331 1.331 0 0 0 1.325.024l5.468-2.993a1.344 1.344 0 0 0 0-2.36zm-.62 1.217l-5.469 2.993c-.008.005-.021.012-.042 0-.022-.013-.022-.028-.022-.038V13.61c0-.01 0-.024.022-.037a.044.044 0 0 1 .022-.007c.009 0 .015.003.02.006l5.469 2.993c.009.005.022.012.022.038s-.013.033-.023.038z" fill="#69308A"/></svg><svg width="40" height="33" fill="none" id="L1VzZXJzL2t1a2tvbWFoL3Byb2plY3RzL2JlbGFiL3NyYy9pbWcvc3ByaXRlLWFkdmFudGFnZXMtNC5zdmc=" x="152" y="72" xmlns="http://www.w3.org/2000/svg"><path d="M39.184 6.62h-8.46l2.542-5.093a1.02 1.02 0 0 0-.46-1.366L32.7.107a1.016 1.016 0 0 0-1.37.458L28.308 6.62H.816A.816.816 0 0 0 0 7.434v24.428c0 .45.365.814.816.814h38.368c.45 0 .816-.365.816-.814V7.434a.815.815 0 0 0-.816-.814zM1.633 8.249h9.93v22.798h-9.93V8.25zm36.734 22.798H13.196V8.25h14.3l-4.343 8.702a.203.203 0 0 0-.021.092L23.134 19a.204.204 0 0 0 .327.163l1.567-1.178a.202.202 0 0 0 .06-.072l4.823-9.664h8.455v22.798z" fill="#69308A"/><path d="M6.598 16.943a2.711 2.711 0 0 0-2.711 2.705 2.711 2.711 0 0 0 5.422 0 2.711 2.711 0 0 0-2.711-2.705zm0 3.782a1.079 1.079 0 0 1-1.078-1.077 1.079 1.079 0 0 1 2.157 0 1.08 1.08 0 0 1-1.079 1.077zm-1.895-7.284h3.79a.815.815 0 1 0 0-1.629h-3.79a.815.815 0 1 0 0 1.63zm3.79 12.413h-3.79a.815.815 0 1 0 0 1.629h3.79a.815.815 0 1 0 0-1.63zM33.055 12.17H34.2v1.046a.816.816 0 0 0 1.633 0v-1.86a.816.816 0 0 0-.816-.815h-1.962a.816.816 0 1 0 0 1.629zm-14.547-1.629h-1.961a.816.816 0 0 0-.816.814v1.86a.816.816 0 0 0 1.632 0V12.17h1.145a.815.815 0 1 0 0-1.629zm16.509 14.726a.815.815 0 0 0-.817.814v1.045h-1.145a.816.816 0 1 0 0 1.63h1.962c.45 0 .816-.365.816-.815v-1.86a.815.815 0 0 0-.816-.814zm-16.509 1.859h-1.145v-1.045a.816.816 0 0 0-1.632 0v1.86c0 .45.365.814.816.814h1.961a.815.815 0 1 0 0-1.629z" fill="#69308A"/></svg><svg width="36" height="40" fill="none" id="L1VzZXJzL2t1a2tvbWFoL3Byb2plY3RzL2JlbGFiL3NyYy9pbWcvc3ByaXRlLWFkdmFudGFnZXMtNS5zdmc=" x="114" y="75" xmlns="http://www.w3.org/2000/svg"><path d="M33.864 5.333h-7.197V3.822A3.827 3.827 0 0 0 22.845 0H3.822A3.826 3.826 0 0 0 0 3.822v32.355A3.827 3.827 0 0 0 3.822 40h19.023a3.827 3.827 0 0 0 3.822-3.822V28h7.197A2.138 2.138 0 0 0 36 25.865V7.469a2.138 2.138 0 0 0-2.136-2.136zm-8.53 30.845a2.492 2.492 0 0 1-2.49 2.489H3.823a2.492 2.492 0 0 1-2.489-2.489V3.822a2.492 2.492 0 0 1 2.489-2.489h19.023a2.492 2.492 0 0 1 2.488 2.489v32.356zm1.333-9.511v-20H28v20h-1.333zm2.666 0v-20h1.334v20h-1.334zm5.334-.802c0 .442-.36.802-.803.802H32v-20h1.864c.443 0 .803.36.803.802v18.396z" fill="#69308A"/><path d="M33.333 10a.667.667 0 1 0 0-1.333.667.667 0 0 0 0 1.333zm0 3.333a.667.667 0 1 0 0-1.333.667.667 0 0 0 0 1.333zm-30 1.334h20V6h-20v8.667zm1.334-7.334H22v6H4.667v-6zm2.666-2.667a.666.666 0 1 0 0-1.333h-4a.666.666 0 1 0 0 1.333h4zM4 20.667h5.333V16H4v4.667zm1.333-3.334H8v2H5.333v-2zm5.334 3.334H16V16h-5.333v4.667zM12 17.333h2.667v2H12v-2zm5.333 3.334h5.334V16h-5.334v4.667zm1.334-3.334h2.666v2h-2.666v-2zM4 26h5.333v-4.667H4V26zm1.333-3.334H8v2H5.333v-2zM10.667 26H16v-4.667h-5.333V26zM12 22.666h2.667v2H12v-2zM17.333 26h5.334v-4.667h-5.334V26zm1.334-3.334h2.666v2h-2.666v-2zM4 31.334h5.333v-4.667H4v4.667zM5.333 28H8v2H5.333v-2zm5.334 3.334H16v-4.667h-5.333v4.667zM12 28h2.667v2H12v-2zm-8 9.334h5.333v-4.667H4v4.667zM5.333 34H8v2H5.333v-2zm5.334 3.334H16v-4.667h-5.333v4.667zM12 34h2.667v2H12v-2zm5.333 3.334h5.334V26.667h-5.334v10.667zM18.667 28h2.666v8h-2.666v-8z" fill="#69308A"/><path d="M11.588 8.051a.667.667 0 0 0-.727.145l-.666.666A.666.666 0 0 0 10.667 10v2A.666.666 0 1 0 12 12V8.667a.674.674 0 0 0-.412-.616zm6 0a.667.667 0 0 0-.727.145l-.666.666A.666.666 0 0 0 16.667 10v2A.666.666 0 1 0 18 12V8.667a.674.674 0 0 0-.412-.616zm2.667 0a.667.667 0 0 0-.727.145l-.666.666A.666.666 0 0 0 19.333 10v2a.666.666 0 1 0 1.334 0V8.667a.674.674 0 0 0-.412-.616zm-6.06 2.812l-.666.666a.666.666 0 1 0 .942.943l.667-.667a.666.666 0 1 0-.943-.942z" fill="#69308A"/></svg><svg width="22" height="40" fill="none" id="L1VzZXJzL2t1a2tvbWFoL3Byb2plY3RzL2JlbGFiL3NyYy9pbWcvc3ByaXRlLWFkdmFudGFnZXMtNi5zdmc=" y="115" xmlns="http://www.w3.org/2000/svg"><path d="M18.215 19.92C18.86 12.768 16.36 5.48 11.114.238a.875.875 0 0 0-1.202 0c-5.246 5.24-7.746 12.522-7.1 19.68A10.416 10.416 0 0 0 0 27.062a10.43 10.43 0 0 0 2.901 7.232c.458.482 1.626.261 1.438-.8-.098-.555-.22-1.094-.22-1.624 0-1.323.4-2.58 1.144-3.64a.87.87 0 0 0 .408.105h9.684c.147 0 .286-.04.408-.106a6.31 6.31 0 0 1 1.144 3.64c0 .531-.139 1.062-.22 1.625-.172 1.176 1.054 1.217 1.438.8a10.48 10.48 0 0 0 2.9-7.232c-.008-2.678-.996-5.2-2.81-7.143zM10.509 2.066a22.712 22.712 0 0 1 3.726 5.42H6.791a22.287 22.287 0 0 1 3.718-5.42zM2.5 30.72a8.708 8.708 0 0 1-.793-3.657 8.73 8.73 0 0 1 1.43-4.808c.008.065.899 3.47 1.242 4.343a7.925 7.925 0 0 0-1.88 4.122zm12.29-4.09H6.227C3.824 20.997 3.849 14.703 6.03 9.177h8.956c2.182 5.526 2.206 11.82-.196 17.452zm1.855-.032c.474-1.217 1.234-4.294 1.242-4.343a8.69 8.69 0 0 1 1.43 4.808 8.834 8.834 0 0 1-.793 3.657 8.055 8.055 0 0 0-1.88-4.122z" fill="#69308A"/><path d="M7.069 29.756a.849.849 0 0 0-.85.849v4.269a.849.849 0 1 0 1.7 0v-4.27a.849.849 0 0 0-.85-.848zm3.44 0a.853.853 0 0 0-.605.253l-.008.008a.852.852 0 0 0-.213.376 1.027 1.027 0 0 0-.032.228v8.53a.85.85 0 0 0 1.7 0v-8.546a.702.702 0 0 0-.033-.229.826.826 0 0 0-.81-.62zm3.44 0a.849.849 0 0 0-.85.849v4.269a.849.849 0 1 0 1.7 0v-4.27a.839.839 0 0 0-.85-.848z" fill="#69308A"/></svg><svg data-name="Слой 1" width="9" height="17" id="L1VzZXJzL2t1a2tvbWFoL3Byb2plY3RzL2JlbGFiL3NyYy9pbWcvc3ByaXRlLWFycm93LWxlZnQtYWN0aXZlLnN2Zw==" x="236" y="62" xmlns="http://www.w3.org/2000/svg"><path d="M.32 7.66L7.11.35a1.05 1.05 0 0 1 1.56 0A1.26 1.26 0 0 1 8.68 2l-6 6.47 6 6.47a1.26 1.26 0 0 1 0 1.68 1.05 1.05 0 0 1-1.56 0L.32 9.34a1.26 1.26 0 0 1 0-1.68z" fill="#8922c3"/></svg><svg width="9" height="17" fill="none" id="L1VzZXJzL2t1a2tvbWFoL3Byb2plY3RzL2JlbGFiL3NyYy9pbWcvc3ByaXRlLWFycm93LWxlZnQuc3Zn" x="227" y="62" xmlns="http://www.w3.org/2000/svg"><path d="M.324 9.342l6.789 7.31a1.05 1.05 0 0 0 1.563 0 1.256 1.256 0 0 0 0-1.684L2.67 8.5l6.007-6.468a1.256 1.256 0 0 0 0-1.683 1.05 1.05 0 0 0-1.564 0L.324 7.659a1.234 1.234 0 0 0-.324.84c0 .306.108.61.324.843z" fill="#DADADA"/></svg><svg width="9" height="17" fill="none" id="L1VzZXJzL2t1a2tvbWFoL3Byb2plY3RzL2JlbGFiL3NyYy9pbWcvc3ByaXRlLWFycm93LXJpZ2h0LWFjdGl2ZS5zdmc=" x="236" y="45" xmlns="http://www.w3.org/2000/svg"><path d="M8.676 9.342l-6.789 7.31a1.05 1.05 0 0 1-1.563 0 1.256 1.256 0 0 1 0-1.684L6.33 8.5.324 2.032a1.256 1.256 0 0 1 0-1.683 1.05 1.05 0 0 1 1.564 0l6.788 7.31c.216.232.324.536.324.84 0 .306-.108.61-.324.843z" fill="#8922C3"/></svg><svg data-name="Слой 1" width="9" height="17" id="L1VzZXJzL2t1a2tvbWFoL3Byb2plY3RzL2JlbGFiL3NyYy9pbWcvc3ByaXRlLWFycm93LXJpZ2h0LnN2Zw==" x="227" y="45" xmlns="http://www.w3.org/2000/svg"><path d="M8.68 7.66L1.89.35a1.05 1.05 0 0 0-1.57 0A1.26 1.26 0 0 0 .32 2l6 6.47-6 6.53a1.26 1.26 0 0 0 0 1.68 1.05 1.05 0 0 0 1.56 0l6.8-7.34a1.26 1.26 0 0 0 0-1.68z" fill="#dadada"/></svg><svg width="13" height="10" fill="none" id="L1VzZXJzL2t1a2tvbWFoL3Byb2plY3RzL2JlbGFiL3NyYy9pbWcvc3ByaXRlLWJ1bGxldC5zdmc=" x="227" y="79" xmlns="http://www.w3.org/2000/svg"><path d="M12.765 1.38L11.625.236a.775.775 0 0 0-.57-.236.775.775 0 0 0-.571.236l-5.502 5.53-2.466-2.483a.775.775 0 0 0-.57-.236.775.775 0 0 0-.57.236L.234 4.428A.78.78 0 0 0 0 5a.78.78 0 0 0 .235.572L3.27 8.62l1.14 1.144a.775.775 0 0 0 .57.236.776.776 0 0 0 .571-.236l1.14-1.144 6.073-6.095A.781.781 0 0 0 13 1.953a.781.781 0 0 0-.235-.573z" fill="#821BBB"/></svg><svg width="38" height="38" fill="none" id="L1VzZXJzL2t1a2tvbWFoL3Byb2plY3RzL2JlbGFiL3NyYy9pbWcvc3ByaXRlLWJvbnVzLTEuc3Zn" x="62" y="115" xmlns="http://www.w3.org/2000/svg"><circle cx="19" cy="19" r="19" fill="url(#aupaint0_linear)"/><path d="M13.125 19.524a2 2 0 0 0-2 2v4.408c0 .59.505 1.068 1.125 1.068h3.625a2 2 0 0 0 2-2v-3.476a2 2 0 0 0-2-2h-2.75zm13.75-4.272h-2.77c-.232 0-.33-.316-.162-.478a2.153 2.153 0 0 0 0-3.142c-.882-.844-2.419-.842-3.3 0-.483.46-1.754 2.317-1.608 3.58a.036.036 0 1 1-.07 0c.145-1.263-1.127-3.12-1.609-3.58-.882-.842-2.418-.842-3.3 0a2.156 2.156 0 0 0 0 3.142c.168.161.07.478-.162.478h-2.769c-.62 0-1.125.48-1.125 1.068v1.602c0 .294.252.534.563.534h6.244c.59 0 1.068-.478 1.068-1.068 0-.59.478-1.068 1.068-1.068h.114c.59 0 1.068.478 1.068 1.068 0 .59.478 1.068 1.068 1.068h6.244c.311 0 .563-.24.563-.534V16.32c0-.589-.504-1.068-1.125-1.068zm-9.017-.159c-.011.09-.09.148-.18.155a.913.913 0 0 1-.078.004c-.777 0-2.26-.767-2.746-1.23a1.123 1.123 0 0 1 0-1.637c.229-.218.531-.338.853-.338.32 0 .623.12.852.338.682.651 1.36 2.213 1.299 2.708zm2.54.159c-.135 0-.261-.1-.26-.235.006-.563.653-2.011 1.303-2.632.454-.435 1.247-.437 1.705 0 .472.45.472 1.185 0 1.636-.485.464-1.97 1.23-2.748 1.23zm1.727 4.272a2 2 0 0 0-2 2V25a2 2 0 0 0 2 2h3.625c.621 0 1.125-.478 1.125-1.068v-4.408a2 2 0 0 0-2-2h-2.75z" fill="#fff"/><defs><linearGradient id="aupaint0_linear" x1="19" y1="0" x2="19" y2="38" gradientUnits="userSpaceOnUse"><stop stop-color="#8B24C5"/><stop offset="1" stop-color="#66009F"/></linearGradient></defs></svg><svg width="21" height="21" fill="none" id="L1VzZXJzL2t1a2tvbWFoL3Byb2plY3RzL2JlbGFiL3NyYy9pbWcvc3ByaXRlLWJvbnVzLTIuc3Zn" x="227" y="24" xmlns="http://www.w3.org/2000/svg"><path d="M13.26 13.424v7.47H7.74v-7.47H.727V8.063H7.74V.627h5.52v7.436h7.013v5.36H13.26z" fill="url(#avpaint0_linear)"/><defs><linearGradient id="avpaint0_linear" x1="10.5" y1="-13" x2="10.5" y2="30" gradientUnits="userSpaceOnUse"><stop stop-color="#8B24C5"/><stop offset="1" stop-color="#66009F"/></linearGradient></defs></svg><svg width="27" height="27" id="L1VzZXJzL2t1a2tvbWFoL3Byb2plY3RzL2JlbGFiL3NyYy9pbWcvc3ByaXRlLWNsb3NlLnN2Zw==" x="178" y="155" xmlns="http://www.w3.org/2000/svg"><path d="M14.985 13.435l5.943 5.942-1.55 1.55-5.943-5.942-5.942 5.943-1.55-1.55 5.942-5.943-5.943-5.942 1.55-1.55 5.943 5.942 5.942-5.943 1.55 1.55-5.942 5.943z" fill-rule="evenodd" opacity=".2"/></svg><svg width="13" height="24" fill="none" id="L1VzZXJzL2t1a2tvbWFoL3Byb2plY3RzL2JlbGFiL3NyYy9pbWcvc3ByaXRlLWZiLnN2Zw==" x="205" y="155" xmlns="http://www.w3.org/2000/svg"><path d="M12.27.005L9.212 0C5.776 0 3.556 2.318 3.556 5.906V8.63H.48a.485.485 0 0 0-.481.49v3.945c0 .27.215.49.48.49h3.076v9.956c0 .27.215.489.48.489h4.012c.266 0 .481-.22.481-.49v-9.956h3.595a.485.485 0 0 0 .481-.489l.002-3.946a.495.495 0 0 0-.141-.346.477.477 0 0 0-.34-.143H8.529V6.32c0-1.11.26-1.673 1.68-1.673h2.06c.266 0 .481-.22.481-.49V.494a.485.485 0 0 0-.48-.489z" fill="#7F7186"/></svg><svg width="24" height="24" fill="none" id="L1VzZXJzL2t1a2tvbWFoL3Byb2plY3RzL2JlbGFiL3NyYy9pbWcvc3ByaXRlLWluc3Quc3Zn" x="227" xmlns="http://www.w3.org/2000/svg"><path d="M3.08 0h17.84C22.614 0 24 1.254 24 3.08v17.84c0 1.826-1.386 3.08-3.08 3.08H3.08C1.387 24 0 22.746 0 20.92V3.08C0 1.254 1.386 0 3.08 0zm14.403 2.667c-.594 0-1.08.485-1.08 1.08v2.586c0 .595.486 1.08 1.08 1.08h2.713c.594 0 1.08-.485 1.08-1.08V3.747c0-.595-.486-1.08-1.08-1.08h-2.713zm3.805 7.482h-2.113c.2.653.308 1.344.308 2.06 0 3.991-3.34 7.227-7.46 7.227s-7.46-3.236-7.46-7.228c0-.715.108-1.406.308-2.059H2.667v10.139c0 .524.43.954.954.954h16.713c.525 0 .954-.43.954-.954V10.149zm-9.265-2.871c-2.662 0-4.82 2.09-4.82 4.67s2.158 4.67 4.82 4.67c2.662 0 4.82-2.09 4.82-4.67s-2.158-4.67-4.82-4.67z" fill="#7F7186"/></svg><svg width="108" height="36" fill="none" id="L1VzZXJzL2t1a2tvbWFoL3Byb2plY3RzL2JlbGFiL3NyYy9pbWcvc3ByaXRlLWxvZ28uc3Zn" y="39" xmlns="http://www.w3.org/2000/svg"><path d="M39.66 19.235v4.03H23.344V0H39.66v4.015H28.179v5.61h11.293v3.741H28.179v5.869h11.48zm-27.669 4.03H0V0h11.815c2.167 0 3.885.521 5.155 1.564 1.27 1.043 1.905 2.456 1.905 4.24 0 1.269-.416 2.99-1.248 3.947-.822.957-1.534 1.496-2.772 1.679 1.516.203 2.577 1.016 2.88 1.307.923.886 1.538 2.344 1.538 3.87 0 2.053-.11 3.676-1.54 4.869-1.43 1.193-3.276 1.79-5.742 1.79zM4.835 3.933v5.539H9.16c1.291 0 3.198-.27 3.903-.806.704-.549 1.056-1.114 1.056-2.103 0-.935-.309-1.35-.928-1.856-.62-.516-2.404-.774-3.535-.774H4.835zm0 15.401h5.014c1.398 0 2.561-.29 3.287-.87.736-.592 1.105-1.136 1.105-2.243 0-1.086-.38-1.304-1.137-1.874-.747-.57-1.937-.854-3.367-.854H4.835v5.841z" fill="#8A23C3"/><path d="M79.821 23.266l-1.268-3.916h-9.852l-1.269 3.916H62.15L70.687 0h6.05l8.554 23.266h-5.47zM73.567 4.45L69.808 15.3h7.637L73.686 4.45h-.119zM58.694 19.235v4.03H43.757V0h4.835v19.235h10.102zm42.025 4.03H88.727V0h11.815c2.167 0 3.885.521 5.156 1.564 1.27 1.043 1.905 2.456 1.905 4.24 0 1.269-.417 2.99-1.249 3.947-.822.957-1.533 1.496-2.771 1.679 1.515.203 2.577 1.016 2.88 1.307.922.886 1.537 2.344 1.537 3.87 0 2.053-.109 3.676-1.539 4.869-1.43 1.193-3.277 1.79-5.742 1.79zM93.562 3.933v5.539h4.326c1.291 0 3.199-.27 3.903-.806.705-.549 1.057-1.114 1.057-2.103 0-.935-.31-1.35-.929-1.856-.619-.516-2.403-.774-3.535-.774h-4.822zm0 15.401h5.014c1.399 0 2.562-.29 3.287-.87.737-.592 1.105-1.136 1.105-2.243 0-1.086-.379-1.304-1.137-1.874-.747-.57-1.937-.854-3.367-.854h-4.902v5.841zM1.422 28.95c.68-.732 1.601-1.097 2.763-1.097 1.161 0 2.08.365 2.757 1.097.68.73 1.02 1.724 1.02 2.98 0 1.25-.34 2.242-1.02 2.973-.68.731-1.6 1.097-2.757 1.097-1.162 0-2.083-.366-2.763-1.097C.745 34.172.407 33.181.407 31.93c0-1.255.338-2.248 1.015-2.98zm4.294 1.01c-.38-.488-.89-.732-1.531-.732-.64 0-1.153.244-1.536.731-.38.488-.57 1.144-.57 1.97 0 .822.19 1.477.57 1.965.38.483.892.725 1.536.725.64 0 1.15-.242 1.53-.725.38-.488.57-1.143.57-1.965 0-.826-.19-1.482-.57-1.97zm6.541 5.904h-1.569v-7.875h1.368l3.659 5.13h.043v-5.13h1.569v7.875H15.97l-3.664-5.157h-.049v5.157zm13.11-1.365v1.365h-5.065v-7.875h1.64v6.51h3.424zm4.278 1.365h-1.64v-7.875h1.64v7.875zm4.538 0h-1.568v-7.875h1.367l3.659 5.13h.043v-5.13h1.569v7.875h-1.357l-3.664-5.157h-.049v5.157zm13.234-1.365v1.365h-5.189v-7.875h5.19v1.36h-3.55v1.898h3.349v1.266h-3.35V34.5h3.55zm6.614-.878h1.58c.035.32.204.58.504.78.304.197.675.295 1.113.295.434 0 .787-.093 1.058-.279.275-.189.413-.429.413-.72a.742.742 0 0 0-.304-.616c-.203-.157-.541-.288-1.015-.393l-1.02-.224c-1.437-.31-2.156-1.042-2.156-2.2 0-.72.28-1.302.836-1.745.561-.444 1.281-.666 2.16-.666.905 0 1.627.216 2.166.65.54.428.816 1.002.83 1.718h-1.535a1.005 1.005 0 0 0-.44-.78c-.264-.193-.602-.29-1.015-.29-.405 0-.733.09-.982.268a.83.83 0 0 0-.37.704c0 .24.1.435.299.584.203.149.53.276.983.382l.95.202c.785.167 1.356.429 1.715.786.358.352.537.829.537 1.43 0 .763-.286 1.37-.858 1.822-.571.447-1.344.671-2.317.671-.945 0-1.697-.211-2.258-.633-.558-.426-.849-1.008-.874-1.746zM66.478 36c-1.144 0-2.048-.362-2.714-1.086-.662-.727-.993-1.724-.993-2.99 0-1.263.332-2.256.998-2.98.666-.727 1.569-1.091 2.709-1.091a3.81 3.81 0 0 1 1.693.371c.51.247.92.597 1.227 1.048.308.45.481.966.521 1.544h-1.596c-.076-.484-.284-.871-.624-1.162-.336-.291-.743-.437-1.221-.437-.619 0-1.113.244-1.482.731-.37.488-.554 1.145-.554 1.97 0 .84.183 1.505.549 1.992.365.484.863.726 1.492.726.485 0 .892-.135 1.221-.404.33-.27.538-.637.625-1.102h1.596c-.091.876-.447 1.575-1.07 2.095-.622.517-1.415.775-2.377.775zm12.935-.136h-1.639v-3.318h-3.528v3.318h-1.64v-7.875h1.64v3.198h3.528v-3.198h1.64v7.875zm3.741-6.914c.68-.732 1.602-1.097 2.763-1.097 1.162 0 2.08.365 2.757 1.097.68.73 1.02 1.724 1.02 2.98 0 1.25-.34 2.242-1.02 2.973-.68.731-1.599 1.097-2.757 1.097-1.162 0-2.082-.366-2.763-1.097-.676-.731-1.015-1.722-1.015-2.974 0-1.255.339-2.248 1.015-2.98zm4.294 1.01c-.38-.488-.89-.732-1.531-.732-.64 0-1.153.244-1.536.731-.38.488-.57 1.144-.57 1.97 0 .822.19 1.477.57 1.965.38.483.892.725 1.536.725.64 0 1.15-.242 1.53-.725.38-.488.57-1.143.57-1.965 0-.826-.19-1.482-.57-1.97zm5.743-1.01c.68-.732 1.602-1.097 2.763-1.097 1.162 0 2.08.365 2.758 1.097.68.73 1.02 1.724 1.02 2.98 0 1.25-.34 2.242-1.02 2.973-.68.731-1.6 1.097-2.758 1.097-1.161 0-2.082-.366-2.763-1.097-.676-.731-1.015-1.722-1.015-2.974 0-1.255.339-2.248 1.015-2.98zm4.294 1.01c-.38-.488-.89-.732-1.53-.732-.641 0-1.153.244-1.537.731-.38.488-.57 1.144-.57 1.97 0 .822.19 1.477.57 1.965.38.483.892.725 1.536.725.64 0 1.15-.242 1.53-.725.38-.488.57-1.143.57-1.965 0-.826-.19-1.482-.57-1.97zm10.037 4.54v1.364h-5.064v-7.875h1.639v6.51h3.425z" fill="#000"/></svg><svg width="109" height="17" fill="none" id="L1VzZXJzL2t1a2tvbWFoL3Byb2plY3RzL2JlbGFiL3NyYy9pbWcvc3ByaXRlLXBhcnRuZXItMS5zdmc=" y="22" xmlns="http://www.w3.org/2000/svg"><path d="M41.558 6.067c0 .8-.88 1.433-1.991 1.433-1.088 0-1.991-.633-1.991-1.433s.88-1.434 1.99-1.434c1.09 0 1.992.667 1.992 1.434zM69.41 4.633c-1.088 0-1.991.634-1.991 1.434 0 .8.88 1.433 1.99 1.433 1.112 0 1.992-.633 1.992-1.433 0-.767-.88-1.434-1.991-1.434zm38.085 8.967H80.5c-3.172 0-5.719-2.3-5.719-5s2.547-5 5.719-5h26.995c.834 0 1.505-.733 1.505-1.6 0-.9-.671-1.6-1.505-1.6H80.5c-4.538 0-8.08 3.6-8.08 8.233 0 1.4.3 2.7 1.018 4.067L56.051.567C55.541.2 55.056 0 54.477 0c-.579 0-1.042.2-1.574.567L35.053 13V1.8c0-.9-.834-1.6-1.876-1.6-.695 0-1.111.267-1.111.267l-17.41 10.6 1.504.9c.463.266.88.4 1.39.4.509 0 .925-.134 1.388-.4l13.915-8.5v12.4c0 .6.51 1.066 1.111 1.066h.093c.277 0 .532-.1.74-.233L54.5 3l9.053 6.333h-16.81l-4.468 3.1H68.02l6.181 4.3c.209.134.463.234.741.234.672 0 1.204-.467 1.204-1.067 0-.067 0-.233-.116-.433 1.181.766 2.686 1.366 4.469 1.333h26.995c.834 0 1.505-.733 1.505-1.6-.023-.9-.695-1.6-1.505-1.6zM16.878 8.933L2.987.467S2.547.2 1.875.2C.833.167 0 .9 0 1.8v14.133C0 16.533.51 17 1.111 17c.625 0 1.112-.467 1.112-1.067V3.5l11.76 7.167 2.895-1.734z" fill="#000"/></svg><svg width="152" height="22" fill="none" id="L1VzZXJzL2t1a2tvbWFoL3Byb2plY3RzL2JlbGFiL3NyYy9pbWcvc3ByaXRlLXBhcnRuZXItMi5zdmc=" xmlns="http://www.w3.org/2000/svg"><path d="M1 21V1h3.298v20H1zm13.497 0V1h2.066l14.724 13.374c.336.304.692.673 1.073 1.098.376.433.763.905 1.163 1.421a23.916 23.916 0 0 1-.222-2.015c-.051-.697-.076-1.666-.076-2.906V1h3.018v20h-1.842L19.283 7.09a9.672 9.672 0 0 1-.33-.298c-.75-.684-1.303-1.336-1.66-1.95.077.607.128 1.253.166 1.937.038.691.057 1.498.057 2.435v11.785h-3.019V21zM64.873 3.725h-15.41v14.492h15.41V12.36h-7.97V9.802h11.249v6.471c0 1.827-.324 3.074-.966 3.733-.648.664-1.868.994-3.654.994H50.803c-1.804 0-3.018-.336-3.66-1.001-.642-.672-.96-1.912-.96-3.726V5.733c0-1.814.318-3.06.96-3.732C47.785 1.336 49 1 50.803 1h12.729c1.767 0 2.974.323 3.635.975.655.652.985 1.828.985 3.532v.49l-3.279.666V3.725h0zM77.588 21V1h3.298v17.217h14.896V21H77.588zm27.244-2.783h16.287V3.725h-16.287v14.492zm-3.279-12.484c0-1.82.318-3.06.959-3.732.642-.665 1.863-1.001 3.661-1.001h13.605c1.774 0 2.98.33 3.623.995.642.658.959 1.905.959 3.738v10.534c0 1.846-.317 3.093-.959 3.751-.643.652-1.85.982-3.623.982h-13.605c-1.798 0-3.019-.336-3.661-1.001-.641-.672-.959-1.912-.959-3.732V5.732zm40.417-2.008V21h-3.279V3.725h-8.993V1H151v2.725h-9.03z" fill="#1D1D1B" stroke="#1D1D1B" stroke-width=".216" stroke-miterlimit="22.926"/></svg><svg width="26" height="18" fill="none" id="L1VzZXJzL2t1a2tvbWFoL3Byb2plY3RzL2JlbGFiL3NyYy9pbWcvc3ByaXRlLXByb2dyYW0tMS5zdmc=" y="194" xmlns="http://www.w3.org/2000/svg"><path d="M24.987 1.545C24.048.448 22.315 0 19.007 0H6.993C3.609 0 1.847.477.912 1.645 0 2.785 0 4.463 0 6.786v4.428C0 15.714 1.082 18 6.994 18h12.012c2.87 0 4.46-.395 5.489-1.364C25.55 15.643 26 14.022 26 11.214V6.786c0-2.45-.07-4.138-1.013-5.24zm-8.295 8.066l-5.455 2.805a.85.85 0 0 1-.823-.026.822.822 0 0 1-.404-.705V6.094c0-.288.153-.556.403-.705a.85.85 0 0 1 .822-.028l5.455 2.787a.823.823 0 0 1 .452.731c0 .308-.173.59-.45.732z" fill="#69308A"/></svg><svg width="30" height="25" fill="none" id="L1VzZXJzL2t1a2tvbWFoL3Byb2plY3RzL2JlbGFiL3NyYy9pbWcvc3ByaXRlLXByb2dyYW0tMi5zdmc=" x="126" y="115" xmlns="http://www.w3.org/2000/svg"><path d="M29.407 1.187C29.27 1.138 26.012 0 22.053 0c-2.571 0-4.846.48-6.163.83v18.205c1.313-.35 3.58-.829 6.163-.829 3.985 0 7.219 1.139 7.355 1.187l.035.014.556.225V2.026a.89.89 0 0 0-.593-.84zM25.81 15.499a.892.892 0 0 1-1.14.536 7.763 7.763 0 0 0-4.967-.083l-.293.093a.89.89 0 1 1-.545-1.695l.292-.094a9.56 9.56 0 0 1 6.115.104.89.89 0 0 1 .538 1.139zm0-4.865a.892.892 0 0 1-1.14.537 7.763 7.763 0 0 0-4.967-.084l-.293.094a.89.89 0 1 1-.545-1.695l.292-.094a9.556 9.556 0 0 1 6.115.104.89.89 0 0 1 .538 1.138zm0-4.865a.892.892 0 0 1-1.14.537 7.763 7.763 0 0 0-4.967-.084l-.293.094a.89.89 0 1 1-.545-1.695l.293-.093a9.564 9.564 0 0 1 6.114.103.89.89 0 0 1 .538 1.138zM7.946 0C3.988 0 .73 1.138.593 1.187A.89.89 0 0 0 0 2.026v17.61l.556-.226.035-.013c.136-.048 3.37-1.187 7.355-1.187 2.583 0 4.85.478 6.163.828V.831C12.792.48 10.517 0 7.946 0zM11.7 15.499a.89.89 0 0 1-1.14.536 7.765 7.765 0 0 0-4.967-.083l-.293.093a.89.89 0 0 1-.545-1.694l.293-.095a9.56 9.56 0 0 1 6.115.104.89.89 0 0 1 .537 1.139zm0-4.865a.89.89 0 0 1-1.14.537 7.764 7.764 0 0 0-4.967-.084l-.293.094a.89.89 0 1 1-.545-1.695l.293-.094a9.556 9.556 0 0 1 6.115.104.89.89 0 0 1 .537 1.138zm0-4.865a.891.891 0 0 1-1.14.537 7.765 7.765 0 0 0-4.967-.084l-.292.094a.89.89 0 1 1-.546-1.695l.293-.093a9.564 9.564 0 0 1 6.115.103.89.89 0 0 1 .537 1.138zm.13 16.722a.896.896 0 0 1-.06-.324v-1.822a21.891 21.891 0 0 0-3.824-.355c-2.886 0-5.381.66-6.338.95v3.17a.89.89 0 0 0 1.059.873l9.403-1.797.006.01a3.224 3.224 0 0 1-.245-.705zm3.52-1.439a.89.89 0 0 1-.65.02c-.011-.003-.435-.151-1.148-.337v1.27a1.426 1.426 0 0 0 1.416 1.214c.697 0 1.3-.511 1.413-1.193v-1.278c-.542.143-.905.261-1.031.304zm6.704-1.066c-1.442 0-2.787.165-3.89.366v1.773c0 .08-.011.159-.032.235a3.19 3.19 0 0 1-.25.785c10.439 1.946 9.846 1.854 10.003 1.854a.892.892 0 0 0 .891-.89v-3.047l.004-.002c-.32-.11-3.253-1.074-6.726-1.074z" fill="#69308A"/></svg><svg width="26" height="31" fill="none" id="L1VzZXJzL2t1a2tvbWFoL3Byb2plY3RzL2JlbGFiL3NyYy9pbWcvc3ByaXRlLXByb2dyYW0tMy5zdmc=" x="192" y="67" xmlns="http://www.w3.org/2000/svg"><path d="M3.949 2.583H26V0H3.9A3.896 3.896 0 0 0 0 3.859v23.266C0 29.256 1.755 31 3.9 31h20.8a1.3 1.3 0 0 0 1.3-1.292V5.167h-6.5v6.183c0 .566-.715.856-1.105.453l-1.495-1.47-1.495 1.486c-.406.403-1.105.113-1.105-.452v-6.2H3.9a1.3 1.3 0 0 1-1.3-1.292v-.08a1.329 1.329 0 0 1 1.35-1.213zm3.851 15.5h10.4v2.584H7.8v-2.584zm0 5.167h10.4v2.583H7.8V23.25z" fill="#69308A"/></svg><svg width="32" height="27" fill="none" id="L1VzZXJzL2t1a2tvbWFoL3Byb2plY3RzL2JlbGFiL3NyYy9pbWcvc3ByaXRlLXByb2dyYW0tNC5zdmc=" x="192" y="40" xmlns="http://www.w3.org/2000/svg"><path d="M19.61 11.87l-1.238-2.976C15.894 4.287 18.655 0 18.655 0c-3.186 3.33-5.416 8.93-5.416 8.93L12 11.87c-.708 1.63-.354 3.543.885 4.854 1.487 1.63 4.035 1.701 5.664.178l.177-.178c1.238-1.31 1.557-3.189.884-4.854z" fill="#69308A"/><path d="M32 12.047c.035-1.24-.957-2.303-2.195-2.303h-8.496a.84.84 0 0 0-.814.886c0 .106.036.213.071.319.85 2.02.637 4.429-.708 6.13-1.805 2.267-5.097 2.657-7.362.886a5.23 5.23 0 0 1-.885-.886c-1.38-1.701-1.593-4.11-.708-6.13a.886.886 0 0 0-.425-1.134 1.033 1.033 0 0 0-.318-.07H2.195C.957 9.78-.035 10.806.001 12.046v12.65c-.035 1.24.956 2.268 2.194 2.303h27.61c1.238-.035 2.23-1.063 2.194-2.303v-12.65z" fill="#69308A"/></svg><svg width="27" height="23" fill="none" id="L1VzZXJzL2t1a2tvbWFoL3Byb2plY3RzL2JlbGFiL3NyYy9pbWcvc3ByaXRlLXByb2dyYW0tNS5zdmc=" x="156" y="115" xmlns="http://www.w3.org/2000/svg"><ellipse cx="9" cy="14.056" rx="9" ry="8.944" fill="#69308A"/><path d="M26 8.944c0 4.382-3.576 7.945-8 7.945-4.424 0-8-3.563-8-7.945C10 4.563 13.576 1 18 1c4.424 0 8 3.563 8 7.944z" stroke="#69308A" stroke-width="2"/></svg><svg width="40" height="40" fill="none" id="L1VzZXJzL2t1a2tvbWFoL3Byb2plY3RzL2JlbGFiL3NyYy9pbWcvc3ByaXRlLXJlc3VsdC00LnN2Zw==" y="75" xmlns="http://www.w3.org/2000/svg"><path d="M22 0H2C.8 0 0 .8 0 2v36c0 1.2 1 2 2 2h26c1.2 0 2-.8 2-2V8l-8-8zm-8 8h6c1.2 0 2 1 2 2 0 1.2-.8 2-2 2h-6c-1 0-2-.8-2-2 0-1 1-2 2-2zM6 36c-1 0-2-.8-2-2 0-1 1-2 2-2 1.2 0 2 1 2 2 0 1.2-.8 2-2 2zm0-8c-1 0-2-.8-2-2 0-1 1-2 2-2 1.2 0 2 1 2 2 0 1.2-.8 2-2 2zm0-8c-1 0-2-.8-2-2 0-1 1-2 2-2 1.2 0 2 1 2 2 0 1.2-.8 2-2 2zm0-8c-1 0-2-.8-2-2 0-1 1-2 2-2 1.2 0 2 1 2 2 0 1.2-.8 2-2 2zm18 24H14c-1 0-2-.8-2-2 0-1 1-2 2-2h10c1.2 0 2 1 2 2 0 1.2-.8 2-2 2zm0-8H14c-1 0-2-.8-2-2 0-1 1-2 2-2h10c1.2 0 2 1 2 2 0 1.2-.8 2-2 2zm0-8H14c-1 0-2-.8-2-2 0-1 1-2 2-2h10c1.2 0 2 1 2 2 0 1.2-.8 2-2 2zM37 0c-1.6 0-3 1.4-3 3v3h6V3c0-1.6-1.4-3-3-3zm-3 10v19c0 1.6 1.4 11 3 11s3-9.4 3-11V10h-6z" fill="#69308A"/></svg><svg width="34" height="40" fill="none" id="L1VzZXJzL2t1a2tvbWFoL3Byb2plY3RzL2JlbGFiL3NyYy9pbWcvc3ByaXRlLXJlc3VsdC01LnN2Zw==" x="40" y="75" xmlns="http://www.w3.org/2000/svg"><path d="M5.132 3.333h28.661V0H5.07C2.281 0 .021 2.23 0 4.98V35c0 2.75 2.281 5 5.069 5h27.034c.93 0 1.69-.75 1.69-1.667V6.667h-8.448v7.979c0 .73-.93 1.104-1.436.583l-1.944-1.896-1.943 1.917c-.528.52-1.436.146-1.436-.583v-8H5.07c-.93 0-1.69-.75-1.69-1.667v-.104a1.722 1.722 0 0 1 1.753-1.563zm5.006 20h13.517v3.334H10.138v-3.334zm0 6.667h13.517v3.333H10.138V30z" fill="#69308A"/></svg><svg width="40" height="38" fill="none" id="L1VzZXJzL2t1a2tvbWFoL3Byb2plY3RzL2JlbGFiL3NyYy9pbWcvc3ByaXRlLXJlc3VsdC02LnN2Zw==" x="22" y="115" xmlns="http://www.w3.org/2000/svg"><path d="M20 7.026a3.516 3.516 0 0 0 3.519-3.513A3.516 3.516 0 0 0 19.999 0a3.516 3.516 0 0 0-3.518 3.513A3.516 3.516 0 0 0 20 7.026z" fill="#69308A"/><path d="M25.711 4.803c-.591 2.608-2.922 4.565-5.71 4.565-2.79 0-5.12-1.957-5.712-4.565-2.098.466-3.673 2.332-3.673 4.565v4.685a2.347 2.347 0 0 0 4.692 0V11.71h9.384v2.343a2.347 2.347 0 0 0 4.692 0V9.368c0-2.233-1.575-4.099-3.673-4.565zm12.47 23.817a3.522 3.522 0 0 0-4.807 1.287 3.51 3.51 0 0 0 1.288 4.799c1.683.97 3.913.394 4.885-1.286.972-1.68.317-3.83-1.366-4.8z" fill="#69308A"/><path d="M36.034 20.622l-4.063-2.342a2.351 2.351 0 0 0-3.205.857 2.343 2.343 0 0 0 .859 3.2l2.032 1.17-4.692 8.114-2.032-1.171a2.351 2.351 0 0 0-3.205.857 2.343 2.343 0 0 0 .859 3.2l4.063 2.342a4.7 4.7 0 0 0 5.797-.893c-1.966-1.816-2.5-4.81-1.105-7.22 1.395-2.412 4.258-3.448 6.816-2.655a4.683 4.683 0 0 0-2.124-5.459zM6.626 29.907A3.522 3.522 0 0 0 1.82 28.62c-1.684.97-2.339 3.119-1.367 4.8.972 1.68 3.202 2.256 4.885 1.286a3.51 3.51 0 0 0 1.288-4.8z" fill="#69308A"/><path d="M18.272 31.307a2.351 2.351 0 0 0-3.205-.857l-2.032 1.17-4.692-8.112 2.032-1.171a2.343 2.343 0 0 0 .859-3.2 2.351 2.351 0 0 0-3.205-.857l-4.063 2.342a4.683 4.683 0 0 0-2.124 5.459c2.558-.793 5.422.243 6.816 2.654 1.394 2.412.861 5.405-1.105 7.22a4.7 4.7 0 0 0 5.797.894l4.063-2.342a2.343 2.343 0 0 0 .859-3.2z" fill="#69308A"/></svg><svg width="40" height="39" fill="none" id="L1VzZXJzL2t1a2tvbWFoL3Byb2plY3RzL2JlbGFiL3NyYy9pbWcvc3ByaXRlLXJlc3VsdC0xLnN2Zw==" y="155" xmlns="http://www.w3.org/2000/svg"><path d="M6.53 12.268H1.306A1.31 1.31 0 0 0 0 13.576v23.537c0 .722.585 1.308 1.306 1.308H6.53c.72 0 1.305-.586 1.305-1.308V13.576c0-.722-.587-1.308-1.305-1.308zm30.21 0c-.21-.036-10.058 0-10.058 0l1.375-3.757c.95-2.596.335-6.558-2.298-7.967-.858-.459-2.056-.689-3.022-.446a2.18 2.18 0 0 0-1.33 1c-.334.565-.3 1.226-.419 1.853-.301 1.591-1.052 3.104-2.215 4.24-2.027 1.98-8.326 7.692-8.326 7.692v20.923h21.765c2.937.002 4.862-3.282 3.413-5.848 1.727-1.107 2.318-3.44 1.306-5.23 1.727-1.108 2.318-3.44 1.306-5.23 2.98-1.912 1.984-6.64-1.497-7.23z" fill="#69308A"/></svg><svg width="35" height="40" fill="none" id="L1VzZXJzL2t1a2tvbWFoL3Byb2plY3RzL2JlbGFiL3NyYy9pbWcvc3ByaXRlLXJlc3VsdC0yLnN2Zw==" x="192" xmlns="http://www.w3.org/2000/svg"><path d="M14.694 3.584h5.71c.55 0 1-.452 1-1.005V1.005c0-.552-.45-1.005-1-1.005h-5.71c-.55 0-1.002.453-1.002 1.005v1.574c0 .553.45 1.005 1.002 1.005zM17.5 4.892c-4.843 0-9.231 1.985-12.404 5.185l3.805 2.755c2.294-2.077 5.32-3.354 8.648-3.354 7.129 0 12.929 5.817 12.929 12.968 0 7.15-5.8 12.968-12.93 12.968S4.62 29.599 4.62 22.446c0-3.164 1.138-6.063 3.022-8.316l-2.857-3.707C1.827 13.568 0 17.793 0 22.446 0 32.126 7.85 40 17.5 40S35 32.126 35 22.446 27.15 4.892 17.5 4.892z" fill="#69308A"/><path d="M17.631 25.332a2.758 2.758 0 0 1-2.174-1.075l-.005.007-6.324-8.203a10.55 10.55 0 0 0-2.15 6.384c0 5.846 4.74 10.599 10.569 10.599 5.828 0 10.568-4.755 10.568-10.6 0-5.844-4.741-10.6-10.568-10.6-2.538 0-4.869.902-6.692 2.403l8.201 5.94-.005.007a2.766 2.766 0 0 1-1.42 5.139z" fill="#69308A"/></svg><svg width="40" height="29" fill="none" id="L1VzZXJzL2t1a2tvbWFoL3Byb2plY3RzL2JlbGFiL3NyYy9pbWcvc3ByaXRlLXJlc3VsdC0zLnN2Zw==" x="108" y="39" xmlns="http://www.w3.org/2000/svg"><path d="M39.795 24.912l-1.782-2.204a2.01 2.01 0 0 1-.441-1.263V3.533c0-1.948-1.57-3.533-3.5-3.533H5.96C4.03 0 2.461 1.585 2.461 3.533v17.879c0 .463-.156.9-.442 1.255L.213 24.904a.928.928 0 0 0-.213.594v1.024c0 1.32 1.063 2.394 2.37 2.394h35.26c1.308 0 2.37-1.073 2.37-2.394v-1.024a.87.87 0 0 0-.204-.586zm-15.99.52c0 .669-.54 1.222-1.21 1.222H17.43c-.662 0-1.21-.545-1.21-1.222v-.264h7.578v.264h.008zm10.276-6.059v2.27H5.943V3.525l.008-.009h28.114c.008 0 .008.009.008.009v15.848h.008z" fill="#69308A"/></svg><svg width="24" height="14" fill="none" id="L1VzZXJzL2t1a2tvbWFoL3Byb2plY3RzL2JlbGFiL3NyYy9pbWcvc3ByaXRlLXZrLnN2Zw==" x="109" y="22" xmlns="http://www.w3.org/2000/svg"><path d="M23.873 12.505a1.654 1.654 0 0 0-.082-.158c-.416-.759-1.212-1.69-2.386-2.793l-.025-.025-.012-.013-.013-.012h-.013c-.533-.514-.87-.86-1.012-1.037-.258-.337-.316-.678-.175-1.023.1-.261.475-.813 1.125-1.655.341-.447.612-.805.812-1.074C23.533 2.777 24.158 1.539 23.966 1l-.074-.126c-.05-.076-.18-.145-.387-.209-.209-.063-.475-.073-.8-.031l-3.599.025a.462.462 0 0 0-.25.006l-.163.038-.062.032-.05.038a.559.559 0 0 0-.137.133.866.866 0 0 0-.125.22 20.73 20.73 0 0 1-1.337 2.844c-.308.522-.592.975-.85 1.358a6.493 6.493 0 0 1-.65.846 4.553 4.553 0 0 1-.475.436c-.141.11-.25.156-.324.14a9.15 9.15 0 0 1-.213-.051.837.837 0 0 1-.281-.31 1.398 1.398 0 0 1-.144-.493 5.479 5.479 0 0 1-.044-.511c-.003-.143-.002-.346.007-.607.008-.261.012-.438.012-.53 0-.32.007-.668.019-1.043l.031-.89c.009-.22.013-.452.013-.696 0-.244-.015-.436-.044-.575a1.98 1.98 0 0 0-.131-.404.679.679 0 0 0-.256-.303 1.436 1.436 0 0 0-.419-.171C12.792.065 12.23.01 11.546.002 9.996-.015 9.001.086 8.56.305a1.686 1.686 0 0 0-.475.38c-.15.184-.171.286-.063.302.5.076.854.257 1.062.544l.075.151c.059.11.117.304.175.582.059.277.096.585.113.922a9.945 9.945 0 0 1 0 1.58c-.042.437-.081.778-.119 1.023a2.067 2.067 0 0 1-.169.594 2.513 2.513 0 0 1-.15.277.216.216 0 0 1-.062.064.927.927 0 0 1-.337.063c-.117 0-.259-.06-.425-.177a3.01 3.01 0 0 1-.519-.487 6.502 6.502 0 0 1-.606-.865 15.19 15.19 0 0 1-.7-1.314l-.2-.367a31.69 31.69 0 0 1-.512-1.03c-.216-.45-.408-.886-.575-1.307a.832.832 0 0 0-.3-.405L4.712.797a.852.852 0 0 0-.2-.107 1.315 1.315 0 0 0-.287-.082L.8.633c-.35 0-.587.08-.712.24L.038.95A.413.413 0 0 0 0 1.151c0 .093.025.207.075.341a41.906 41.906 0 0 0 1.63 3.437c.588 1.104 1.098 1.993 1.531 2.666.433.674.875 1.31 1.325 1.908.45.598.748.982.893 1.15.146.169.26.295.344.379l.312.303c.2.202.494.445.881.727.388.282.817.56 1.287.834a6.985 6.985 0 0 0 1.644.67 5.625 5.625 0 0 0 1.824.208h1.437c.292-.025.512-.118.662-.278l.05-.063a.845.845 0 0 0 .094-.234c.029-.105.044-.221.044-.347a4.207 4.207 0 0 1 .08-.98c.063-.29.134-.509.213-.656a1.616 1.616 0 0 1 .482-.556.806.806 0 0 1 .1-.044c.2-.068.434-.003.706.196.27.197.524.442.762.732.237.291.522.617.856.98.333.362.625.631.874.808l.25.152c.167.101.384.194.65.278.266.084.5.105.7.063l3.199-.05c.316 0 .562-.053.737-.158.175-.106.279-.222.312-.348a.99.99 0 0 0 .007-.43 1.596 1.596 0 0 0-.088-.334z" fill="#7F7186"/></svg></svg>