<svg width="25" height="30" viewBox="0 0 25 30" fill="none" xmlns="http://www.w3.org/2000/svg">
<path d="M13.2188 29.7812C11.2656 29.7812 9.48177 29.4427 7.86719 28.7656C6.26562 28.0885 4.92448 27.0924 3.84375 25.7773C1.60417 23.0951 0.484375 19.4688 0.484375 14.8984C0.484375 10.3281 1.63672 6.70833 3.94141 4.03906C6.24609 1.36979 9.32552 0.0351562 13.1797 0.0351562C16.1484 0.0351562 18.7005 0.816406 20.8359 2.37891C22.9714 3.92839 24.2083 5.90755 24.5469 8.31641H16.5195C16.3372 7.70443 15.9336 7.20964 15.3086 6.83203C14.6836 6.45443 13.9674 6.26562 13.1602 6.26562C11.5586 6.26562 10.2956 7.05339 9.37109 8.62891C8.45964 10.1914 8.10807 12.2617 8.31641 14.8398H8.47266C8.99349 13.4206 9.86589 12.3008 11.0898 11.4805C12.3138 10.6471 13.8242 10.2305 15.6211 10.2305C18.2773 10.2305 20.4844 11.1094 22.2422 12.8672C24.013 14.625 24.8984 16.8385 24.8984 19.5078C24.8984 21.5 24.4036 23.2773 23.4141 24.8398C22.4245 26.4023 21.0378 27.6198 19.2539 28.4922C17.4831 29.3516 15.4714 29.7812 13.2188 29.7812ZM10.4062 22.4375C11.1484 23.1536 12.0599 23.5117 13.1406 23.5117C14.2214 23.5117 15.1328 23.1536 15.875 22.4375C16.6172 21.7083 16.9883 20.8099 16.9883 19.7422C16.9883 18.6875 16.6172 17.8021 15.875 17.0859C15.1328 16.3698 14.2214 16.0117 13.1406 16.0117C12.0599 16.0117 11.1484 16.3698 10.4062 17.0859C9.67708 17.8021 9.3125 18.6875 9.3125 19.7422C9.3125 20.8099 9.67708 21.7083 10.4062 22.4375Z" fill="url(#paint0_linear)"/>
<defs>
<linearGradient id="paint0_linear" x1="8" y1="-9" x2="8" y2="38" gradientUnits="userSpaceOnUse">
<stop stop-color="#D4E5FF"/>
<stop offset="1" stop-color="#F4E1FF"/>
</linearGradient>
</defs>
</svg>
