<svg width="35" height="40" viewBox="0 0 35 40" fill="none" xmlns="http://www.w3.org/2000/svg">
<path d="M14.6936 3.58411H20.4033C20.9539 3.58411 21.4042 3.13159 21.4042 2.57935V1.00476C21.4042 0.452518 20.9539 0 20.4033 0H14.6936C14.1431 0 13.6919 0.452518 13.6919 1.00476V2.57935C13.6911 3.13159 14.1422 3.58411 14.6936 3.58411Z" fill="#69308A"/>
<path d="M17.5 4.8916C12.6567 4.8916 8.26878 6.87681 5.09645 10.0771L8.90124 12.8325C11.1946 10.7551 14.2216 9.47795 17.5485 9.47795C24.6777 9.47795 30.4776 15.2953 30.4776 22.4459C30.4776 29.5966 24.6785 35.4139 17.5485 35.4139C10.4185 35.4139 4.61939 29.5991 4.61939 22.4459C4.61939 19.2825 5.75731 16.383 7.64133 14.1297L4.78398 10.4232C1.8272 13.5682 0 17.7926 0 22.4459C0 32.1256 7.8502 40.0003 17.5 40.0003C27.1499 40.0003 35.0001 32.1256 35.0001 22.4459C34.9992 12.7663 27.1499 4.8916 17.5 4.8916Z" fill="#69308A"/>
<path d="M17.6312 25.3325C16.7456 25.3325 15.9652 24.9059 15.4573 24.2573L15.4523 24.264L9.12848 16.0609C7.78419 17.8391 6.97711 20.0464 6.97711 22.4448C6.97711 28.2906 11.7185 33.0437 17.5468 33.0437C23.3751 33.0437 28.1148 28.2889 28.1148 22.4448C28.1148 16.5997 23.3735 11.8433 17.5468 11.8433C15.0094 11.8433 12.6784 12.7458 10.8546 14.2466L19.0565 20.1872L19.0515 20.1939C19.8544 20.6783 20.3958 21.5523 20.3958 22.5604C20.3983 24.0906 19.1601 25.3325 17.6312 25.3325Z" fill="#69308A"/>
</svg>
