<svg width="22" height="40" viewBox="0 0 22 40" fill="none" xmlns="http://www.w3.org/2000/svg">
<path d="M18.2146 19.9194C18.8602 12.7687 16.3597 5.47931 11.1135 0.238763C10.7948 -0.0795878 10.2309 -0.0795878 9.91223 0.238763C4.66604 5.47931 2.16552 12.7606 2.81108 19.9194C0.996971 21.8703 3.05176e-05 24.3845 3.05176e-05 27.0619C3.05176e-05 29.7638 1.02966 32.3351 2.90096 34.2942C3.35858 34.7758 4.52712 34.5554 4.33917 33.4942C4.24111 32.9391 4.11854 32.4004 4.11854 31.8698C4.11854 30.5474 4.51895 29.2903 5.26257 28.2292C5.38514 28.2945 5.52406 28.3353 5.67115 28.3353H15.3545C15.5016 28.3353 15.6406 28.2945 15.7631 28.2292C16.5068 29.2903 16.9072 30.5474 16.9072 31.8698C16.9072 32.4004 16.7682 32.931 16.6865 33.4942C16.5149 34.6697 17.7407 34.7105 18.1247 34.2942C19.9879 32.3269 21.0257 29.7638 21.0257 27.0619C21.0175 24.3845 20.0287 21.8622 18.2146 19.9194ZM10.5088 2.06724C12.0287 3.69981 13.2708 5.53645 14.235 7.48737H6.79067C7.74675 5.52829 8.98884 3.69981 10.5088 2.06724ZM2.50055 30.7188C1.97757 29.5842 1.7079 28.3435 1.7079 27.0619C1.7079 25.3314 2.20637 23.6743 3.13794 22.254C3.14611 22.3193 4.03682 25.7232 4.38003 26.5966C3.35858 27.7721 2.71302 29.1924 2.50055 30.7188ZM14.7907 26.6293H6.22682C3.82436 20.9969 3.84887 14.7033 6.0307 9.17708H14.9868C17.1687 14.7033 17.1932 20.9969 14.7907 26.6293ZM16.6457 26.5966C17.1196 25.3803 17.8796 22.3029 17.8878 22.254C18.8193 23.6661 19.3178 25.3232 19.3178 27.0619C19.3178 28.3435 19.04 29.5842 18.5251 30.7188C18.3045 29.1924 17.659 27.7721 16.6457 26.5966Z" fill="#69308A"/>
<path d="M7.06851 29.7559C6.59455 29.7559 6.21866 30.1395 6.21866 30.6048V34.874C6.21866 35.3474 6.60273 35.7229 7.06851 35.7229C7.53429 35.7229 7.91836 35.3392 7.91836 34.874V30.6048C7.91836 30.1313 7.53429 29.7559 7.06851 29.7559Z" fill="#69308A"/>
<path d="M10.5087 29.7559C10.2718 29.7559 10.0593 29.8538 9.90405 30.0089C9.90405 30.0089 9.90405 30.0089 9.89588 30.0171C9.79782 30.115 9.72427 30.2456 9.68341 30.3926C9.66707 30.466 9.65073 30.5395 9.65073 30.6211V39.1513C9.65073 39.2166 9.6589 39.2819 9.67524 39.3472C9.76513 39.7227 10.1002 40.0002 10.5006 40.0002C10.901 40.0002 11.236 39.7227 11.3259 39.3472C11.3423 39.2819 11.3504 39.2166 11.3504 39.1513V30.6048C11.3504 30.5232 11.3423 30.4497 11.3177 30.3762C11.2279 30.0171 10.901 29.7559 10.5087 29.7559Z" fill="#69308A"/>
<path d="M13.949 29.7559C13.475 29.7559 13.0992 30.1395 13.0992 30.6048V34.874C13.0992 35.3474 13.4832 35.7229 13.949 35.7229C14.4148 35.7229 14.7989 35.3392 14.7989 34.874V30.6048C14.807 30.1313 14.423 29.7559 13.949 29.7559Z" fill="#69308A"/>
</svg>
