<svg width="26" height="18" viewBox="0 0 26 18" fill="none" xmlns="http://www.w3.org/2000/svg">
<path d="M24.9866 1.54517C24.0481 0.447677 22.3153 0 19.0061 0H6.99366C3.60872 0 1.84659 0.476555 0.911594 1.645C0 2.78425 0 4.46283 0 6.78603V11.214C0 15.7148 1.0816 18 6.99366 18H19.0062C21.8759 18 23.4661 17.605 24.4949 16.6364C25.5499 15.6432 26 14.0216 26 11.214V6.78603C26 4.33602 25.9295 2.64753 24.9866 1.54517ZM16.6921 9.61137L11.2373 12.4158C11.1153 12.4785 10.982 12.5096 10.8488 12.5096C10.698 12.5096 10.5475 12.4697 10.4143 12.3903C10.1633 12.2408 10.0101 11.9732 10.0101 11.6846V6.09364C10.0101 5.80553 10.1629 5.53821 10.4133 5.38855C10.6639 5.23888 10.9754 5.22865 11.2354 5.36149L16.6902 8.14788C16.9677 8.28962 17.142 8.57146 17.1424 8.87896C17.1427 9.18671 16.9692 9.46896 16.6921 9.61137Z" fill="#69308A"/>
</svg>
