<svg width="40" height="33" viewBox="0 0 40 33" fill="none" xmlns="http://www.w3.org/2000/svg">
<path d="M39.1837 6.61953H30.7245L33.2656 1.52686C33.5164 1.02383 33.3104 0.410916 32.8063 0.160538L32.6986 0.106944C32.5556 0.0360009 32.4026 0 32.2439 0C31.8534 0 31.5029 0.216494 31.3291 0.564938L28.308 6.61961H0.816357C0.3655 6.61961 3.05176e-05 6.98443 3.05176e-05 7.43411V31.8616C3.05176e-05 32.3114 0.3655 32.6761 0.816357 32.6761H39.1837C39.6345 32.6761 40 32.3114 40 31.8616V7.43403C40 6.98426 39.6345 6.61953 39.1837 6.61953ZM1.63268 8.24853H11.5634V31.0471H1.63268V8.24853ZM38.3674 31.0471H13.196V8.24853H27.4951L23.1528 16.9515C23.1387 16.9798 23.1314 17.0109 23.1315 17.0426L23.1348 19.0003C23.135 19.0774 23.1787 19.1479 23.2479 19.1822C23.2768 19.1966 23.3079 19.2036 23.3389 19.2036C23.3823 19.2036 23.4256 19.1897 23.4617 19.1627L25.0294 17.9853C25.0547 17.9663 25.0753 17.9417 25.0893 17.9134L29.9116 8.24853H38.3674V31.0471Z" fill="#69308A"/>
<path d="M6.59797 16.9434C5.10312 16.9434 3.88687 18.1568 3.88687 19.6484C3.88687 21.1401 5.10303 22.3536 6.59797 22.3536C8.09291 22.3536 9.30916 21.1402 9.30916 19.6484C9.30916 18.1568 8.09299 16.9434 6.59797 16.9434ZM6.59797 20.7246C6.00336 20.7246 5.51952 20.2418 5.51952 19.6484C5.51952 19.0552 6.00336 18.5724 6.59797 18.5724C7.19267 18.5724 7.6765 19.0552 7.6765 19.6484C7.6765 20.2418 7.19267 20.7246 6.59797 20.7246Z" fill="#69308A"/>
<path d="M4.7032 13.4415H8.49283C8.94369 13.4415 9.30916 13.0767 9.30916 12.627C9.30916 12.1772 8.94369 11.8125 8.49283 11.8125H4.7032C4.25242 11.8125 3.88687 12.1772 3.88687 12.627C3.88687 13.0768 4.25242 13.4415 4.7032 13.4415Z" fill="#69308A"/>
<path d="M8.49283 25.8535H4.7032C4.25242 25.8535 3.88687 26.2182 3.88687 26.668C3.88687 27.1179 4.25242 27.4825 4.7032 27.4825H8.49283C8.94369 27.4825 9.30916 27.1179 9.30916 26.668C9.30916 26.2183 8.94369 25.8535 8.49283 25.8535Z" fill="#69308A"/>
<path d="M33.0552 12.17H34.2002V13.2155C34.2002 13.6652 34.5657 14.03 35.0166 14.03C35.4674 14.03 35.8329 13.6652 35.8329 13.2155V11.3555C35.8329 10.9058 35.4674 10.541 35.0166 10.541H33.0552C32.6044 10.541 32.2389 10.9058 32.2389 11.3555C32.2389 11.8054 32.6044 12.17 33.0552 12.17Z" fill="#69308A"/>
<path d="M18.5083 10.541H16.547C16.0962 10.541 15.7307 10.9058 15.7307 11.3555V13.2155C15.7307 13.6652 16.0962 14.03 16.547 14.03C16.9977 14.03 17.3633 13.6652 17.3633 13.2155V12.17H18.5082C18.9591 12.17 19.3246 11.8054 19.3246 11.3555C19.3246 10.9058 18.9592 10.541 18.5083 10.541Z" fill="#69308A"/>
<path d="M35.0166 25.2666C34.5657 25.2666 34.2002 25.6313 34.2002 26.0811V27.1264H33.0552C32.6044 27.1264 32.2389 27.4912 32.2389 27.9409C32.2389 28.3908 32.6044 28.7554 33.0552 28.7554H35.0166C35.4674 28.7554 35.8329 28.3908 35.8329 27.9409V26.0811C35.8329 25.6313 35.4674 25.2666 35.0166 25.2666Z" fill="#69308A"/>
<path d="M18.5083 27.1264H17.3633V26.0811C17.3633 25.6313 16.9977 25.2666 16.547 25.2666C16.0962 25.2666 15.7307 25.6313 15.7307 26.0811V27.9409C15.7307 28.3908 16.0962 28.7554 16.547 28.7554H18.5082C18.9591 28.7554 19.3246 28.3908 19.3246 27.9409C19.3246 27.4912 18.9592 27.1264 18.5083 27.1264Z" fill="#69308A"/>
</svg>
