<svg width="109" height="17" viewBox="0 0 109 17" fill="none" xmlns="http://www.w3.org/2000/svg">
<path d="M41.558 6.06667C41.558 6.86667 40.6782 7.5 39.5669 7.5C38.4788 7.5 37.5758 6.86667 37.5758 6.06667C37.5758 5.26667 38.4556 4.63333 39.5669 4.63333C40.6551 4.63333 41.558 5.3 41.558 6.06667ZM69.4099 4.63333C68.3218 4.63333 67.4189 5.26667 67.4189 6.06667C67.4189 6.86667 68.2986 7.5 69.4099 7.5C70.5212 7.5 71.401 6.86667 71.401 6.06667C71.401 5.3 70.5212 4.63333 69.4099 4.63333ZM107.495 13.6H80.4998C77.328 13.6 74.7812 11.3 74.7812 8.6C74.7812 5.9 77.328 3.6 80.4998 3.6H107.495C108.329 3.6 109 2.86667 109 2C109 1.1 108.329 0.4 107.495 0.4H80.4998C75.962 0.4 72.4197 4 72.4197 8.63333C72.4197 10.0333 72.7207 11.3333 73.4384 12.7L56.0512 0.566667C55.5418 0.2 55.0557 0 54.4768 0C53.898 0 53.435 0.2 52.9025 0.566667L35.0522 13V1.8C35.0522 0.9 34.2188 0.2 33.1769 0.2C32.4824 0.2 32.0656 0.466667 32.0656 0.466667L14.6553 11.0667L16.1602 11.9667C16.6232 12.2333 17.0399 12.3667 17.5493 12.3667C18.0586 12.3667 18.4754 12.2333 18.9384 11.9667L32.8528 3.46667V15.8667C32.8528 16.4667 33.3621 16.9333 33.9641 16.9333H34.0567C34.3345 16.9333 34.5892 16.8333 34.7976 16.7L54.5 3L63.5525 9.33333H46.7441L42.2757 12.4333H68.0208L74.2024 16.7333C74.4108 16.8667 74.6655 16.9667 74.9433 16.9667C75.6147 16.9667 76.1472 16.5 76.1472 15.9C76.1472 15.8333 76.1472 15.6667 76.0314 15.4667C77.2122 16.2333 78.7171 16.8333 80.4998 16.8H107.495C108.329 16.8 109 16.0667 109 15.2C108.977 14.3 108.305 13.6 107.495 13.6ZM16.8779 8.93333L2.98662 0.466667C2.98662 0.466667 2.54673 0.2 1.87532 0.2C0.833475 0.166667 0 0.9 0 1.8V15.9333C0 16.5333 0.509346 17 1.1113 17C1.73641 17 2.2226 16.5333 2.2226 15.9333V3.5L13.9839 10.6667L16.8779 8.93333Z" fill="black"/>
</svg>
