<svg width="108" height="36" viewBox="0 0 108 36" fill="none" xmlns="http://www.w3.org/2000/svg"><path d="M39.66 19.235v4.03H23.344V0H39.66v4.015H28.179v5.61h11.293v3.741H28.179v5.869h11.48zm-27.669 4.03H0V0h11.815c2.167 0 3.885.521 5.155 1.564 1.27 1.043 1.905 2.456 1.905 4.24 0 1.269-.416 2.99-1.248 3.947-.822.957-1.534 1.496-2.772 1.679 1.516.203 2.577 1.016 2.88 1.307.923.886 1.538 2.344 1.538 3.87 0 2.053-.11 3.676-1.54 4.869-1.43 1.193-3.276 1.79-5.742 1.79zM4.835 3.933v5.539H9.16c1.291 0 3.198-.27 3.903-.806.704-.549 1.056-1.114 1.056-2.103 0-.935-.309-1.35-.928-1.856-.62-.516-2.404-.774-3.535-.774H4.835zm0 15.401h5.014c1.398 0 2.561-.29 3.287-.87.736-.592 1.105-1.136 1.105-2.243 0-1.086-.38-1.304-1.137-1.874-.747-.57-1.937-.854-3.367-.854H4.835v5.841z" fill="#8A23C3"/><path d="M79.821 23.266l-1.268-3.916h-9.852l-1.269 3.916H62.15L70.687 0h6.05l8.554 23.266h-5.47zM73.567 4.45L69.808 15.3h7.637L73.686 4.45h-.119zM58.694 19.235v4.03H43.757V0h4.835v19.235h10.102zm42.025 4.03H88.727V0h11.815c2.167 0 3.885.521 5.156 1.564 1.27 1.043 1.905 2.456 1.905 4.24 0 1.269-.417 2.99-1.249 3.947-.822.957-1.533 1.496-2.771 1.679 1.515.203 2.577 1.016 2.88 1.307.922.886 1.537 2.344 1.537 3.87 0 2.053-.109 3.676-1.539 4.869-1.43 1.193-3.277 1.79-5.742 1.79zM93.562 3.933v5.539h4.326c1.291 0 3.199-.27 3.903-.806.705-.549 1.057-1.114 1.057-2.103 0-.935-.31-1.35-.929-1.856-.619-.516-2.403-.774-3.535-.774h-4.822zm0 15.401h5.014c1.399 0 2.562-.29 3.287-.87.737-.592 1.105-1.136 1.105-2.243 0-1.086-.379-1.304-1.137-1.874-.747-.57-1.937-.854-3.367-.854h-4.902v5.841zM1.422 28.95c.68-.732 1.601-1.097 2.763-1.097 1.161 0 2.08.365 2.757 1.097.68.73 1.02 1.724 1.02 2.98 0 1.25-.34 2.242-1.02 2.973-.68.731-1.6 1.097-2.757 1.097-1.162 0-2.083-.366-2.763-1.097C.745 34.172.407 33.181.407 31.93c0-1.255.338-2.248 1.015-2.98zm4.294 1.01c-.38-.488-.89-.732-1.531-.732-.64 0-1.153.244-1.536.731-.38.488-.57 1.144-.57 1.97 0 .822.19 1.477.57 1.965.38.483.892.725 1.536.725.64 0 1.15-.242 1.53-.725.38-.488.57-1.143.57-1.965 0-.826-.19-1.482-.57-1.97zm6.541 5.904h-1.569v-7.875h1.368l3.659 5.13h.043v-5.13h1.569v7.875H15.97l-3.664-5.157h-.049v5.157zm13.11-1.365v1.365h-5.065v-7.875h1.64v6.51h3.424zm4.278 1.365h-1.64v-7.875h1.64v7.875zm4.538 0h-1.568v-7.875h1.367l3.659 5.13h.043v-5.13h1.569v7.875h-1.357l-3.664-5.157h-.049v5.157zm13.234-1.365v1.365h-5.189v-7.875h5.19v1.36h-3.55v1.898h3.349v1.266h-3.35V34.5h3.55zm6.614-.878h1.58c.035.32.204.58.504.78.304.197.675.295 1.113.295.434 0 .787-.093 1.058-.279.275-.189.413-.429.413-.72a.742.742 0 0 0-.304-.616c-.203-.157-.541-.288-1.015-.393l-1.02-.224c-1.437-.31-2.156-1.042-2.156-2.2 0-.72.28-1.302.836-1.745.561-.444 1.281-.666 2.16-.666.905 0 1.627.216 2.166.65.54.428.816 1.002.83 1.718h-1.535a1.005 1.005 0 0 0-.44-.78c-.264-.193-.602-.29-1.015-.29-.405 0-.733.09-.982.268a.83.83 0 0 0-.37.704c0 .24.1.435.299.584.203.149.53.276.983.382l.95.202c.785.167 1.356.429 1.715.786.358.352.537.829.537 1.43 0 .763-.286 1.37-.858 1.822-.571.447-1.344.671-2.317.671-.945 0-1.697-.211-2.258-.633-.558-.426-.849-1.008-.874-1.746zM66.478 36c-1.144 0-2.048-.362-2.714-1.086-.662-.727-.993-1.724-.993-2.99 0-1.263.332-2.256.998-2.98.666-.727 1.569-1.091 2.709-1.091.622 0 1.187.124 1.693.371.51.247.92.597 1.227 1.048.308.45.481.966.521 1.544h-1.596c-.076-.484-.284-.871-.624-1.162-.336-.291-.743-.437-1.221-.437-.619 0-1.113.244-1.482.731-.37.488-.554 1.145-.554 1.97 0 .84.183 1.505.549 1.992.365.484.863.726 1.492.726.485 0 .892-.135 1.221-.404.33-.27.538-.637.625-1.102h1.596c-.091.876-.447 1.575-1.07 2.095-.622.517-1.415.775-2.377.775zm12.935-.136h-1.639v-3.318h-3.528v3.318h-1.64v-7.875h1.64v3.198h3.528v-3.198h1.64v7.875zm3.741-6.914c.68-.732 1.602-1.097 2.763-1.097 1.162 0 2.08.365 2.757 1.097.68.73 1.02 1.724 1.02 2.98 0 1.25-.34 2.242-1.02 2.973-.68.731-1.599 1.097-2.757 1.097-1.162 0-2.082-.366-2.763-1.097-.676-.731-1.015-1.722-1.015-2.974 0-1.255.339-2.248 1.015-2.98zm4.294 1.01c-.38-.488-.89-.732-1.531-.732-.64 0-1.153.244-1.536.731-.38.488-.57 1.144-.57 1.97 0 .822.19 1.477.57 1.965.38.483.892.725 1.536.725.64 0 1.15-.242 1.53-.725.38-.488.57-1.143.57-1.965 0-.826-.19-1.482-.57-1.97zm5.743-1.01c.68-.732 1.602-1.097 2.763-1.097 1.162 0 2.08.365 2.758 1.097.68.73 1.02 1.724 1.02 2.98 0 1.25-.34 2.242-1.02 2.973-.68.731-1.6 1.097-2.758 1.097-1.161 0-2.082-.366-2.763-1.097-.676-.731-1.015-1.722-1.015-2.974 0-1.255.339-2.248 1.015-2.98zm4.294 1.01c-.38-.488-.89-.732-1.53-.732-.641 0-1.153.244-1.537.731-.38.488-.57 1.144-.57 1.97 0 .822.19 1.477.57 1.965.38.483.892.725 1.536.725.64 0 1.15-.242 1.53-.725.38-.488.57-1.143.57-1.965 0-.826-.19-1.482-.57-1.97zm10.037 4.54v1.364h-5.064v-7.875h1.639v6.51h3.425z" fill="#000"/></svg>