<svg width="26" height="31" viewBox="0 0 26 31" fill="none" xmlns="http://www.w3.org/2000/svg">
<path d="M3.94879 2.58341H26V0H3.89999C1.75504 0 0.0161865 1.72771 0 3.85892V27.125C0 29.2562 1.75504 31 3.89999 31H24.6998C25.4149 31 26 30.4187 26 29.7084V5.16659H19.4999V11.3504C19.4999 11.9157 18.7849 12.2063 18.395 11.8026L16.8999 10.3334L15.405 11.8187C14.9987 12.2224 14.3 11.9318 14.3 11.3667V5.16659H3.89999C3.18493 5.16659 2.60007 4.58548 2.60007 3.875C2.60007 3.8426 2.60007 3.81043 2.60007 3.79435C2.66506 3.09995 3.24991 2.56709 3.94879 2.58341ZM7.79998 18.0834H18.2V20.6666H7.79998V18.0834ZM7.79998 23.25H18.2V25.8334H7.79998V23.25Z" fill="#69308A"/>
</svg>
