<svg width="13" height="24" viewBox="0 0 13 24" fill="none" xmlns="http://www.w3.org/2000/svg">
<path d="M12.2699 0.0049936L9.21173 0C5.77601 0 3.55569 2.31828 3.55569 5.90643V8.62969H0.480864C0.215162 8.62969 0 8.84891 0 9.11932V13.065C0 13.3354 0.215408 13.5544 0.480864 13.5544H3.55569V23.5106C3.55569 23.781 3.77085 24 4.03656 24H8.04833C8.31403 24 8.5292 23.7808 8.5292 23.5106V13.5544H12.1244C12.3901 13.5544 12.6053 13.3354 12.6053 13.065L12.6067 9.11932C12.6067 8.98948 12.5559 8.86514 12.4659 8.77326C12.3759 8.68138 12.2532 8.62969 12.1256 8.62969H8.5292V6.32115C8.5292 5.21157 8.78901 4.64829 10.2093 4.64829L12.2694 4.64755C12.5348 4.64755 12.75 4.42833 12.75 4.15817V0.494367C12.75 0.224462 12.5351 0.00549296 12.2699 0.0049936Z" fill="#7F7186"/>
</svg>
