<svg width="36" height="40" viewBox="0 0 36 40" fill="none" xmlns="http://www.w3.org/2000/svg">
<path d="M33.864 5.33333H32H28H26.6667V3.822C26.6667 1.71467 24.952 0 22.8447 0H3.82203C1.7147 0 3.05176e-05 1.71467 3.05176e-05 3.822V36.1773C3.05176e-05 38.2853 1.7147 40 3.82203 40H22.8447C24.952 40 26.6667 38.2853 26.6667 36.178V28H28H32H33.864C35.042 28 36 27.042 36 25.8647V7.46867C36 6.29133 35.042 5.33333 33.864 5.33333ZM25.3334 36.178C25.3334 37.55 24.2167 38.6667 22.8447 38.6667H3.82203C2.45003 38.6667 1.33336 37.55 1.33336 36.178V3.822C1.33336 2.45 2.45003 1.33333 3.82203 1.33333H22.8447C24.2167 1.33333 25.3334 2.45 25.3334 3.822V5.33333V28V36.178ZM26.6667 26.6667V6.66667H28V26.6667H26.6667ZM29.3334 26.6667V6.66667H30.6667V26.6667H29.3334ZM34.6667 25.8647C34.6667 26.3067 34.3067 26.6667 33.864 26.6667H32V6.66667H33.864C34.3067 6.66667 34.6667 7.02667 34.6667 7.46867V25.8647Z" fill="#69308A"/>
<path d="M33.3334 10.0003C33.7016 10.0003 34.0001 9.70185 34.0001 9.33366C34.0001 8.96547 33.7016 8.66699 33.3334 8.66699C32.9652 8.66699 32.6667 8.96547 32.6667 9.33366C32.6667 9.70185 32.9652 10.0003 33.3334 10.0003Z" fill="#69308A"/>
<path d="M33.3334 13.3333C33.7016 13.3333 34.0001 13.0349 34.0001 12.6667C34.0001 12.2985 33.7016 12 33.3334 12C32.9652 12 32.6667 12.2985 32.6667 12.6667C32.6667 13.0349 32.9652 13.3333 33.3334 13.3333Z" fill="#69308A"/>
<path d="M3.33334 14.6667H23.3333V6H3.33334V14.6667ZM4.66668 7.33333H22V13.3333H4.66668V7.33333Z" fill="#69308A"/>
<path d="M7.33338 4.66634C7.70138 4.66634 8.00005 4.36834 8.00005 3.99967C8.00005 3.63101 7.70138 3.33301 7.33338 3.33301H3.33338C2.96538 3.33301 2.66672 3.63101 2.66672 3.99967C2.66672 4.36834 2.96538 4.66634 3.33338 4.66634H7.33338Z" fill="#69308A"/>
<path d="M4.00003 20.6667H9.33336V16H4.00003V20.6667ZM5.33336 17.3333H8.00003V19.3333H5.33336V17.3333Z" fill="#69308A"/>
<path d="M10.6667 20.6667H16.0001V16H10.6667V20.6667ZM12.0001 17.3333H14.6667V19.3333H12.0001V17.3333Z" fill="#69308A"/>
<path d="M17.3333 20.6667H22.6667V16H17.3333V20.6667ZM18.6667 17.3333H21.3333V19.3333H18.6667V17.3333Z" fill="#69308A"/>
<path d="M4.00003 25.9997H9.33336V21.333H4.00003V25.9997ZM5.33336 22.6663H8.00003V24.6663H5.33336V22.6663Z" fill="#69308A"/>
<path d="M10.6667 25.9997H16.0001V21.333H10.6667V25.9997ZM12.0001 22.6663H14.6667V24.6663H12.0001V22.6663Z" fill="#69308A"/>
<path d="M17.3333 25.9997H22.6667V21.333H17.3333V25.9997ZM18.6667 22.6663H21.3333V24.6663H18.6667V22.6663Z" fill="#69308A"/>
<path d="M4.00003 31.3337H9.33336V26.667H4.00003V31.3337ZM5.33336 28.0003H8.00003V30.0003H5.33336V28.0003Z" fill="#69308A"/>
<path d="M10.6667 31.3337H16.0001V26.667H10.6667V31.3337ZM12.0001 28.0003H14.6667V30.0003H12.0001V28.0003Z" fill="#69308A"/>
<path d="M4.00003 37.3337H9.33336V32.667H4.00003V37.3337ZM5.33336 34.0003H8.00003V36.0003H5.33336V34.0003Z" fill="#69308A"/>
<path d="M10.6667 37.3337H16.0001V32.667H10.6667V37.3337ZM12.0001 34.0003H14.6667V36.0003H12.0001V34.0003Z" fill="#69308A"/>
<path d="M17.3333 37.3337H22.6667V26.667H17.3333V37.3337ZM18.6667 28.0003H21.3333V36.0003H18.6667V28.0003Z" fill="#69308A"/>
<path d="M11.588 8.05148C11.4253 7.98414 11.2413 7.98414 11.0787 8.05148C10.9967 8.08548 10.9233 8.13414 10.8613 8.19614L10.1953 8.86214C9.93468 9.12281 9.93468 9.54414 10.1953 9.80481C10.3253 9.93481 10.496 10.0001 10.6667 10.0001V12.0001C10.6667 12.3688 10.9653 12.6668 11.3333 12.6668C11.7013 12.6668 12 12.3688 12 12.0001V8.66681C12 8.58014 11.982 8.49348 11.9487 8.41214C11.8813 8.24881 11.7513 8.11881 11.588 8.05148Z" fill="#69308A"/>
<path d="M17.588 8.05148C17.4253 7.98414 17.2413 7.98414 17.0787 8.05148C16.9967 8.08548 16.9233 8.13414 16.8613 8.19614L16.1953 8.86214C15.9347 9.12281 15.9347 9.54414 16.1953 9.80481C16.3253 9.93481 16.496 10.0001 16.6667 10.0001V12.0001C16.6667 12.3688 16.9653 12.6668 17.3333 12.6668C17.7013 12.6668 18 12.3688 18 12.0001V8.66681C18 8.58014 17.982 8.49348 17.9487 8.41214C17.8813 8.24881 17.7513 8.11881 17.588 8.05148Z" fill="#69308A"/>
<path d="M20.2547 8.05148C20.092 7.98414 19.908 7.98414 19.7454 8.05148C19.6634 8.08548 19.59 8.13414 19.528 8.19614L18.862 8.86214C18.6014 9.12281 18.6014 9.54414 18.862 9.80481C18.992 9.93481 19.1627 10.0001 19.3334 10.0001V12.0001C19.3334 12.3688 19.632 12.6668 20 12.6668C20.368 12.6668 20.6667 12.3688 20.6667 12.0001V8.66681C20.6667 8.58014 20.6487 8.49348 20.6154 8.41214C20.548 8.24881 20.418 8.11881 20.2547 8.05148Z" fill="#69308A"/>
<path d="M14.1954 10.8625L13.5287 11.5292C13.2681 11.7898 13.2681 12.2112 13.5287 12.4718C13.6587 12.6018 13.8294 12.6672 14.0001 12.6672C14.1707 12.6672 14.3414 12.6018 14.4714 12.4718L15.1381 11.8052C15.3987 11.5445 15.3987 11.1232 15.1381 10.8625C14.8774 10.6018 14.4561 10.6018 14.1954 10.8625Z" fill="#69308A"/>
</svg>
