<svg width="24" height="14" viewBox="0 0 24 14" fill="none" xmlns="http://www.w3.org/2000/svg">
<path d="M23.8727 12.5046C23.8437 12.4413 23.8166 12.3887 23.7914 12.3466C23.375 11.5883 22.5793 10.6575 21.4047 9.55399L21.3799 9.52872L21.3675 9.51632L21.3549 9.50362H21.3423C20.8092 8.98976 20.4716 8.64425 20.3303 8.46736C20.0716 8.13039 20.0137 7.78931 20.155 7.44371C20.2549 7.1826 20.6301 6.63117 21.2797 5.78866C21.6213 5.34216 21.892 4.9843 22.0918 4.71469C23.5331 2.77715 24.1579 1.53904 23.9662 0.999866L23.8918 0.873868C23.8418 0.798013 23.7127 0.728619 23.5046 0.665332C23.2961 0.602179 23.0296 0.591734 22.7047 0.633822L19.106 0.658959C19.0477 0.63807 18.9644 0.640018 18.856 0.665332C18.7477 0.690647 18.6935 0.703349 18.6935 0.703349L18.6308 0.734992L18.5811 0.773008C18.5395 0.798145 18.4936 0.842358 18.4436 0.905556C18.3938 0.968533 18.3522 1.04244 18.319 1.12666C17.9272 2.14593 17.4817 3.09359 16.9817 3.9696C16.6735 4.49195 16.3904 4.94465 16.1319 5.32795C15.8737 5.71112 15.6571 5.99344 15.4823 6.1744C15.3072 6.35554 15.1492 6.50066 15.0073 6.61028C14.8657 6.71995 14.7575 6.76628 14.6826 6.74933C14.6076 6.73238 14.5369 6.71556 14.47 6.69875C14.3534 6.62289 14.2597 6.51973 14.189 6.38917C14.118 6.25862 14.0702 6.0943 14.0452 5.89634C14.0203 5.69825 14.0056 5.52786 14.0014 5.3846C13.9975 5.24152 13.9993 5.03914 14.0078 4.77803C14.0164 4.51678 14.0203 4.34002 14.0203 4.24735C14.0203 3.9272 14.0265 3.57974 14.0389 3.20489C14.0515 2.83004 14.0617 2.53304 14.0702 2.31423C14.0787 2.09521 14.0827 1.86348 14.0827 1.61919C14.0827 1.37489 14.068 1.18331 14.0389 1.04425C14.0102 0.905378 13.9661 0.770574 13.908 0.639885C13.8496 0.509329 13.7641 0.408336 13.6519 0.336641C13.5394 0.265034 13.3996 0.208209 13.2333 0.165989C12.7917 0.0649515 12.2294 0.0102951 11.5462 0.00179786C9.99681 -0.0150195 9.00124 0.0861502 8.55972 0.305175C8.38478 0.397714 8.22648 0.524154 8.08494 0.684097C7.93495 0.869486 7.91402 0.970657 8.0223 0.987297C8.52221 1.06302 8.87611 1.24416 9.0844 1.53054L9.15946 1.6823C9.21784 1.79179 9.27614 1.98563 9.33448 2.26356C9.39273 2.54149 9.43033 2.84894 9.44687 3.18573C9.48845 3.80076 9.48845 4.32723 9.44687 4.76519C9.40516 5.20333 9.36577 5.54441 9.32818 5.78871C9.29058 6.033 9.23439 6.23096 9.15946 6.38254C9.0844 6.53416 9.03446 6.62683 9.00942 6.66047C8.98443 6.6941 8.9636 6.7153 8.94706 6.72362C8.83878 6.76557 8.72616 6.78695 8.60961 6.78695C8.49289 6.78695 8.35134 6.72791 8.18477 6.60993C8.01823 6.49194 7.8454 6.32987 7.66626 6.12346C7.48712 5.917 7.28509 5.6285 7.06009 5.2579C6.83526 4.88729 6.60198 4.44929 6.36039 3.94388L6.1605 3.57735C6.03555 3.34155 5.86486 2.99821 5.64825 2.54764C5.43152 2.09689 5.23995 1.66088 5.07342 1.23969C5.00685 1.0628 4.90684 0.928127 4.77357 0.835454L4.71103 0.797437C4.66945 0.763803 4.60271 0.728088 4.51115 0.690027C4.41945 0.652011 4.32378 0.624749 4.22373 0.607976L0.799884 0.633114C0.450012 0.633114 0.21262 0.713262 0.0876214 0.873337L0.0375958 0.949059C0.0126049 0.991235 0 1.05859 0 1.15131C0 1.24398 0.0249909 1.35772 0.0750165 1.49239C0.574835 2.68023 1.11838 3.82581 1.70564 4.92929C2.29291 6.03278 2.80323 6.92167 3.2363 7.59516C3.66946 8.26914 4.11098 8.90523 4.56086 9.50314C5.01075 10.1013 5.30854 10.4846 5.45424 10.653C5.60011 10.8217 5.71469 10.9478 5.79798 11.032L6.11043 11.3352C6.31036 11.5374 6.60395 11.7796 6.99133 12.0617C7.3788 12.344 7.80776 12.622 8.27843 12.896C8.74918 13.1695 9.29684 13.3927 9.9217 13.5654C10.5465 13.7382 11.1546 13.8075 11.7461 13.7741H13.1831C13.4746 13.7486 13.6954 13.656 13.8455 13.496L13.8952 13.4327C13.9286 13.3824 13.9599 13.3043 13.9888 13.1992C14.018 13.0939 14.0326 12.9779 14.0326 12.8517C14.024 12.4896 14.0513 12.1632 14.1136 11.8726C14.1759 11.5821 14.2469 11.3631 14.3263 11.2156C14.4056 11.0682 14.4952 10.9439 14.5948 10.843C14.6947 10.742 14.7659 10.6808 14.8076 10.6597C14.8491 10.6385 14.8822 10.6241 14.9072 10.6155C15.1072 10.5482 15.3425 10.6134 15.6135 10.8115C15.8842 11.0095 16.1382 11.2539 16.3758 11.5444C16.6132 11.8352 16.8985 12.1614 17.2317 12.5235C17.565 12.8858 17.8565 13.1551 18.1063 13.3323L18.3562 13.4839C18.523 13.5851 18.7396 13.6777 19.0062 13.762C19.2724 13.8461 19.5056 13.8672 19.7058 13.8251L22.9046 13.7747C23.221 13.7747 23.4672 13.7217 23.6418 13.6166C23.8168 13.5113 23.9207 13.3953 23.9543 13.2691C23.9877 13.1428 23.9895 12.9995 23.9606 12.8393C23.931 12.6795 23.9018 12.5678 23.8727 12.5046Z" fill="#7F7186"/>
</svg>
