<svg width="40" height="38" viewBox="0 0 40 38" fill="none" xmlns="http://www.w3.org/2000/svg">
<path d="M19.9997 7.02626C21.9432 7.02626 23.5187 5.45338 23.5187 3.51313C23.5187 1.57288 21.9432 0 19.9997 0C18.0562 0 16.4807 1.57288 16.4807 3.51313C16.4807 5.45338 18.0562 7.02626 19.9997 7.02626Z" fill="#69308A"/>
<path d="M25.711 4.80273C25.1195 7.41089 22.7888 9.36841 20.0001 9.36841C17.2113 9.36841 14.8806 7.41089 14.2891 4.80273C12.1914 5.26938 10.6161 7.13525 10.6161 9.36841V14.0526C10.6161 15.3438 11.6688 16.3947 12.9621 16.3947C14.2554 16.3947 15.3081 15.3438 15.3081 14.0526V11.7105H24.6921V14.0526C24.6921 15.3438 25.7448 16.3947 27.0381 16.3947C28.3314 16.3947 29.3841 15.3438 29.3841 14.0526V9.36841C29.384 7.13525 27.8087 5.26938 25.711 4.80273Z" fill="#69308A"/>
<path d="M38.181 28.6207C36.4978 27.6506 34.3457 28.2262 33.3739 29.9066C32.4022 31.5868 32.9788 33.7355 34.662 34.7055C36.3451 35.6757 38.5755 35.0999 39.5472 33.4197C40.519 31.7394 39.864 29.5908 38.181 28.6207Z" fill="#69308A"/>
<path d="M36.0341 20.6221L31.9709 18.28C30.8508 17.6344 29.4128 18.0191 28.7662 19.1373C28.1195 20.2555 28.5048 21.6911 29.6249 22.3367L31.6566 23.5077L26.9646 31.621L24.9329 30.45C23.8128 29.8044 22.3748 30.1891 21.7282 31.3073C21.0816 32.4255 21.4669 33.8611 22.587 34.5066L26.6502 36.8487C28.5876 37.9653 30.9938 37.5362 32.4473 35.9559C30.4806 34.1404 29.9478 31.1466 31.3422 28.7354C32.7366 26.3242 35.6 25.288 38.1583 26.0806C38.8024 24.0338 37.9715 21.7387 36.0341 20.6221Z" fill="#69308A"/>
<path d="M6.62616 29.9066C5.65436 28.2262 3.50225 27.6505 1.81905 28.6208C0.136005 29.5909 -0.518995 31.7394 0.45288 33.4198C1.42452 35.1001 3.65499 35.6758 5.33803 34.7056C7.02124 33.7355 7.59788 31.5868 6.62616 29.9066Z" fill="#69308A"/>
<path d="M18.2718 31.3072C17.6252 30.189 16.1871 29.8044 15.0671 30.4499L13.0354 31.6209L8.3434 23.5077L10.3751 22.3366C11.4952 21.6911 11.8804 20.2554 11.2339 19.1373C10.5872 18.0191 9.14918 17.6345 8.02918 18.28L3.9659 20.6221C2.02856 21.7386 1.19762 24.0337 1.84184 26.0806C4.40004 25.288 7.26356 26.3242 8.65793 28.7354C10.0523 31.1466 9.51949 34.1404 7.55277 35.9559C9.00629 37.5362 11.4125 37.9654 13.3499 36.8488L17.4132 34.5066C18.5332 33.861 18.9185 32.4254 18.2718 31.3072Z" fill="#69308A"/>
</svg>
