<svg width="24" height="24" viewBox="0 0 24 24" fill="none" xmlns="http://www.w3.org/2000/svg">
<path d="M3.08052 0H20.9197C22.6139 0 24 1.25427 24 3.08024V20.9198C24 22.7457 22.6139 24 20.9197 24H3.08052C1.38588 24 0 22.7457 0 20.9198V3.08024C0 1.25427 1.38588 0 3.08052 0ZM17.4831 2.6665C16.8888 2.6665 16.4031 3.15244 16.4031 3.74705V6.33322C16.4031 6.92758 16.8888 7.41377 17.4831 7.41377H20.1957C20.7901 7.41377 21.2763 6.92758 21.2763 6.33322V3.74705C21.2763 3.15244 20.7901 2.6665 20.1957 2.6665H17.4831ZM21.2876 10.1495H19.1753C19.3752 10.802 19.4833 11.4932 19.4833 12.2083C19.4833 16.2003 16.1428 19.4363 12.0229 19.4363C7.90324 19.4363 4.56324 16.2003 4.56324 12.2083C4.56324 11.4927 4.67117 10.8018 4.87126 10.1495H2.66702V20.2875C2.66702 20.8121 3.09629 21.2416 3.62117 21.2416H20.334C20.8589 21.2416 21.2881 20.8123 21.2881 20.2875V10.1495H21.2876ZM12.0227 7.2775C9.36082 7.2775 7.20266 9.36837 7.20266 11.9479C7.20266 14.5274 9.36082 16.6183 12.0227 16.6183C14.6848 16.6183 16.8432 14.5274 16.8432 11.9479C16.8432 9.36837 14.685 7.2775 12.0227 7.2775Z" fill="#7F7186"/>
</svg>
