<svg width="40" height="32" viewBox="0 0 40 32" fill="none" xmlns="http://www.w3.org/2000/svg">
<path d="M36.5875 0H3.41253C1.53089 0 3.05176e-05 1.53626 3.05176e-05 3.42455V28.3936C3.05176e-05 30.2819 1.53089 31.8182 3.41253 31.8182H36.5875C38.4692 31.8182 40 30.2819 40 28.3936V3.42455C40 1.53626 38.4692 0 36.5875 0ZM38.7042 28.3936C38.7042 29.5649 37.7546 30.5177 36.5875 30.5177H3.41253C2.24542 30.5177 1.29589 29.5649 1.29589 28.3936V6.84917H38.7041V28.3936H38.7042ZM38.7042 5.54866H1.29589V3.42455C1.29589 2.25332 2.24542 1.30043 3.41253 1.30043H36.5875C37.7546 1.30043 38.7042 2.25332 38.7042 3.42455V5.54866Z" fill="#69308A"/>
<path d="M4.79486 2.77441H4.10369C3.74588 2.77441 3.45572 3.06552 3.45572 3.42467C3.45572 3.78375 3.7458 4.07493 4.10369 4.07493H4.79486C5.15267 4.07493 5.44283 3.78382 5.44283 3.42467C5.44275 3.06552 5.15267 2.77441 4.79486 2.77441Z" fill="#69308A"/>
<path d="M7.55939 2.77441H6.86821C6.5104 2.77441 6.22025 3.06552 6.22025 3.42467C6.22025 3.78375 6.51032 4.07493 6.86821 4.07493H7.55939C7.9172 4.07493 8.20735 3.78382 8.20735 3.42467C8.20735 3.06552 7.91728 2.77441 7.55939 2.77441Z" fill="#69308A"/>
<path d="M10.324 2.77441H9.63286C9.27505 2.77441 8.98489 3.06552 8.98489 3.42467C8.98489 3.78375 9.27497 4.07493 9.63286 4.07493H10.324C10.6818 4.07493 10.972 3.78382 10.972 3.42467C10.972 3.06552 10.6818 2.77441 10.324 2.77441Z" fill="#69308A"/>
<path d="M36.5875 8.32324H3.41253C3.05471 8.32324 2.76456 8.61434 2.76456 8.9735V24.2323C2.76456 24.5914 3.05463 24.8826 3.41253 24.8826H36.5875C36.9453 24.8826 37.2355 24.5915 37.2355 24.2323V8.97342C37.2354 8.61434 36.9453 8.32324 36.5875 8.32324ZM35.9396 23.5821H4.06049V9.62368H35.9396V23.5821Z" fill="#69308A"/>
<path d="M36.5875 27.0502H10.1742C9.90315 26.2448 9.14354 25.6631 8.25065 25.6631C7.35776 25.6631 6.59815 26.2448 6.32706 27.0502H3.41253C3.05471 27.0502 2.76456 27.3413 2.76456 27.7005C2.76456 28.0596 3.05463 28.3507 3.41253 28.3507H6.3269C6.59799 29.1562 7.3576 29.7379 8.25049 29.7379C9.14338 29.7379 9.90299 29.1562 10.1741 28.3507H36.5874C36.9452 28.3507 37.2353 28.0596 37.2353 27.7005C37.2354 27.3414 36.9453 27.0502 36.5875 27.0502ZM8.25057 28.4375C7.84565 28.4375 7.5162 28.1068 7.5162 27.7005C7.5162 27.2941 7.84565 26.9635 8.25057 26.9635C8.65549 26.9635 8.98495 27.2941 8.98495 27.7005C8.98495 28.1069 8.65549 28.4375 8.25057 28.4375Z" fill="#69308A"/>
<path d="M24.036 15.4227L18.5679 12.4295C18.1489 12.2001 17.6536 12.2092 17.2432 12.4537C16.8327 12.6983 16.5876 13.1302 16.5876 13.6094V19.5956C16.5875 20.0745 16.8325 20.5064 17.2431 20.751C17.4555 20.8776 17.6906 20.941 17.9262 20.941C18.1458 20.941 18.3657 20.8859 18.5679 20.7752L24.0359 17.7821C24.4664 17.5464 24.7339 17.0944 24.7339 16.6024C24.7339 16.1103 24.4664 15.6582 24.036 15.4227ZM23.4154 16.6403L17.9473 19.6334C17.9386 19.6381 17.9258 19.6451 17.9046 19.6326C17.8834 19.62 17.8834 19.6051 17.8834 19.5953V13.6092H17.8835C17.8835 13.5994 17.8835 13.5845 17.9046 13.5719C17.9136 13.5666 17.9209 13.5647 17.9272 13.5647C17.936 13.5647 17.9425 13.5683 17.9475 13.571L23.4155 16.5642C23.425 16.5694 23.438 16.5765 23.438 16.6021C23.438 16.6278 23.425 16.635 23.4154 16.6403Z" fill="#69308A"/>
</svg>
