<svg width="13" height="10" viewBox="0 0 13 10" fill="none" xmlns="http://www.w3.org/2000/svg">
<path d="M12.7652 1.38043L11.6245 0.235658C11.4681 0.0785723 11.2779 0 11.0543 0C10.8306 0 10.6403 0.0785723 10.4839 0.235658L4.98193 5.766L2.51611 3.28279C2.35954 3.12564 2.16944 3.04716 1.94586 3.04716C1.72213 3.04716 1.53203 3.12564 1.37546 3.28279L0.234834 4.42759C0.0782586 4.5847 0 4.77555 0 5.00006C0 5.2244 0.0782586 5.41542 0.234834 5.5725L3.27091 8.61954L4.41162 9.76431C4.56811 9.92152 4.75826 10 4.98193 10C5.20552 10 5.39567 9.92131 5.55225 9.76431L6.69293 8.61954L12.7652 2.52528C12.9216 2.36814 13 2.17732 13 1.95281C13.0001 1.72841 12.9216 1.53757 12.7652 1.38043Z" fill="#821BBB"/>
</svg>
