<svg width="40" height="39" viewBox="0 0 40 39" fill="none" xmlns="http://www.w3.org/2000/svg">
<path d="M6.52954 12.2681H1.30594C0.587813 12.2681 0 12.8537 0 13.5757V37.1134C0 37.8351 0.585235 38.4209 1.30594 38.4209H6.52954C7.25024 38.4209 7.83547 37.835 7.83547 37.1134V13.5757C7.83547 12.8537 7.24758 12.2681 6.52954 12.2681Z" fill="#69308A"/>
<path d="M36.7396 12.2682C36.5292 12.2325 26.6818 12.2682 26.6818 12.2682L28.0573 8.51063C29.0063 5.91544 28.3919 1.95288 25.7585 0.544127C24.9011 0.0853895 23.7031 -0.144996 22.7373 0.0984538C22.1834 0.238015 21.6966 0.605225 21.4064 1.09721C21.0728 1.66304 21.1072 2.32354 20.9884 2.95094C20.687 4.54228 19.9361 6.05532 18.7732 7.19098C16.7457 9.17105 10.4474 14.8834 10.4474 14.8834V35.8059H32.2124C35.1493 35.8076 37.074 32.5235 35.6255 29.9583C37.3521 28.8509 37.9427 26.5185 36.9314 24.7277C38.6581 23.6203 39.2486 21.2879 38.2374 19.4971C41.2166 17.5865 40.2206 12.8577 36.7396 12.2682Z" fill="#69308A"/>
</svg>
