<svg width="38" height="38" viewBox="0 0 38 38" fill="none" xmlns="http://www.w3.org/2000/svg">
<circle cx="19" cy="19" r="19" fill="url(#paint0_linear)"/>
<path d="M13.125 19.5239C12.0204 19.5239 11.125 20.4194 11.125 21.5239V25.9322C11.125 26.5217 11.6301 27.0002 12.25 27.0002H15.875C16.9796 27.0002 17.875 26.1048 17.875 25.0002V21.5239C17.875 20.4194 16.9796 19.5239 15.875 19.5239H13.125Z" fill="white"/>
<path d="M26.875 15.2516H24.1053C23.8726 15.2516 23.7757 14.9356 23.9432 14.7742C24.8511 13.908 24.8511 12.4982 23.9432 11.632C23.0612 10.7883 21.5245 10.7904 20.6436 11.632C20.1605 12.0917 18.8886 13.9486 19.0354 15.2117C19.0378 15.233 19.0214 15.2516 19 15.2516C18.9786 15.2516 18.9622 15.233 18.9646 15.2117C19.1103 13.9487 17.8384 12.0918 17.3564 11.632C16.4744 10.7904 14.9376 10.7904 14.0567 11.632C13.15 12.4982 13.15 13.908 14.0556 14.7742C14.224 14.9352 14.1268 15.2516 13.8939 15.2516H11.125C10.5051 15.2516 10 15.7312 10 16.3197V17.9217C10 18.2165 10.252 18.4557 10.5625 18.4557H16.807C17.3968 18.4557 17.875 17.9776 17.875 17.3877C17.875 16.7978 18.3532 16.3197 18.943 16.3197H19.057C19.6468 16.3197 20.125 16.7978 20.125 17.3877C20.125 17.9776 20.6032 18.4557 21.193 18.4557H27.4375C27.748 18.4557 28 18.2165 28 17.9217V16.3197C28 15.7312 27.496 15.2516 26.875 15.2516ZM17.8579 15.093C17.8469 15.1827 17.7679 15.2407 17.678 15.2485C17.6557 15.2504 17.63 15.2516 17.6005 15.2516C16.8231 15.2516 15.3393 14.4848 14.8544 14.0212C14.383 13.5705 14.383 12.8357 14.8544 12.385C15.0827 12.1671 15.3854 12.0475 15.7071 12.0475C16.0278 12.0475 16.3304 12.1671 16.5588 12.385C17.2407 13.0362 17.919 14.598 17.8579 15.093ZM20.3984 15.2516C20.2626 15.2516 20.1368 15.1526 20.1383 15.0168C20.1444 14.454 20.7912 13.0058 21.4412 12.385C21.8946 11.9503 22.6878 11.9482 23.1456 12.385C23.6181 12.8357 23.6181 13.5705 23.1456 14.0212C22.6608 14.4848 21.1769 15.2516 20.3984 15.2516Z" fill="white"/>
<path d="M22.125 19.5239C21.0204 19.5239 20.125 20.4194 20.125 21.5239V25.0002C20.125 26.1048 21.0204 27.0002 22.125 27.0002H25.75C26.371 27.0002 26.875 26.5217 26.875 25.9322V21.5239C26.875 20.4194 25.9796 19.5239 24.875 19.5239H22.125Z" fill="white"/>
<defs>
<linearGradient id="paint0_linear" x1="19" y1="0" x2="19" y2="38" gradientUnits="userSpaceOnUse">
<stop stop-color="#8B24C5"/>
<stop offset="1" stop-color="#66009F"/>
</linearGradient>
</defs>
</svg>
