<svg width="30" height="25" viewBox="0 0 30 25" fill="none" xmlns="http://www.w3.org/2000/svg">
<path d="M29.4065 1.18666C29.2699 1.13803 26.0119 0 22.0542 0C19.4829 0 17.2076 0.480035 15.8912 0.830683V19.0346C17.2041 18.6846 19.4711 18.2063 22.0542 18.2063C26.0387 18.2063 29.2729 19.3449 29.4089 19.393C29.4202 19.3971 29.4321 19.4019 29.4439 19.4066L30 19.6321V2.02559C30 1.64826 29.7623 1.31247 29.4065 1.18666ZM25.81 15.4989C25.6792 15.862 25.3365 16.0881 24.9711 16.0881C24.8713 16.0881 24.7697 16.0715 24.67 16.0353C23.0778 15.4645 21.3134 15.4343 19.7029 15.9516L19.41 16.0454C18.9413 16.1955 18.4399 15.938 18.289 15.4698C18.1387 15.0023 18.3965 14.5009 18.8653 14.3508L19.1575 14.2565C21.1406 13.6205 23.3119 13.6573 25.2724 14.3603C25.7357 14.5265 25.9762 15.0362 25.81 15.4989ZM25.81 10.6342C25.6792 10.9973 25.3365 11.2234 24.9711 11.2234C24.8713 11.2234 24.7697 11.2068 24.67 11.1712C23.0778 10.5998 21.3134 10.5701 19.7029 11.0869L19.41 11.1807C18.9413 11.3314 18.4399 11.0733 18.289 10.6057C18.1387 10.1376 18.3965 9.63622 18.8653 9.48612L19.1575 9.39237C21.1406 8.75574 23.3125 8.79249 25.2724 9.4956C25.7357 9.66174 25.9762 10.1714 25.81 10.6342ZM25.81 5.76949C25.6792 6.1326 25.3365 6.35925 24.9711 6.35925C24.8713 6.35925 24.7697 6.34204 24.67 6.30646C23.0778 5.73508 21.3134 5.70541 19.7029 6.2222L19.41 6.31594C18.9413 6.46663 18.4399 6.20915 18.289 5.74099C18.1387 5.27284 18.3965 4.7715 18.8647 4.6214L19.1576 4.52765C21.1406 3.8916 23.3126 3.92841 25.2725 4.63088C25.7357 4.79701 25.9762 5.30672 25.81 5.76949Z" fill="#69308A"/>
<path d="M7.94584 0C3.98807 0 0.730137 1.13803 0.593496 1.18666C0.237656 1.31247 0 1.64826 0 2.02559V19.6356L0.556055 19.4101C0.567949 19.4054 0.579844 19.4012 0.591094 19.3971C0.727148 19.3485 3.96135 18.2098 7.94584 18.2098C10.5289 18.2099 12.7959 18.6881 14.1088 19.0382V0.830625C12.7924 0.479976 10.5171 0 7.94584 0ZM11.7011 15.4989C11.571 15.862 11.2281 16.0881 10.8628 16.0881C10.7624 16.0881 10.6608 16.0715 10.5616 16.0353C8.96883 15.4645 7.20504 15.4343 5.59389 15.9516L5.30098 16.0454C4.83223 16.1955 4.33084 15.938 4.18055 15.4698C4.02967 15.0023 4.28748 14.5009 4.75623 14.3508L5.04914 14.2565C7.0316 13.6205 9.20356 13.6573 11.164 14.3603C11.6268 14.5265 11.8674 15.0362 11.7011 15.4989ZM11.7011 10.6342C11.571 10.9973 11.2281 11.2234 10.8628 11.2234C10.7624 11.2234 10.6608 11.2068 10.5616 11.1712C8.96883 10.5998 7.20504 10.5701 5.59389 11.0869L5.30098 11.1807C4.83223 11.3314 4.33084 11.0733 4.18055 10.6057C4.02967 10.1376 4.28748 9.63628 4.75623 9.48612L5.04914 9.39237C7.03219 8.75574 9.20356 8.79249 11.164 9.4956C11.6268 9.66174 11.8674 10.1714 11.7011 10.6342ZM11.7011 5.76949C11.571 6.1326 11.2281 6.35925 10.8628 6.35925C10.7624 6.35925 10.6608 6.34204 10.5616 6.30646C8.96883 5.73508 7.20504 5.70541 5.59389 6.2222L5.30162 6.31594C4.83287 6.46663 4.3309 6.20915 4.18061 5.74099C4.02973 5.27289 4.28754 4.7715 4.75629 4.6214L5.0492 4.52765C7.03225 3.8916 9.20361 3.92841 11.1641 4.63088C11.6268 4.79701 11.8674 5.30672 11.7011 5.76949Z" fill="#69308A"/>
<path d="M11.8305 22.4915C11.7908 22.3893 11.7694 22.2796 11.7694 22.1669V20.3447C10.6762 20.1489 9.3556 19.99 7.94584 19.99C5.06039 19.99 2.56465 20.6498 1.60816 20.9399V24.1095C1.60816 24.3747 1.72699 24.6263 1.93137 24.7954C2.13633 24.9646 2.40604 25.0334 2.66684 24.9835L12.0705 23.1857C12.0723 23.1893 12.0741 23.1923 12.0759 23.1958C11.969 22.9751 11.8858 22.7395 11.8305 22.4915Z" fill="#69308A"/>
<path d="M15.3499 21.0519C15.1455 21.1391 14.9139 21.1492 14.7 21.0727C14.6887 21.0691 14.2651 20.9208 13.5516 20.7351V22.0054C13.5528 22.0102 13.5534 22.0155 13.554 22.0209C13.6675 22.7151 14.2622 23.2194 14.9679 23.2194C15.6654 23.2194 16.2678 22.708 16.3813 22.0256V20.7476C15.8388 20.8911 15.4764 21.0092 15.3499 21.0519Z" fill="#69308A"/>
<path d="M22.0542 19.9863C20.6123 19.9863 19.2673 20.1508 18.1635 20.3518V22.1253C18.1635 22.2054 18.1529 22.2837 18.1321 22.3596C18.0798 22.648 17.9889 22.9227 17.8654 23.1784C17.8713 23.1672 17.8772 23.1559 17.8826 23.1446C28.3206 25.0907 27.7283 24.9994 27.8852 24.9994C28.0913 24.9994 28.2933 24.9276 28.4543 24.7941C28.6581 24.625 28.7763 24.3741 28.7763 24.1094V21.062L28.7798 21.0596C28.4595 20.9505 25.5271 19.9863 22.0542 19.9863Z" fill="#69308A"/>
</svg>
