<svg width="152" height="22" viewBox="0 0 152 22" fill="none" xmlns="http://www.w3.org/2000/svg">
<path d="M1 21V1H4.29793V21H1ZM14.4974 21V1H16.5627L31.2867 14.3743C31.6233 14.678 31.9792 15.0466 32.3603 15.4723C32.7355 15.9053 33.1231 16.3768 33.5235 16.8935C33.4219 16.2535 33.352 15.5821 33.301 14.8784C33.25 14.1813 33.2247 13.2123 33.2247 11.9723V1H36.2435V21H34.4007L19.2827 7.0898C19.2128 7.03141 19.0983 6.92815 18.9521 6.79221C18.2026 6.10816 17.6496 5.45592 17.2937 4.84201C17.3696 5.44895 17.4206 6.09466 17.4588 6.77914C17.4969 7.47017 17.5162 8.27708 17.5162 9.21384V20.9991H14.4974V21ZM64.8727 3.72531H49.4622V18.2172H64.8727V12.3592H56.9036V9.80204H68.1518V16.2735C68.1518 18.1004 67.8276 19.3474 67.1858 20.0057C66.538 20.6702 65.3177 20.9996 63.532 20.9996H50.8033C48.9987 20.9996 47.785 20.6641 47.1431 19.9988C46.5013 19.3273 46.1836 18.0873 46.1836 16.2731V5.73346C46.1836 3.9192 46.5013 2.67266 47.1431 2.00124C47.7854 1.33593 48.9987 1 50.8033 1H63.532C65.2985 1 66.5062 1.32285 67.1674 1.9751C67.8216 2.62734 68.1522 3.80287 68.1522 5.50733V5.99793L64.8731 6.66325V3.72531H64.8727ZM77.5885 21V1H80.8864V18.2172H95.7824V21H77.5885ZM104.832 18.2172H121.119V3.72531H104.832V18.2172ZM101.553 5.73346C101.553 3.91223 101.871 2.67266 102.512 2.00124C103.154 1.33593 104.375 1 106.173 1H119.778C121.552 1 122.758 1.32939 123.401 1.99471C124.043 2.65305 124.36 3.89959 124.36 5.73346V16.2665C124.36 18.113 124.043 19.36 123.401 20.0184C122.758 20.6702 121.551 20.9996 119.778 20.9996H106.173C104.375 20.9996 103.154 20.6641 102.512 19.9988C101.871 19.3273 101.553 18.0873 101.553 16.2665V5.73346ZM141.97 3.72531V21H138.691V3.72531H129.698V1H151V3.72531H141.97Z" fill="#1D1D1B" stroke="#1D1D1B" stroke-width="0.216" stroke-miterlimit="22.9256"/>
</svg>
