<svg width="25" height="30" viewBox="0 0 25 30" fill="none" xmlns="http://www.w3.org/2000/svg">
<path d="M8.66797 17.3984V11.8516H12.1055C13.1862 11.8516 14.0391 11.5911 14.6641 11.0703C15.3021 10.5495 15.6211 9.83984 15.6211 8.94141C15.6211 8.05599 15.3021 7.35938 14.6641 6.85156C14.026 6.33073 13.1406 6.07031 12.0078 6.07031C10.901 6.07031 10.0026 6.38281 9.3125 7.00781C8.6224 7.61979 8.27734 8.42057 8.27734 9.41016H0.816406C0.829427 6.58464 1.89062 4.31901 4 2.61328C6.10938 0.894531 8.89583 0.0351562 12.3594 0.0351562C15.6927 0.0351562 18.3359 0.738281 20.2891 2.14453C22.2552 3.53776 23.2383 5.42578 23.2383 7.80859C23.2383 9.47526 22.6914 10.8945 21.5977 12.0664C20.5039 13.2253 19.0911 13.9609 17.3594 14.2734V14.4297C19.4557 14.6641 21.1224 15.3737 22.3594 16.5586C23.5964 17.7305 24.2148 19.2669 24.2148 21.168C24.2148 23.7982 23.1081 25.8945 20.8945 27.457C18.681 29.0065 15.7057 29.7812 11.9688 29.7812C8.55729 29.7812 5.79036 28.9284 3.66797 27.2227C1.55859 25.5039 0.432292 23.2057 0.289062 20.3281H8.17969C8.20573 21.2656 8.57031 22.0078 9.27344 22.5547C9.97656 23.0885 10.9336 23.3555 12.1445 23.3555C13.2383 23.3555 14.1172 23.082 14.7812 22.5352C15.4583 21.9753 15.7969 21.2396 15.7969 20.3281C15.7969 19.4036 15.4648 18.6875 14.8008 18.1797C14.1497 17.6589 13.2383 17.3984 12.0664 17.3984H8.66797Z" fill="url(#paint0_linear)"/>
<defs>
<linearGradient id="paint0_linear" x1="8" y1="-9" x2="8" y2="38" gradientUnits="userSpaceOnUse">
<stop stop-color="#D4E5FF"/>
<stop offset="1" stop-color="#F4E1FF"/>
</linearGradient>
</defs>
</svg>
