<svg width="34" height="40" viewBox="0 0 34 40" fill="none" xmlns="http://www.w3.org/2000/svg">
<path d="M5.13237 3.33344H33.7931V0H5.06895C2.28109 0 0.0210381 2.22931 0 4.97925V35C0 37.7499 2.28109 40 5.06895 40H32.1032C33.0326 40 33.7931 39.2499 33.7931 38.3334V6.66656H25.3447V14.6457C25.3447 15.3751 24.4154 15.7501 23.9086 15.2292L21.9653 13.3334L20.0224 15.2499C19.4943 15.7709 18.5863 15.3958 18.5863 14.6667V6.66656H5.06895C4.13956 6.66656 3.3794 5.91675 3.3794 5C3.3794 4.95819 3.3794 4.91669 3.3794 4.89594C3.46386 3.99994 4.22402 3.31238 5.13237 3.33344ZM10.1379 23.3334H23.6552V26.6666H10.1379V23.3334ZM10.1379 30H23.6552V33.3334H10.1379V30Z" fill="#69308A"/>
</svg>
