<svg width="40" height="29" viewBox="0 0 40 29" fill="none" xmlns="http://www.w3.org/2000/svg">
<path d="M39.795 24.9122L38.0129 22.7082C37.7268 22.3533 37.5715 21.9076 37.5715 21.4453V19.3652V18.0362V14.1896V3.53294C37.5715 1.58487 36.0019 0 34.0726 0H20.9848H5.95944C4.03019 0 2.46062 1.58487 2.46062 3.53294V18.0362V18.8121V21.4123C2.46062 21.8745 2.3053 22.312 2.01918 22.667L0.212545 24.904C0.0735734 25.069 0 25.2837 0 25.4983V26.5218C0 27.8426 1.06273 28.9157 2.3707 28.9157H37.6287C38.9367 28.9157 39.9994 27.8426 39.9994 26.5218V25.4983C40.0076 25.2919 39.934 25.0773 39.795 24.9122ZM23.8051 25.4322C23.8051 26.1009 23.2655 26.6539 22.5952 26.6539H17.4287C16.7666 26.6539 16.2188 26.1091 16.2188 25.4322V25.1681H23.7969V25.4322H23.8051ZM34.0808 19.3734V21.6434H5.94309V18.9689V18.0362V3.52469L5.95127 3.51644H22.5625H34.0645C34.0726 3.51644 34.0726 3.52469 34.0726 3.52469V18.0362V18.9689V19.2083V19.3734H34.0808Z" fill="#69308A"/>
</svg>
