<svg width="40" height="40" viewBox="0 0 40 40" fill="none" xmlns="http://www.w3.org/2000/svg">
<path d="M22.6667 19.9189C22.6667 18.6796 21.8134 17.6449 20.6667 17.3469V10.5856C20.6667 10.2169 20.368 9.91895 20 9.91895C19.632 9.91895 19.3334 10.2169 19.3334 10.5856V17.3469C18.4007 17.5896 17.6707 18.3196 17.428 19.2523H12.6667C12.2987 19.2523 12 19.5503 12 19.9189C12 20.2876 12.2987 20.5856 12.6667 20.5856H17.428C17.726 21.7329 18.7614 22.5856 20 22.5856C21.4707 22.5856 22.6667 21.3896 22.6667 19.9189ZM20 21.2523C19.2647 21.2523 18.6667 20.6543 18.6667 19.9189C18.6667 19.1836 19.2647 18.5856 20 18.5856C20.7354 18.5856 21.3334 19.1836 21.3334 19.9189C21.3334 20.6543 20.7354 21.2523 20 21.2523Z" fill="#69308A"/>
<path d="M20 6.58594C20.368 6.58594 20.6667 6.28794 20.6667 5.91927V5.2526C20.6667 4.88394 20.368 4.58594 20 4.58594C19.632 4.58594 19.3333 4.88394 19.3333 5.2526V5.91927C19.3333 6.28794 19.632 6.58594 20 6.58594Z" fill="#69308A"/>
<path d="M19.3333 33.9196V34.5863C19.3333 34.9549 19.632 35.2529 20 35.2529C20.368 35.2529 20.6667 34.9549 20.6667 34.5863V33.9196C20.6667 33.5509 20.368 33.2529 20 33.2529C19.632 33.2529 19.3333 33.5509 19.3333 33.9196Z" fill="#69308A"/>
<path d="M34.6667 20.5863C35.0347 20.5863 35.3333 20.2883 35.3333 19.9196C35.3333 19.5509 35.0347 19.2529 34.6667 19.2529H34C33.632 19.2529 33.3333 19.5509 33.3333 19.9196C33.3333 20.2883 33.632 20.5863 34 20.5863H34.6667Z" fill="#69308A"/>
<path d="M5.33338 19.2529C4.96538 19.2529 4.66672 19.5509 4.66672 19.9196C4.66672 20.2883 4.96538 20.5863 5.33338 20.5863H6.00005C6.36805 20.5863 6.66672 20.2883 6.66672 19.9196C6.66672 19.5509 6.36805 19.2529 6.00005 19.2529H5.33338Z" fill="#69308A"/>
<path d="M29.8993 10.6857C30.07 10.6857 30.2407 10.6204 30.3707 10.4904L30.842 10.019C31.1027 9.75836 31.1027 9.33703 30.842 9.07636C30.5813 8.81569 30.16 8.81569 29.8993 9.07636L29.428 9.54769C29.1673 9.80836 29.1673 10.2297 29.428 10.4904C29.558 10.621 29.7287 10.6857 29.8993 10.6857Z" fill="#69308A"/>
<path d="M9.62939 29.3478L9.15805 29.8192C8.89739 30.0798 8.89739 30.5012 9.15805 30.7618C9.28805 30.8918 9.45872 30.9572 9.62939 30.9572C9.80005 30.9572 9.97072 30.8918 10.1007 30.7618L10.5721 30.2905C10.8327 30.0298 10.8327 29.6085 10.5721 29.3478C10.3114 29.0872 9.88939 29.0872 9.62939 29.3478Z" fill="#69308A"/>
<path d="M10.5721 9.54769L10.1007 9.07636C9.84005 8.81569 9.41872 8.81569 9.15805 9.07636C8.89739 9.33703 8.89739 9.75836 9.15805 10.019L9.62939 10.4904C9.75939 10.6204 9.93005 10.6857 10.1007 10.6857C10.2714 10.6857 10.4421 10.6204 10.5721 10.4904C10.8327 10.2304 10.8327 9.80836 10.5721 9.54769Z" fill="#69308A"/>
<path d="M20 0C8.97203 0 3.05176e-05 8.972 3.05176e-05 20C3.05176e-05 31.028 8.97203 40 20 40C22.384 40 24.7194 39.5833 26.9427 38.7607C27.288 38.6333 27.464 38.2493 27.3367 37.9047C27.2087 37.558 26.826 37.382 26.48 37.5107C24.4054 38.2773 22.2254 38.6667 20 38.6667C9.70736 38.6667 1.33336 30.2927 1.33336 20C1.33336 9.70733 9.70736 1.33333 20 1.33333C30.2927 1.33333 38.6667 9.70733 38.6667 20C38.6667 22.2267 38.2774 24.406 37.51 26.4793C37.3827 26.8253 37.5587 27.2087 37.904 27.336C38.2494 27.466 38.6327 27.288 38.7607 26.9427C39.5834 24.7207 40 22.3853 40 20C40 8.972 31.028 0 20 0Z" fill="#69308A"/>
<path d="M33.3333 27.4007V26.6667C33.3333 26.298 33.0347 26 32.6667 26C32.2987 26 32 26.298 32 26.6667V27.4033C31.2727 27.5513 30.61 27.9373 30.1213 28.5153C29.714 28.9967 29.5253 29.6127 29.592 30.2507C29.66 30.9033 29.996 31.5087 30.514 31.9113L32 33.0667V36.692C31.226 36.416 30.6667 35.6827 30.6667 34.8147C30.6667 34.446 30.368 34.148 30 34.148C29.632 34.148 29.3333 34.446 29.3333 34.8147C29.3333 36.424 30.4807 37.7707 32 38.0807V38.6667C32 39.0353 32.2987 39.3333 32.6667 39.3333C33.0347 39.3333 33.3333 39.0353 33.3333 38.6667V38.0787C34.0607 37.9307 34.7233 37.5447 35.2127 36.9667C35.62 36.484 35.808 35.868 35.7413 35.23C35.6727 34.578 35.3373 33.9733 34.8193 33.5713L33.3333 32.4147V28.7893C34.1073 29.0653 34.6667 29.7987 34.6667 30.6667C34.6667 31.0353 34.9653 31.3333 35.3333 31.3333C35.7013 31.3333 36 31.0353 36 30.6667C36 29.0573 34.8527 27.7107 33.3333 27.4007ZM34.0007 34.6233C34.2333 34.804 34.3847 35.0767 34.4153 35.3687C34.444 35.642 34.3653 35.904 34.1947 36.1053C33.9627 36.3793 33.6627 36.5713 33.3333 36.6887V34.1033L34.0007 34.6233ZM31.3327 30.8587C31.0993 30.6773 30.9487 30.4047 30.918 30.112C30.89 29.8393 30.968 29.578 31.1387 29.376C31.3707 29.102 31.6707 28.91 32 28.7927V31.3773L31.3327 30.8587Z" fill="#69308A"/>
</svg>
