<svg width="40" height="40" viewBox="0 0 40 40" fill="none" xmlns="http://www.w3.org/2000/svg">
<path d="M19.9933 34.6722C28.0831 34.6722 34.6644 28.0918 34.6644 20.0031C34.6644 11.9144 28.0831 5.33398 19.9933 5.33398C11.9035 5.33398 5.32211 11.9144 5.32211 20.0031C5.32211 28.0918 11.9041 34.6722 19.9933 34.6722ZM19.9933 6.66754C27.3475 6.66754 33.3307 12.6499 33.3307 20.0031C33.3307 27.3563 27.3475 33.3387 19.9933 33.3387C12.639 33.3387 6.65585 27.3563 6.65585 20.0031C6.65585 12.6499 12.6397 6.66754 19.9933 6.66754Z" fill="#69308A"/>
<path d="M19.9933 10.0011C20.3614 10.0011 20.6601 9.70305 20.6601 9.33432V8.00076C20.6601 7.63203 20.3614 7.33398 19.9933 7.33398C19.6251 7.33398 19.3264 7.63203 19.3264 8.00076V9.33432C19.3264 9.70305 19.6251 10.0011 19.9933 10.0011Z" fill="#69308A"/>
<path d="M19.9933 30.0049C19.6251 30.0049 19.3264 30.3029 19.3264 30.6717V32.0052C19.3264 32.3739 19.6251 32.672 19.9933 32.672C20.3614 32.672 20.6601 32.3739 20.6601 32.0052V30.6717C20.6601 30.3029 20.362 30.0049 19.9933 30.0049Z" fill="#69308A"/>
<path d="M30.6632 20.6705H31.9969C32.365 20.6705 32.6638 20.3724 32.6638 20.0037C32.6638 19.635 32.365 19.3369 31.9969 19.3369H30.6632C30.2951 19.3369 29.9963 19.635 29.9963 20.0037C29.9963 20.3724 30.2951 20.6705 30.6632 20.6705Z" fill="#69308A"/>
<path d="M9.32333 19.3369H7.98959C7.62148 19.3369 7.32272 19.635 7.32272 20.0037C7.32272 20.3724 7.62148 20.6705 7.98959 20.6705H9.32333C9.69145 20.6705 9.99021 20.3724 9.99021 20.0037C9.99021 19.635 9.69211 19.3369 9.32333 19.3369Z" fill="#69308A"/>
<path d="M12.6577 27.3381C12.8284 27.3381 12.9991 27.2727 13.1291 27.1427L18.6468 21.6258C19.0436 21.8605 19.5004 22.0038 19.9932 22.0038C21.4644 22.0038 22.6607 20.8076 22.6607 19.3367C22.6607 18.0972 21.8071 17.0623 20.6601 16.7643V13.3357C20.6601 12.967 20.3614 12.6689 19.9932 12.6689C19.6251 12.6689 19.3264 12.967 19.3264 13.3357V16.7643C18.1794 17.0623 17.3258 18.0972 17.3258 19.3367C17.3258 19.8301 17.4691 20.2862 17.7039 20.6829L12.1862 26.1999C11.9254 26.4606 11.9254 26.882 12.1862 27.1427C12.3169 27.2727 12.4876 27.3381 12.6577 27.3381ZM19.9932 18.0032C20.7288 18.0032 21.327 18.6013 21.327 19.3367C21.327 20.0722 20.7288 20.6703 19.9932 20.6703C19.2577 20.6703 18.6595 20.0722 18.6595 19.3367C18.6595 18.6013 19.2577 18.0032 19.9932 18.0032Z" fill="#69308A"/>
<path d="M6.71188 6.66778H11.9915C12.3596 6.66778 12.6584 6.36973 12.6584 6.001C12.6584 5.63227 12.3596 5.33422 11.9915 5.33422H8.45574C11.7394 2.74379 15.7746 1.33356 19.9939 1.33356C30.2897 1.33356 38.6663 9.70895 38.6663 20.0033C38.6663 20.3721 38.9651 20.6701 39.3332 20.6701C39.7013 20.6701 40 20.3721 40 20.0033C40 8.9735 31.0253 0 19.9939 0C15.3385 0 10.8958 1.6056 7.3234 4.54076V0.666778C7.3234 0.29805 7.02464 0 6.65652 0C6.28841 0 5.98965 0.29805 5.98965 0.666778V6.66778H6.58517C6.62785 6.67245 6.66853 6.67111 6.71188 6.66778Z" fill="#69308A"/>
<path d="M3.20143 28.1571C3.03472 27.8237 2.64126 27.691 2.30783 27.8504C1.97439 28.0104 1.84102 28.4105 2.00107 28.7439C2.11443 28.9779 2.35451 29.1179 2.60125 29.1179C2.69461 29.1179 2.79464 29.0979 2.888 29.0506C3.22144 28.8912 3.36215 28.4905 3.20143 28.1571Z" fill="#69308A"/>
<path d="M5.23538 31.4321C5.00865 31.1394 4.59519 31.0854 4.30176 31.3121C4.00834 31.5388 3.95499 31.9589 4.18173 32.2449C4.3151 32.4189 4.51516 32.5056 4.70855 32.5056C4.85527 32.5056 4.99531 32.4589 5.12201 32.3656C5.40877 32.1389 5.46212 31.7182 5.23538 31.4321Z" fill="#69308A"/>
<path d="M4.13507 29.8451C3.94168 29.5318 3.52822 29.4384 3.21479 29.6318C2.90136 29.8325 2.808 30.2385 3.00139 30.5519C3.12809 30.7526 3.34816 30.866 3.56823 30.866C3.68827 30.866 3.8083 30.8326 3.92167 30.766C4.2351 30.5719 4.32846 30.1579 4.13507 29.8451Z" fill="#69308A"/>
<path d="M5.5555 32.8726C5.28875 33.126 5.28209 33.546 5.5355 33.8127C5.6622 33.9528 5.84226 34.0194 6.01564 34.0194C6.18236 34.0194 6.34908 33.9594 6.47578 33.8334C6.74253 33.5794 6.75587 33.1593 6.49579 32.8933C6.24238 32.6259 5.82225 32.6192 5.5555 32.8726Z" fill="#69308A"/>
<path d="M6.96258 34.2925C6.72251 34.5725 6.75586 34.9926 7.03594 35.2326C7.16265 35.3393 7.31603 35.3926 7.46941 35.3926C7.65613 35.3926 7.84285 35.3126 7.97623 35.1586C8.2163 34.8786 8.18296 34.4585 7.90287 34.2184C7.62279 33.9791 7.20266 34.0124 6.96258 34.2925Z" fill="#69308A"/>
<path d="M1.39423 25.3512C1.74767 25.2578 1.96774 24.8978 1.88105 24.5377C1.78769 24.1843 1.42758 23.9643 1.06747 24.0576C0.714026 24.1443 0.493959 24.5044 0.587321 24.8644C0.660676 25.1645 0.934093 25.3712 1.23418 25.3712C1.28753 25.3712 1.34088 25.3645 1.39423 25.3512Z" fill="#69308A"/>
<path d="M0.940739 23.3971C1.30752 23.3438 1.56093 23.0104 1.50758 22.6437C1.45423 22.277 1.11413 22.0236 0.754015 22.0763C0.387237 22.1296 0.133826 22.4703 0.187176 22.8304C0.233856 23.1638 0.520611 23.4031 0.847377 23.4031C0.880721 23.4038 0.907396 23.4038 0.940739 23.3971Z" fill="#69308A"/>
<path d="M2.44125 26.3837C2.32122 26.037 1.93443 25.8576 1.58766 25.9837C1.24089 26.1104 1.0675 26.4904 1.1942 26.8371C1.28757 27.1105 1.54765 27.2772 1.81439 27.2772C1.89442 27.2772 1.96777 27.2632 2.0478 27.2365C2.39457 27.1112 2.56796 26.7311 2.44125 26.3837Z" fill="#69308A"/>
<path d="M0.667348 21.417C0.674017 21.417 0.687354 21.417 0.694023 21.417C1.0608 21.403 1.34756 21.0903 1.33422 20.7236C1.32088 20.3568 1.00745 20.0701 0.640673 20.0835C0.273894 20.0968 -0.0128599 20.4028 0.000477543 20.7769C0.013815 21.1296 0.313907 21.417 0.667348 21.417Z" fill="#69308A"/>
<path d="M8.50975 35.5656C8.29635 35.8657 8.37637 36.2791 8.67647 36.4925C8.7965 36.5725 8.92321 36.6058 9.05658 36.6058C9.26998 36.6058 9.47671 36.5065 9.60342 36.3191C9.81681 36.019 9.73679 35.599 9.4367 35.3923C9.12994 35.1856 8.71648 35.2589 8.50975 35.5656Z" fill="#69308A"/>
<path d="M32.6238 33.7443V33.7383C32.3503 33.9916 32.3303 34.4117 32.5837 34.6851C32.7171 34.8251 32.8972 34.8985 33.0772 34.8985C33.2373 34.8985 33.3973 34.8385 33.524 34.7251C33.7974 34.4717 33.8108 34.051 33.564 33.7849C33.3173 33.5116 32.8905 33.4909 32.6238 33.7443Z" fill="#69308A"/>
<path d="M33.9776 32.3658C33.7308 32.6392 33.7575 33.0593 34.0309 33.306C34.1576 33.4193 34.3177 33.4727 34.471 33.4727C34.6578 33.4727 34.8378 33.3993 34.9712 33.2453C35.2179 32.9726 35.1913 32.5519 34.9178 32.3058C34.6378 32.0658 34.2176 32.0858 33.9776 32.3658Z" fill="#69308A"/>
<path d="M35.1779 30.8513C34.9645 31.1514 35.0312 31.5714 35.3313 31.7848C35.4513 31.8715 35.5847 31.9108 35.7181 31.9108C35.9315 31.9108 36.1315 31.8115 36.2649 31.6308C36.4783 31.3314 36.4116 30.918 36.1115 30.698C35.8114 30.4846 35.3913 30.5579 35.1779 30.8513Z" fill="#69308A"/>
<path d="M31.1367 34.972C30.8432 35.1921 30.7832 35.6121 31.0033 35.9049C31.13 36.0856 31.3301 36.1716 31.5368 36.1716C31.6768 36.1716 31.8169 36.1309 31.9302 36.0449C32.2303 35.8248 32.2904 35.4048 32.0703 35.1121C31.8502 34.812 31.4301 34.752 31.1367 34.972Z" fill="#69308A"/>
<path d="M29.5295 36.0464C29.2161 36.2397 29.1094 36.6465 29.3028 36.9599C29.4228 37.1732 29.6495 37.2866 29.8763 37.2866C29.9896 37.2866 30.1097 37.2599 30.2164 37.1932C30.5298 37.0065 30.6365 36.5931 30.4431 36.2797C30.2564 35.9657 29.8496 35.8597 29.5295 36.0464Z" fill="#69308A"/>
<path d="M37.1319 28.9786C36.8118 28.7979 36.405 28.9112 36.2182 29.2319H36.2249C36.0382 29.5513 36.1516 29.9587 36.4717 30.1388C36.5717 30.1988 36.6851 30.2254 36.7984 30.2254C37.0318 30.2254 37.2586 30.1048 37.3786 29.892C37.5653 29.572 37.452 29.1653 37.1319 28.9786Z" fill="#69308A"/>
<path d="M39.2991 21.3371C38.9324 21.2964 38.6056 21.5638 38.5656 21.9305C38.5256 22.2973 38.7923 22.624 39.1591 22.6647C39.1858 22.6647 39.2058 22.6647 39.2325 22.6647C39.5659 22.6647 39.8593 22.4106 39.8927 22.0646C39.9327 21.7038 39.6659 21.3704 39.2991 21.3371Z" fill="#69308A"/>
<path d="M39.0591 23.3233C38.699 23.2433 38.3455 23.4767 38.2722 23.8374C38.1922 24.1975 38.4256 24.5502 38.7857 24.6242C38.8323 24.6382 38.879 24.6382 38.9257 24.6382C39.2325 24.6382 39.5126 24.4249 39.5726 24.1115C39.6526 23.7508 39.4192 23.3974 39.0591 23.3233Z" fill="#69308A"/>
<path d="M38.6123 25.2707C38.2655 25.1573 37.8854 25.3507 37.7787 25.7041C37.6653 26.0508 37.8587 26.4309 38.2055 26.5442C38.2722 26.5642 38.3456 26.5709 38.4122 26.5709C38.6923 26.5709 38.9524 26.3909 39.0458 26.1115C39.1591 25.7581 38.9657 25.384 38.6123 25.2707Z" fill="#69308A"/>
<path d="M37.9721 27.1644C37.632 27.017 37.2385 27.171 37.0918 27.5044C36.9384 27.8445 37.0918 28.2379 37.4319 28.3839C37.5186 28.4246 37.612 28.4446 37.6987 28.4446C37.9587 28.4446 38.1988 28.2912 38.3122 28.0438C38.4589 27.7045 38.3055 27.3111 37.9721 27.1644Z" fill="#69308A"/>
<path d="M27.829 36.9528C27.4889 37.1054 27.3488 37.4995 27.5022 37.8329C27.6156 38.0789 27.8556 38.219 28.109 38.219C28.2024 38.219 28.2958 38.1996 28.3891 38.159C28.7226 38.0063 28.8693 37.6055 28.7092 37.2721C28.5558 36.9387 28.1624 36.7927 27.829 36.9528Z" fill="#69308A"/>
<path d="M16.5122 38.3463C16.1521 38.2796 15.7987 38.513 15.732 38.8797C15.6653 39.2398 15.8987 39.5872 16.2655 39.6599C16.3055 39.6672 16.3455 39.6672 16.3855 39.6672C16.6989 39.6672 16.979 39.4472 17.0457 39.1264C17.1124 38.7664 16.8723 38.4123 16.5122 38.3463Z" fill="#69308A"/>
<path d="M18.4261 38.6053C18.0594 38.572 17.7326 38.8453 17.7059 39.2121C17.6726 39.5861 17.946 39.9055 18.3128 39.9388C18.3128 39.9322 18.3128 39.9322 18.3128 39.9322C18.3328 39.9388 18.3528 39.9388 18.3661 39.9388C18.7129 39.9388 19.0063 39.6728 19.033 39.3254C19.0597 38.9594 18.7929 38.6393 18.4261 38.6053Z" fill="#69308A"/>
<path d="M14.6383 37.893C14.2848 37.7863 13.9114 37.9863 13.8047 38.3331C13.7047 38.6858 13.8981 39.0599 14.2515 39.1665C14.3182 39.1859 14.3849 39.1932 14.4449 39.1932C14.7316 39.1932 14.9984 39.0065 15.0851 38.7191C15.1918 38.3664 14.9917 37.9923 14.6383 37.893Z" fill="#69308A"/>
<path d="M12.8177 37.2401C12.4776 37.1001 12.0908 37.2601 11.9508 37.6002C11.8041 37.9402 11.9641 38.327 12.3042 38.4743C12.3909 38.5076 12.4776 38.5203 12.5643 38.5203C12.8244 38.5203 13.0711 38.3676 13.1778 38.1143C13.3179 37.7729 13.1578 37.3801 12.8177 37.2401Z" fill="#69308A"/>
<path d="M22.2806 38.5328C21.9139 38.5788 21.6538 38.9122 21.7005 39.2722C21.7405 39.613 22.0272 39.8597 22.3607 39.8597C22.3873 39.8597 22.414 39.8597 22.4407 39.8523C22.4407 39.8597 22.4407 39.8597 22.4407 39.8597C22.8075 39.813 23.0675 39.4796 23.0209 39.1129C22.9809 38.7455 22.6474 38.4861 22.2806 38.5328Z" fill="#69308A"/>
<path d="M26.0358 37.6731C25.689 37.7864 25.5023 38.1665 25.6223 38.5199C25.7157 38.7933 25.9758 38.9666 26.2492 38.9666C26.3225 38.9666 26.3959 38.9533 26.4692 38.9333C26.816 38.8133 27.0027 38.4332 26.8827 38.0865C26.762 37.7331 26.3819 37.5524 26.0358 37.6731Z" fill="#69308A"/>
<path d="M24.1812 38.2C23.8211 38.28 23.5944 38.6401 23.6811 39.0001C23.7477 39.3068 24.0278 39.5135 24.3279 39.5135C24.3813 39.5135 24.428 39.5136 24.4813 39.5002C24.8347 39.4202 25.0615 39.0601 24.9815 38.7001C24.8948 38.34 24.5413 38.12 24.1812 38.2Z" fill="#69308A"/>
<path d="M20.3534 38.6661C19.9866 38.6728 19.6932 38.9795 19.6998 39.3463C19.7065 39.713 20.0066 39.9997 20.3667 39.9997C20.3734 39.9997 20.3734 39.9997 20.3801 39.9997C20.7468 39.9924 21.0403 39.693 21.0336 39.3189C21.0269 38.9529 20.7202 38.6588 20.3534 38.6661Z" fill="#69308A"/>
<path d="M11.0772 36.406C10.7571 36.226 10.3503 36.346 10.1703 36.6727C9.99689 36.9921 10.1169 37.3995 10.4437 37.5729C10.5437 37.6329 10.6504 37.6595 10.7571 37.6595C10.9972 37.6595 11.2239 37.5335 11.344 37.3068C11.524 36.9861 11.404 36.5787 11.0772 36.406Z" fill="#69308A"/>
</svg>
