<svg width="26" height="30" viewBox="0 0 26 30" fill="none" xmlns="http://www.w3.org/2000/svg">
<path d="M13.1016 29.7812C9.26042 29.7812 6.19401 29.013 3.90234 27.4766C1.6237 25.9401 0.484375 23.9023 0.484375 21.3633C0.484375 19.4232 1.14844 17.7956 2.47656 16.4805C3.81771 15.1523 5.54948 14.3776 7.67188 14.1562V14C5.90104 13.7005 4.44922 12.9518 3.31641 11.7539C2.18359 10.556 1.61719 9.14323 1.61719 7.51562C1.61719 5.32812 2.67839 3.53776 4.80078 2.14453C6.9362 0.738281 9.70312 0.0351562 13.1016 0.0351562C16.5 0.0351562 19.2604 0.738281 21.3828 2.14453C23.5182 3.55078 24.5859 5.34766 24.5859 7.53516C24.5859 9.13672 24.0195 10.543 22.8867 11.7539C21.7539 12.9518 20.3151 13.7005 18.5703 14V14.1562C20.6927 14.3776 22.418 15.1523 23.7461 16.4805C25.0742 17.7956 25.7383 19.4297 25.7383 21.3828C25.7383 23.8958 24.5794 25.9271 22.2617 27.4766C19.944 29.013 16.8906 29.7812 13.1016 29.7812ZM10.2891 23.2773C11.0182 23.9414 11.9557 24.2734 13.1016 24.2734C14.2474 24.2734 15.1784 23.9414 15.8945 23.2773C16.6237 22.6133 16.9883 21.7734 16.9883 20.7578C16.9883 19.7422 16.6237 18.9023 15.8945 18.2383C15.1784 17.5742 14.2474 17.2422 13.1016 17.2422C11.9557 17.2422 11.0182 17.5742 10.2891 18.2383C9.57292 18.9023 9.21484 19.7422 9.21484 20.7578C9.21484 21.7734 9.57292 22.6133 10.2891 23.2773ZM10.7383 10.8555C11.3633 11.4544 12.151 11.7539 13.1016 11.7539C14.0521 11.7539 14.8398 11.4544 15.4648 10.8555C16.1029 10.2565 16.4219 9.52083 16.4219 8.64844C16.4219 7.76302 16.1029 7.02083 15.4648 6.42188C14.8398 5.82292 14.0521 5.52344 13.1016 5.52344C12.151 5.52344 11.3633 5.82292 10.7383 6.42188C10.1133 7.02083 9.80078 7.76302 9.80078 8.64844C9.80078 9.52083 10.1133 10.2565 10.7383 10.8555Z" fill="url(#paint0_linear)"/>
<defs>
<linearGradient id="paint0_linear" x1="8" y1="-9" x2="8" y2="38" gradientUnits="userSpaceOnUse">
<stop stop-color="#D4E5FF"/>
<stop offset="1" stop-color="#F4E1FF"/>
</linearGradient>
</defs>
</svg>
