<svg width="32" height="27" viewBox="0 0 32 27" fill="none" xmlns="http://www.w3.org/2000/svg">
<path d="M19.6104 11.8701L18.3716 8.8937C15.8938 4.2874 18.6547 0 18.6547 0C15.4691 3.33071 13.2391 8.92913 13.2391 8.92913L12.0002 11.8701C11.2923 13.5 11.6463 15.4134 12.8851 16.7244C14.3718 18.3543 16.9203 18.4252 18.5485 16.9016C18.6193 16.8307 18.6547 16.7953 18.7255 16.7244C19.9644 15.4134 20.283 13.5354 19.6104 11.8701Z" fill="#69308A"/>
<path d="M31.9991 12.0473C32.0345 10.8071 31.0434 9.74414 29.8045 9.74414H21.3094C20.8493 9.74414 20.4599 10.1693 20.4953 10.63C20.4953 10.7363 20.5307 10.8426 20.5661 10.9489C21.4156 12.9686 21.2032 15.378 19.8582 17.0788C18.053 19.3465 14.7611 19.7363 12.4958 17.9646C12.1772 17.7166 11.8586 17.3977 11.6109 17.0788C10.2304 15.378 10.018 12.9686 10.9029 10.9489C11.0799 10.5237 10.9029 10.0276 10.4782 9.81501C10.372 9.77957 10.2658 9.74414 10.1596 9.74414H2.19548C0.956617 9.77957 -0.0344767 10.8071 0.00091945 12.0473V24.6969C-0.0344767 25.9371 0.956617 26.9646 2.19548 27H29.8045C31.0434 26.9646 32.0345 25.9371 31.9991 24.6969V12.0473Z" fill="#69308A"/>
</svg>
