<svg width="24" height="29" fill="none" xmlns="http://www.w3.org/2000/svg"><path d="M.21 9.664c0-2.89 1.05-5.215 3.145-6.973C5.452.921 8.238.035 11.715.035c3.385 0 6.068.788 8.047 2.363 1.992 1.563 2.988 3.633 2.988 6.211 0 .73-.124 1.472-.371 2.227-.248.742-.534 1.38-.86 1.914a11.382 11.382 0 0 1-1.23 1.68c-.495.586-.892 1.022-1.191 1.308-.3.287-.664.619-1.094.996l-6.621 5.86v.156h11.699V29H.699v-5.508l11.328-10.02c.964-.859 1.66-1.646 2.09-2.363.443-.729.664-1.477.664-2.246 0-.781-.3-1.425-.898-1.933-.6-.521-1.42-.782-2.461-.782-1.08 0-1.966.326-2.656.977-.677.651-1.016 1.49-1.016 2.52v.175H.21v-.156z" fill="url(#paint0_linear)"/><defs><linearGradient id="paint0_linear" x1="8" y1="-9" x2="8" y2="38" gradientUnits="userSpaceOnUse"><stop stop-color="#D4E5FF"/><stop offset="1" stop-color="#F4E1FF"/></linearGradient></defs></svg>