<svg width="24" height="30" viewBox="0 0 24 30" fill="none" xmlns="http://www.w3.org/2000/svg">
<path d="M11.6719 29.7812C8.32552 29.7812 5.57812 28.9219 3.42969 27.2031C1.29427 25.4844 0.213542 23.2773 0.1875 20.582H7.62891C7.79818 21.4544 8.26042 22.1641 9.01562 22.7109C9.78385 23.2578 10.6888 23.5312 11.7305 23.5312C12.9023 23.5312 13.8464 23.1602 14.5625 22.418C15.2917 21.6758 15.6562 20.7188 15.6562 19.5469C15.6562 18.3099 15.2982 17.3138 14.582 16.5586C13.8659 15.8034 12.9154 15.4258 11.7305 15.4258C10.9362 15.4258 10.2005 15.6081 9.52344 15.9727C8.84635 16.3242 8.29948 16.8255 7.88281 17.4766H0.636719L1.88672 0.816406H21.5938V7.06641H8.25391L7.82422 13.3164H7.98047C8.5013 12.2487 9.29557 11.4089 10.3633 10.7969C11.444 10.1849 12.7266 9.87891 14.2109 9.87891C16.8802 9.87891 19.0807 10.7708 20.8125 12.5547C22.5443 14.3255 23.4102 16.5911 23.4102 19.3516C23.4102 22.4896 22.3359 25.0156 20.1875 26.9297C18.0391 28.8307 15.2005 29.7812 11.6719 29.7812Z" fill="url(#paint0_linear)"/>
<defs>
<linearGradient id="paint0_linear" x1="7" y1="-9" x2="7" y2="38" gradientUnits="userSpaceOnUse">
<stop stop-color="#D4E5FF"/>
<stop offset="1" stop-color="#F4E1FF"/>
</linearGradient>
</defs>
</svg>
