<svg width="40" height="40" viewBox="0 0 40 40" fill="none" xmlns="http://www.w3.org/2000/svg">
<path d="M22 0H2C0.8 0 0 0.8 0 2V38C0 39.2 1 40 2 40H28C29.2 40 30 39.2 30 38V8L22 0ZM14 8H20C21.2 8 22 9 22 10C22 11.2 21.2 12 20 12H14C13 12 12 11.2 12 10C12 9 13 8 14 8ZM6 36C5 36 4 35.2 4 34C4 33 5 32 6 32C7.2 32 8 33 8 34C8 35.2 7.2 36 6 36ZM6 28C5 28 4 27.2 4 26C4 25 5 24 6 24C7.2 24 8 25 8 26C8 27.2 7.2 28 6 28ZM6 20C5 20 4 19.2 4 18C4 17 5 16 6 16C7.2 16 8 17 8 18C8 19.2 7.2 20 6 20ZM6 12C5 12 4 11.2 4 10C4 9 5 8 6 8C7.2 8 8 9 8 10C8 11.2 7.2 12 6 12ZM24 36H14C13 36 12 35.2 12 34C12 33 13 32 14 32H24C25.2 32 26 33 26 34C26 35.2 25.2 36 24 36ZM24 28H14C13 28 12 27.2 12 26C12 25 13 24 14 24H24C25.2 24 26 25 26 26C26 27.2 25.2 28 24 28ZM24 20H14C13 20 12 19.2 12 18C12 17 13 16 14 16H24C25.2 16 26 17 26 18C26 19.2 25.2 20 24 20Z" fill="#69308A"/>
<path d="M37 0C35.4 0 34 1.4 34 3V6H40V3C40 1.4 38.6 0 37 0Z" fill="#69308A"/>
<path d="M34 10V29C34 30.6 35.4 40 37 40C38.6 40 40 30.6 40 29V10H34Z" fill="#69308A"/>
</svg>
